{
	"asset":{
		"generator":"Khronos glTF Blender I/O v5.0.21",
		"version":"2.0"
	},
	"scene":0,
	"scenes":[
		{
			"name":"Scene",
			"nodes":[
				0
			]
		}
	],
	"nodes":[
		{
			"mesh":0,
			"name":"Tessuto"
		}
	],
	"materials":[
		{
			"doubleSided":true,
			"name":"Tessuto"
		}
	],
	"meshes":[
		{
			"name":"Mesh_0",
			"primitives":[
				{
					"attributes":{
						"POSITION":0,
						"NORMAL":1,
						"TEXCOORD_0":2
					},
					"indices":3,
					"material":0
				}
			]
		}
	],
	"accessors":[
		{
			"bufferView":0,
			"componentType":5126,
			"count":7496,
			"max":[
				0.2128797471523285,
				0.3581485450267792,
				0.01294371485710144
			],
			"min":[
				-0.20922613143920898,
				-0.38352587819099426,
				-0.15336237847805023
			],
			"type":"VEC3"
		},
		{
			"bufferView":1,
			"componentType":5126,
			"count":7496,
			"type":"VEC3"
		},
		{
			"bufferView":2,
			"componentType":5126,
			"count":7496,
			"type":"VEC2"
		},
		{
			"bufferView":3,
			"componentType":5123,
			"count":43803,
			"type":"SCALAR"
		}
	],
	"bufferViews":[
		{
			"buffer":0,
			"byteLength":89952,
			"byteOffset":0,
			"target":34962
		},
		{
			"buffer":0,
			"byteLength":89952,
			"byteOffset":89952,
			"target":34962
		},
		{
			"buffer":0,
			"byteLength":59968,
			"byteOffset":179904,
			"target":34962
		},
		{
			"buffer":0,
			"byteLength":87606,
			"byteOffset":239872,
			"target":34963
		}
	],
	"buffers":[
		{
			"byteLength":327480,
			"uri":"NoPleat.bin"
		}
	]
}
