{
	"asset":{
		"generator":"Khronos glTF Blender I/O v4.5.47",
		"version":"2.0"
	},
	"scene":0,
	"scenes":[
		{
			"name":"Scene",
			"nodes":[
				0
			]
		}
	],
	"nodes":[
		{
			"mesh":0,
			"name":"PK-7",
			"rotation":[
				-0.20569105446338654,
				-0.011044198647141457,
				0.9785422086715698,
				0.004938934464007616
			],
			"scale":[
				-0.36263903975486755,
				-0.3885573744773865,
				-0.008913174271583557
			]
		}
	],
	"materials":[
		{
			"name":"default.001"
		}
	],
	"meshes":[
		{
			"name":"Cube.002",
			"primitives":[
				{
					"attributes":{
						"POSITION":0,
						"NORMAL":1,
						"TEXCOORD_0":2
					},
					"indices":3,
					"material":0
				}
			]
		}
	],
	"accessors":[
		{
			"bufferView":0,
			"componentType":5126,
			"count":2604,
			"max":[
				2.852837562561035,
				3.2372002601623535,
				10.522443771362305
			],
			"min":[
				1.5420374870300293,
				1.259725570678711,
				-52.16004180908203
			],
			"type":"VEC3"
		},
		{
			"bufferView":1,
			"componentType":5126,
			"count":2604,
			"type":"VEC3"
		},
		{
			"bufferView":2,
			"componentType":5126,
			"count":2604,
			"type":"VEC2"
		},
		{
			"bufferView":3,
			"componentType":5123,
			"count":15552,
			"type":"SCALAR"
		}
	],
	"bufferViews":[
		{
			"buffer":0,
			"byteLength":31248,
			"byteOffset":0,
			"target":34962
		},
		{
			"buffer":0,
			"byteLength":31248,
			"byteOffset":31248,
			"target":34962
		},
		{
			"buffer":0,
			"byteLength":20832,
			"byteOffset":62496,
			"target":34962
		},
		{
			"buffer":0,
			"byteLength":31104,
			"byteOffset":83328,
			"target":34963
		}
	],
	"buffers":[
		{
			"byteLength":114432,
			"uri":"ChestPatch2.bin"
		}
	]
}
