{
	"asset":{
		"generator":"Khronos glTF Blender I/O v4.5.47",
		"version":"2.0"
	},
	"scene":0,
	"scenes":[
		{
			"name":"Scene",
			"nodes":[
				0
			]
		}
	],
	"nodes":[
		{
			"mesh":0,
			"name":"ChestPocket",
			"rotation":[
				0.7046940922737122,
				-0.05836363509297371,
				0.058363646268844604,
				0.7046940326690674
			],
			"scale":[
				0.6921109557151794,
				1,
				5.438460826873779
			]
		}
	],
	"materials":[
		{
			"name":"default.002"
		}
	],
	"meshes":[
		{
			"name":"ChestPocket",
			"primitives":[
				{
					"attributes":{
						"POSITION":0,
						"NORMAL":1,
						"TEXCOORD_0":2
					},
					"indices":3,
					"material":0
				}
			]
		}
	],
	"accessors":[
		{
			"bufferView":0,
			"componentType":5126,
			"count":517,
			"max":[
				1.3730376958847046,
				0.6099764108657837,
				-0.1439456045627594
			],
			"min":[
				0.7457560300827026,
				0.19468605518341064,
				-0.2617942988872528
			],
			"type":"VEC3"
		},
		{
			"bufferView":1,
			"componentType":5126,
			"count":517,
			"type":"VEC3"
		},
		{
			"bufferView":2,
			"componentType":5126,
			"count":517,
			"type":"VEC2"
		},
		{
			"bufferView":3,
			"componentType":5123,
			"count":2832,
			"type":"SCALAR"
		}
	],
	"bufferViews":[
		{
			"buffer":0,
			"byteLength":6204,
			"byteOffset":0,
			"target":34962
		},
		{
			"buffer":0,
			"byteLength":6204,
			"byteOffset":6204,
			"target":34962
		},
		{
			"buffer":0,
			"byteLength":4136,
			"byteOffset":12408,
			"target":34962
		},
		{
			"buffer":0,
			"byteLength":5664,
			"byteOffset":16544,
			"target":34963
		}
	],
	"buffers":[
		{
			"byteLength":22208,
			"uri":"ChestPatch1.bin"
		}
	]
}
