{
	"asset":{
		"generator":"Khronos glTF Blender I/O v4.5.47",
		"version":"2.0"
	},
	"scene":0,
	"scenes":[
		{
			"name":"Scene",
			"nodes":[
				0
			]
		}
	],
	"nodes":[
		{
			"mesh":0,
			"name":"PK-7",
			"rotation":[
				0.20174260437488556,
				-0.029556406661868095,
				-0.9789736866950989,
				0.006090851966291666
			],
			"scale":[
				-0.36263903975486755,
				-0.3885573744773865,
				-0.008913174271583557
			],
			"translation":[
				0.16670817136764526,
				1.7474021911621094,
				-0.21183213591575623
			]
		}
	],
	"materials":[
		{
			"name":"default.005"
		}
	],
	"meshes":[
		{
			"name":"Cube.001",
			"primitives":[
				{
					"attributes":{
						"POSITION":0,
						"NORMAL":1,
						"TEXCOORD_0":2
					},
					"indices":3,
					"material":0
				}
			]
		}
	],
	"accessors":[
		{
			"bufferView":0,
			"componentType":5126,
			"count":955,
			"max":[
				2.588560104370117,
				-1.6465390920639038,
				-19.678897857666016
			],
			"min":[
				1.3357337713241577,
				-3.5112483501434326,
				-81.51292419433594
			],
			"type":"VEC3"
		},
		{
			"bufferView":1,
			"componentType":5126,
			"count":955,
			"type":"VEC3"
		},
		{
			"bufferView":2,
			"componentType":5126,
			"count":955,
			"type":"VEC2"
		},
		{
			"bufferView":3,
			"componentType":5123,
			"count":4512,
			"type":"SCALAR"
		}
	],
	"bufferViews":[
		{
			"buffer":0,
			"byteLength":11460,
			"byteOffset":0,
			"target":34962
		},
		{
			"buffer":0,
			"byteLength":11460,
			"byteOffset":11460,
			"target":34962
		},
		{
			"buffer":0,
			"byteLength":7640,
			"byteOffset":22920,
			"target":34962
		},
		{
			"buffer":0,
			"byteLength":9024,
			"byteOffset":30560,
			"target":34963
		}
	],
	"buffers":[
		{
			"byteLength":39584,
			"uri":"ChestPatch.bin"
		}
	]
}
