{
	"asset":{
		"generator":"Khronos glTF Blender I/O v4.5.47",
		"version":"2.0"
	},
	"scene":0,
	"scenes":[
		{
			"name":"Scene",
			"nodes":[
				0
			]
		}
	],
	"nodes":[
		{
			"mesh":0,
			"name":"Tessuto",
			"rotation":[
				0.02292459085583687,
				-0.1630253940820694,
				-0.003789016976952553,
				0.9863482117652893
			],
			"scale":[
				4.908240795135498,
				4.908240795135498,
				4.90824031829834
			]
		}
	],
	"materials":[
		{
			"name":"default.003"
		}
	],
	"meshes":[
		{
			"name":"Tessuto",
			"primitives":[
				{
					"attributes":{
						"POSITION":0,
						"NORMAL":1,
						"TEXCOORD_0":2
					},
					"indices":3,
					"material":0
				}
			]
		}
	],
	"accessors":[
		{
			"bufferView":0,
			"componentType":5126,
			"count":3692,
			"max":[
				0.22170314192771912,
				-0.12348157167434692,
				0.18166501820087433
			],
			"min":[
				-0.18865656852722168,
				-0.31438741087913513,
				-0.057985324412584305
			],
			"type":"VEC3"
		},
		{
			"bufferView":1,
			"componentType":5126,
			"count":3692,
			"type":"VEC3"
		},
		{
			"bufferView":2,
			"componentType":5126,
			"count":3692,
			"type":"VEC2"
		},
		{
			"bufferView":3,
			"componentType":5123,
			"count":20112,
			"type":"SCALAR"
		}
	],
	"bufferViews":[
		{
			"buffer":0,
			"byteLength":44304,
			"byteOffset":0,
			"target":34962
		},
		{
			"buffer":0,
			"byteLength":44304,
			"byteOffset":44304,
			"target":34962
		},
		{
			"buffer":0,
			"byteLength":29536,
			"byteOffset":88608,
			"target":34962
		},
		{
			"buffer":0,
			"byteLength":40224,
			"byteOffset":118144,
			"target":34963
		}
	],
	"buffers":[
		{
			"byteLength":158368,
			"uri":"FrontPocket.bin"
		}
	]
}
