{
	"asset":{
		"generator":"Khronos glTF Blender I/O v4.5.47",
		"version":"2.0"
	},
	"scene":0,
	"scenes":[
		{
			"name":"Scene",
			"nodes":[
				0
			]
		}
	],
	"nodes":[
		{
			"mesh":0,
			"name":"Tessuto",
			"rotation":[
				0.02292458713054657,
				-0.1630253940820694,
				-0.003789016278460622,
				0.9863482117652893
			],
			"scale":[
				4.908240795135498,
				4.908240795135498,
				4.90824031829834
			],
			"translation":[
				-0.04104451462626457,
				-0.2186175435781479,
				0
			]
		}
	],
	"materials":[
		{
			"name":"default.003"
		}
	],
	"meshes":[
		{
			"name":"Tessuto",
			"primitives":[
				{
					"attributes":{
						"POSITION":0,
						"NORMAL":1,
						"TEXCOORD_0":2
					},
					"indices":3,
					"material":0
				}
			]
		}
	],
	"accessors":[
		{
			"bufferView":0,
			"componentType":5126,
			"count":5542,
			"max":[
				0.22895492613315582,
				-0.08421304821968079,
				0.1723928600549698
			],
			"min":[
				-0.19288098812103271,
				-0.27059710025787354,
				-0.06503451615571976
			],
			"type":"VEC3"
		},
		{
			"bufferView":1,
			"componentType":5126,
			"count":5542,
			"type":"VEC3"
		},
		{
			"bufferView":2,
			"componentType":5126,
			"count":5542,
			"type":"VEC2"
		},
		{
			"bufferView":3,
			"componentType":5123,
			"count":25644,
			"type":"SCALAR"
		}
	],
	"bufferViews":[
		{
			"buffer":0,
			"byteLength":66504,
			"byteOffset":0,
			"target":34962
		},
		{
			"buffer":0,
			"byteLength":66504,
			"byteOffset":66504,
			"target":34962
		},
		{
			"buffer":0,
			"byteLength":44336,
			"byteOffset":133008,
			"target":34962
		},
		{
			"buffer":0,
			"byteLength":51288,
			"byteOffset":177344,
			"target":34963
		}
	],
	"buffers":[
		{
			"byteLength":228632,
			"uri":"FrontPocket.bin"
		}
	]
}
