{
	"asset":{
		"generator":"Khronos glTF Blender I/O v4.5.47",
		"version":"2.0"
	},
	"scene":0,
	"scenes":[
		{
			"name":"Scene",
			"nodes":[
				0
			]
		}
	],
	"nodes":[
		{
			"mesh":0,
			"name":"PK-7",
			"rotation":[
				0,
				0,
				-1,
				0
			],
			"scale":[
				-0.36263903975486755,
				-0.3885573446750641,
				-0.008913174271583557
			]
		}
	],
	"materials":[
		{
			"name":"default"
		}
	],
	"meshes":[
		{
			"name":"Cube.002",
			"primitives":[
				{
					"attributes":{
						"POSITION":0,
						"NORMAL":1,
						"TEXCOORD_0":2
					},
					"indices":3,
					"material":0
				}
			]
		}
	],
	"accessors":[
		{
			"bufferView":0,
			"componentType":5126,
			"count":1000,
			"max":[
				2.8024463653564453,
				-1.5812875032424927,
				-17.099220275878906
			],
			"min":[
				-2.8024463653564453,
				-3.4734272956848145,
				-75.07178497314453
			],
			"type":"VEC3"
		},
		{
			"bufferView":1,
			"componentType":5126,
			"count":1000,
			"type":"VEC3"
		},
		{
			"bufferView":2,
			"componentType":5126,
			"count":1000,
			"type":"VEC2"
		},
		{
			"bufferView":3,
			"componentType":5123,
			"count":5904,
			"type":"SCALAR"
		}
	],
	"bufferViews":[
		{
			"buffer":0,
			"byteLength":12000,
			"byteOffset":0,
			"target":34962
		},
		{
			"buffer":0,
			"byteLength":12000,
			"byteOffset":12000,
			"target":34962
		},
		{
			"buffer":0,
			"byteLength":8000,
			"byteOffset":24000,
			"target":34962
		},
		{
			"buffer":0,
			"byteLength":11808,
			"byteOffset":32000,
			"target":34963
		}
	],
	"buffers":[
		{
			"byteLength":43808,
			"uri":"PK-8.bin"
		}
	]
}
