{
	"asset":{
		"generator":"Khronos glTF Blender I/O v4.5.47",
		"version":"2.0"
	},
	"scene":0,
	"scenes":[
		{
			"name":"Scene",
			"nodes":[
				0
			]
		}
	],
	"nodes":[
		{
			"mesh":0,
			"name":"PK-7",
			"rotation":[
				0,
				0,
				-1,
				0
			],
			"scale":[
				-0.36263903975486755,
				-0.3885573446750641,
				-0.008913174271583557
			]
		}
	],
	"materials":[
		{
			"name":"default"
		}
	],
	"meshes":[
		{
			"name":"Cube.002",
			"primitives":[
				{
					"attributes":{
						"POSITION":0,
						"NORMAL":1,
						"TEXCOORD_0":2
					},
					"indices":3,
					"material":0
				}
			]
		}
	],
	"accessors":[
		{
			"bufferView":0,
			"componentType":5126,
			"count":5208,
			"max":[
				2.794995069503784,
				-1.5893940925598145,
				-17.300304412841797
			],
			"min":[
				-2.7949953079223633,
				-3.471358299255371,
				-75.05197143554688
			],
			"type":"VEC3"
		},
		{
			"bufferView":1,
			"componentType":5126,
			"count":5208,
			"type":"VEC3"
		},
		{
			"bufferView":2,
			"componentType":5126,
			"count":5208,
			"type":"VEC2"
		},
		{
			"bufferView":3,
			"componentType":5123,
			"count":31104,
			"type":"SCALAR"
		}
	],
	"bufferViews":[
		{
			"buffer":0,
			"byteLength":62496,
			"byteOffset":0,
			"target":34962
		},
		{
			"buffer":0,
			"byteLength":62496,
			"byteOffset":62496,
			"target":34962
		},
		{
			"buffer":0,
			"byteLength":41664,
			"byteOffset":124992,
			"target":34962
		},
		{
			"buffer":0,
			"byteLength":62208,
			"byteOffset":166656,
			"target":34963
		}
	],
	"buffers":[
		{
			"byteLength":228864,
			"uri":"PK-9.bin"
		}
	]
}
