{
	"asset":{
		"generator":"Khronos glTF Blender I/O v5.0.21",
		"version":"2.0"
	},
	"scene":0,
	"scenes":[
		{
			"name":"Scene",
			"nodes":[
				0,
				1,
				2,
				3
			]
		}
	],
	"nodes":[
		{
			"mesh":0,
			"name":"Tessuto.001"
		},
		{
			"mesh":1,
			"name":"CintellaSartoriale"
		},
		{
			"mesh":2,
			"name":"Filobottone",
			"rotation":[
				0.6939393281936646,
				0.06070652976632118,
				-0.05891452357172966,
				0.7150468826293945
			],
			"scale":[
				0.968097448348999,
				0.968097448348999,
				0.9680975079536438
			],
			"translation":[
				0.022982142865657806,
				0.467517614364624,
				0.12324117124080658
			]
		},
		{
			"mesh":3,
			"name":"Bottone",
			"rotation":[
				0.6939393281936646,
				0.06070652976632118,
				-0.05891452357172966,
				0.7150468826293945
			],
			"scale":[
				0.968097448348999,
				0.968097448348999,
				0.9680975079536438
			],
			"translation":[
				0.022982142865657806,
				0.467517614364624,
				0.12324117124080658
			]
		}
	],
	"materials":[
		{
			"name":"default.008"
		},
		{
			"name":"default.009"
		},
		{
			"name":"Filobottoni.001"
		},
		{
			"name":"Bottone.001"
		}
	],
	"meshes":[
		{
			"name":"Tessuto.005",
			"primitives":[
				{
					"attributes":{
						"POSITION":0,
						"NORMAL":1,
						"TEXCOORD_0":2
					},
					"indices":3,
					"material":0
				}
			]
		},
		{
			"name":"CintellaSartoriale.001",
			"primitives":[
				{
					"attributes":{
						"POSITION":4,
						"NORMAL":5,
						"TEXCOORD_0":6
					},
					"indices":7,
					"material":1
				}
			]
		},
		{
			"name":"Mesh_0.001",
			"primitives":[
				{
					"attributes":{
						"POSITION":8,
						"NORMAL":9,
						"TEXCOORD_0":10
					},
					"indices":11,
					"material":2
				}
			]
		},
		{
			"name":"Mesh_1.001",
			"primitives":[
				{
					"attributes":{
						"POSITION":12,
						"NORMAL":13,
						"TEXCOORD_0":14
					},
					"indices":15,
					"material":3
				}
			]
		}
	],
	"accessors":[
		{
			"bufferView":0,
			"componentType":5126,
			"count":195629,
			"max":[
				0.18314634263515472,
				0.5338016152381897,
				0.12581880390644073
			],
			"min":[
				-0.182479590177536,
				-0.49544280767440796,
				-0.13608966767787933
			],
			"type":"VEC3"
		},
		{
			"bufferView":1,
			"componentType":5126,
			"count":195629,
			"type":"VEC3"
		},
		{
			"bufferView":2,
			"componentType":5126,
			"count":195629,
			"type":"VEC2"
		},
		{
			"bufferView":3,
			"componentType":5125,
			"count":1047582,
			"type":"SCALAR"
		},
		{
			"bufferView":4,
			"componentType":5126,
			"count":1211,
			"max":[
				0.1647891253232956,
				0.5331891775131226,
				0.11933055520057678
			],
			"min":[
				-0.16260124742984772,
				0.43530791997909546,
				-0.11273756623268127
			],
			"type":"VEC3"
		},
		{
			"bufferView":5,
			"componentType":5126,
			"count":1211,
			"type":"VEC3"
		},
		{
			"bufferView":6,
			"componentType":5126,
			"count":1211,
			"type":"VEC2"
		},
		{
			"bufferView":7,
			"componentType":5123,
			"count":6192,
			"type":"SCALAR"
		},
		{
			"bufferView":8,
			"componentType":5126,
			"count":1034,
			"max":[
				0.0026178110856562853,
				0.0046294089406728745,
				0.0026178110856562853
			],
			"min":[
				-0.0026182548608630896,
				-0.0007350692176260054,
				-0.0026182548608630896
			],
			"type":"VEC3"
		},
		{
			"bufferView":9,
			"componentType":5126,
			"count":1034,
			"type":"VEC3"
		},
		{
			"bufferView":10,
			"componentType":5126,
			"count":1034,
			"type":"VEC2"
		},
		{
			"bufferView":11,
			"componentType":5123,
			"count":2088,
			"type":"SCALAR"
		},
		{
			"bufferView":12,
			"componentType":5126,
			"count":658,
			"max":[
				0.009976845234632492,
				0.004003496840596199,
				0.010026930831372738
			],
			"min":[
				-0.00997445359826088,
				0.0007517387275584042,
				-0.010022313334047794
			],
			"type":"VEC3"
		},
		{
			"bufferView":13,
			"componentType":5126,
			"count":658,
			"type":"VEC3"
		},
		{
			"bufferView":14,
			"componentType":5126,
			"count":658,
			"type":"VEC2"
		},
		{
			"bufferView":15,
			"componentType":5123,
			"count":2640,
			"type":"SCALAR"
		}
	],
	"bufferViews":[
		{
			"buffer":0,
			"byteLength":2347548,
			"byteOffset":0,
			"target":34962
		},
		{
			"buffer":0,
			"byteLength":2347548,
			"byteOffset":2347548,
			"target":34962
		},
		{
			"buffer":0,
			"byteLength":1565032,
			"byteOffset":4695096,
			"target":34962
		},
		{
			"buffer":0,
			"byteLength":4190328,
			"byteOffset":6260128,
			"target":34963
		},
		{
			"buffer":0,
			"byteLength":14532,
			"byteOffset":10450456,
			"target":34962
		},
		{
			"buffer":0,
			"byteLength":14532,
			"byteOffset":10464988,
			"target":34962
		},
		{
			"buffer":0,
			"byteLength":9688,
			"byteOffset":10479520,
			"target":34962
		},
		{
			"buffer":0,
			"byteLength":12384,
			"byteOffset":10489208,
			"target":34963
		},
		{
			"buffer":0,
			"byteLength":12408,
			"byteOffset":10501592,
			"target":34962
		},
		{
			"buffer":0,
			"byteLength":12408,
			"byteOffset":10514000,
			"target":34962
		},
		{
			"buffer":0,
			"byteLength":8272,
			"byteOffset":10526408,
			"target":34962
		},
		{
			"buffer":0,
			"byteLength":4176,
			"byteOffset":10534680,
			"target":34963
		},
		{
			"buffer":0,
			"byteLength":7896,
			"byteOffset":10538856,
			"target":34962
		},
		{
			"buffer":0,
			"byteLength":7896,
			"byteOffset":10546752,
			"target":34962
		},
		{
			"buffer":0,
			"byteLength":5264,
			"byteOffset":10554648,
			"target":34962
		},
		{
			"buffer":0,
			"byteLength":5280,
			"byteOffset":10559912,
			"target":34963
		}
	],
	"buffers":[
		{
			"byteLength":10565192,
			"uri":"Basemodel.bin"
		}
	]
}
