{
	"asset":{
		"generator":"Khronos glTF Blender I/O v5.0.21",
		"version":"2.0"
	},
	"scene":0,
	"scenes":[
		{
			"name":"Scene",
			"nodes":[
				0,
				1
			]
		}
	],
	"nodes":[
		{
			"mesh":0,
			"name":"Gemelli"
		},
		{
			"mesh":1,
			"name":"Tessuto"
		}
	],
	"materials":[
		{
			"name":"Gemelli.002"
		},
		{
			"doubleSided":true,
			"name":"Tessuto.003"
		},
		{
			"doubleSided":true,
			"name":"CuffContrastLeft",
			"pbrMetallicRoughness":{
				"metallicFactor":0,
				"roughnessFactor":0.5
			}
		},
		{
			"doubleSided":true,
			"name":"CuffContrastRight",
			"pbrMetallicRoughness":{
				"baseColorFactor":[
					0.800000011920929,
					0.800000011920929,
					0.800000011920929,
					1
				],
				"metallicFactor":0,
				"roughnessFactor":0.5
			}
		}
	],
	"meshes":[
		{
			"name":"Mesh_0.005",
			"primitives":[
				{
					"attributes":{
						"POSITION":0,
						"NORMAL":1,
						"TEXCOORD_0":2,
						"TEXCOORD_1":3
					},
					"indices":4,
					"material":0
				}
			]
		},
		{
			"name":"Mesh_3.006",
			"primitives":[
				{
					"attributes":{
						"POSITION":5,
						"NORMAL":6,
						"TEXCOORD_0":7
					},
					"indices":8,
					"material":1
				},
				{
					"attributes":{
						"POSITION":9,
						"NORMAL":10,
						"TEXCOORD_0":11
					},
					"indices":12,
					"material":2
				},
				{
					"attributes":{
						"POSITION":13,
						"NORMAL":14,
						"TEXCOORD_0":15
					},
					"indices":16,
					"material":3
				}
			]
		}
	],
	"accessors":[
		{
			"bufferView":0,
			"componentType":5126,
			"count":2732,
			"max":[
				0.3121468126773834,
				-0.26306766271591187,
				0.006465384736657143
			],
			"min":[
				-0.32031336426734924,
				-0.27851611375808716,
				-0.011763805523514748
			],
			"type":"VEC3"
		},
		{
			"bufferView":1,
			"componentType":5126,
			"count":2732,
			"type":"VEC3"
		},
		{
			"bufferView":2,
			"componentType":5126,
			"count":2732,
			"type":"VEC2"
		},
		{
			"bufferView":3,
			"componentType":5126,
			"count":2732,
			"type":"VEC2"
		},
		{
			"bufferView":4,
			"componentType":5123,
			"count":10368,
			"type":"SCALAR"
		},
		{
			"bufferView":5,
			"componentType":5126,
			"count":15925,
			"max":[
				0.32375285029411316,
				0.28878793120384216,
				0.07214853912591934
			],
			"min":[
				-0.3327438533306122,
				-0.3157534897327423,
				-0.11482634395360947
			],
			"type":"VEC3"
		},
		{
			"bufferView":6,
			"componentType":5126,
			"count":15925,
			"type":"VEC3"
		},
		{
			"bufferView":7,
			"componentType":5126,
			"count":15925,
			"type":"VEC2"
		},
		{
			"bufferView":8,
			"componentType":5123,
			"count":90663,
			"type":"SCALAR"
		},
		{
			"bufferView":9,
			"componentType":5126,
			"count":1291,
			"max":[
				-0.2496795356273651,
				-0.2246713936328888,
				0.06958284229040146
			],
			"min":[
				-0.3327438533306122,
				-0.3157534897327423,
				-0.017009295523166656
			],
			"type":"VEC3"
		},
		{
			"bufferView":10,
			"componentType":5126,
			"count":1291,
			"type":"VEC3"
		},
		{
			"bufferView":11,
			"componentType":5126,
			"count":1291,
			"type":"VEC2"
		},
		{
			"bufferView":12,
			"componentType":5123,
			"count":7329,
			"type":"SCALAR"
		},
		{
			"bufferView":13,
			"componentType":5126,
			"count":1271,
			"max":[
				0.32375285029411316,
				-0.21953999996185303,
				0.0663757249712944
			],
			"min":[
				-0.30195552110671997,
				-0.31511205434799194,
				-0.023744240403175354
			],
			"type":"VEC3"
		},
		{
			"bufferView":14,
			"componentType":5126,
			"count":1271,
			"type":"VEC3"
		},
		{
			"bufferView":15,
			"componentType":5126,
			"count":1271,
			"type":"VEC2"
		},
		{
			"bufferView":16,
			"componentType":5123,
			"count":7200,
			"type":"SCALAR"
		}
	],
	"bufferViews":[
		{
			"buffer":0,
			"byteLength":32784,
			"byteOffset":0,
			"target":34962
		},
		{
			"buffer":0,
			"byteLength":32784,
			"byteOffset":32784,
			"target":34962
		},
		{
			"buffer":0,
			"byteLength":21856,
			"byteOffset":65568,
			"target":34962
		},
		{
			"buffer":0,
			"byteLength":21856,
			"byteOffset":87424,
			"target":34962
		},
		{
			"buffer":0,
			"byteLength":20736,
			"byteOffset":109280,
			"target":34963
		},
		{
			"buffer":0,
			"byteLength":191100,
			"byteOffset":130016,
			"target":34962
		},
		{
			"buffer":0,
			"byteLength":191100,
			"byteOffset":321116,
			"target":34962
		},
		{
			"buffer":0,
			"byteLength":127400,
			"byteOffset":512216,
			"target":34962
		},
		{
			"buffer":0,
			"byteLength":181326,
			"byteOffset":639616,
			"target":34963
		},
		{
			"buffer":0,
			"byteLength":15492,
			"byteOffset":820944,
			"target":34962
		},
		{
			"buffer":0,
			"byteLength":15492,
			"byteOffset":836436,
			"target":34962
		},
		{
			"buffer":0,
			"byteLength":10328,
			"byteOffset":851928,
			"target":34962
		},
		{
			"buffer":0,
			"byteLength":14658,
			"byteOffset":862256,
			"target":34963
		},
		{
			"buffer":0,
			"byteLength":15252,
			"byteOffset":876916,
			"target":34962
		},
		{
			"buffer":0,
			"byteLength":15252,
			"byteOffset":892168,
			"target":34962
		},
		{
			"buffer":0,
			"byteLength":10168,
			"byteOffset":907420,
			"target":34962
		},
		{
			"buffer":0,
			"byteLength":14400,
			"byteOffset":917588,
			"target":34963
		}
	],
	"buffers":[
		{
			"byteLength":931988,
			"uri":"frenchcuff.bin"
		}
	]
}
