{
	"asset":{
		"generator":"Khronos glTF Blender I/O v5.0.21",
		"version":"2.0"
	},
	"scene":0,
	"scenes":[
		{
			"name":"Scene",
			"nodes":[
				0,
				1,
				2
			]
		}
	],
	"nodes":[
		{
			"mesh":0,
			"name":"Tessuto"
		},
		{
			"mesh":1,
			"name":"Bottoni"
		},
		{
			"mesh":2,
			"name":"Filobottoni"
		}
	],
	"materials":[
		{
			"doubleSided":true,
			"name":"Tessuto.004"
		},
		{
			"doubleSided":true,
			"name":"CuffContrastLeft.001",
			"pbrMetallicRoughness":{
				"baseColorFactor":[
					0.800000011920929,
					0.800000011920929,
					0.800000011920929,
					1
				],
				"metallicFactor":0,
				"roughnessFactor":0.5
			}
		},
		{
			"doubleSided":true,
			"name":"CuffContrastRight.001",
			"pbrMetallicRoughness":{
				"baseColorFactor":[
					0.800000011920929,
					0.800000011920929,
					0.800000011920929,
					1
				],
				"metallicFactor":0,
				"roughnessFactor":0.5
			}
		},
		{
			"name":"Bottone.004"
		},
		{
			"name":"FIlobottoni.004"
		}
	],
	"meshes":[
		{
			"name":"Mesh_0.006",
			"primitives":[
				{
					"attributes":{
						"POSITION":0,
						"NORMAL":1,
						"TEXCOORD_0":2
					},
					"indices":3,
					"material":0
				},
				{
					"attributes":{
						"POSITION":4,
						"NORMAL":5,
						"TEXCOORD_0":6
					},
					"indices":7,
					"material":1
				},
				{
					"attributes":{
						"POSITION":8,
						"NORMAL":9,
						"TEXCOORD_0":10
					},
					"indices":11,
					"material":2
				}
			]
		},
		{
			"name":"Mesh_3.007",
			"primitives":[
				{
					"attributes":{
						"POSITION":12,
						"NORMAL":13,
						"TEXCOORD_0":14
					},
					"indices":15,
					"material":3
				}
			]
		},
		{
			"name":"Mesh_5.002",
			"primitives":[
				{
					"attributes":{
						"POSITION":16,
						"NORMAL":17,
						"TEXCOORD_0":18
					},
					"indices":19,
					"material":4
				}
			]
		}
	],
	"accessors":[
		{
			"bufferView":0,
			"componentType":5126,
			"count":10668,
			"max":[
				0.32006511092185974,
				0.2889157831668854,
				0.06813754886388779
			],
			"min":[
				-0.32741692662239075,
				-0.3168136179447174,
				-0.11026004701852798
			],
			"type":"VEC3"
		},
		{
			"bufferView":1,
			"componentType":5126,
			"count":10668,
			"type":"VEC3"
		},
		{
			"bufferView":2,
			"componentType":5126,
			"count":10668,
			"type":"VEC2"
		},
		{
			"bufferView":3,
			"componentType":5123,
			"count":59028,
			"type":"SCALAR"
		},
		{
			"bufferView":4,
			"componentType":5126,
			"count":1234,
			"max":[
				-0.249921515583992,
				-0.2247680425643921,
				0.06718862801790237
			],
			"min":[
				-0.3210907578468323,
				-0.3161810040473938,
				-0.017581865191459656
			],
			"type":"VEC3"
		},
		{
			"bufferView":5,
			"componentType":5126,
			"count":1234,
			"type":"VEC3"
		},
		{
			"bufferView":6,
			"componentType":5126,
			"count":1234,
			"type":"VEC2"
		},
		{
			"bufferView":7,
			"componentType":5123,
			"count":6993,
			"type":"SCALAR"
		},
		{
			"bufferView":8,
			"componentType":5126,
			"count":1232,
			"max":[
				0.31247374415397644,
				-0.22413542866706848,
				0.06592340022325516
			],
			"min":[
				0.2428860366344452,
				-0.3152320683002472,
				-0.01789817214012146
			],
			"type":"VEC3"
		},
		{
			"bufferView":9,
			"componentType":5126,
			"count":1232,
			"type":"VEC3"
		},
		{
			"bufferView":10,
			"componentType":5126,
			"count":1232,
			"type":"VEC2"
		},
		{
			"bufferView":11,
			"componentType":5123,
			"count":7017,
			"type":"SCALAR"
		},
		{
			"bufferView":12,
			"componentType":5126,
			"count":6034,
			"max":[
				0.3084595799446106,
				-0.18032488226890564,
				0.008351143449544907
			],
			"min":[
				-0.31607192754745483,
				-0.2811402678489685,
				-0.033447008579969406
			],
			"type":"VEC3"
		},
		{
			"bufferView":13,
			"componentType":5126,
			"count":6034,
			"type":"VEC3"
		},
		{
			"bufferView":14,
			"componentType":5126,
			"count":6034,
			"type":"VEC2"
		},
		{
			"bufferView":15,
			"componentType":5123,
			"count":22428,
			"type":"SCALAR"
		},
		{
			"bufferView":16,
			"componentType":5126,
			"count":10790,
			"max":[
				0.3067901134490967,
				-0.18341310322284698,
				0.003915285691618919
			],
			"min":[
				-0.3144024610519409,
				-0.27677884697914124,
				-0.03067970834672451
			],
			"type":"VEC3"
		},
		{
			"bufferView":17,
			"componentType":5126,
			"count":10790,
			"type":"VEC3"
		},
		{
			"bufferView":18,
			"componentType":5126,
			"count":10790,
			"type":"VEC2"
		},
		{
			"bufferView":19,
			"componentType":5123,
			"count":31104,
			"type":"SCALAR"
		}
	],
	"bufferViews":[
		{
			"buffer":0,
			"byteLength":128016,
			"byteOffset":0,
			"target":34962
		},
		{
			"buffer":0,
			"byteLength":128016,
			"byteOffset":128016,
			"target":34962
		},
		{
			"buffer":0,
			"byteLength":85344,
			"byteOffset":256032,
			"target":34962
		},
		{
			"buffer":0,
			"byteLength":118056,
			"byteOffset":341376,
			"target":34963
		},
		{
			"buffer":0,
			"byteLength":14808,
			"byteOffset":459432,
			"target":34962
		},
		{
			"buffer":0,
			"byteLength":14808,
			"byteOffset":474240,
			"target":34962
		},
		{
			"buffer":0,
			"byteLength":9872,
			"byteOffset":489048,
			"target":34962
		},
		{
			"buffer":0,
			"byteLength":13986,
			"byteOffset":498920,
			"target":34963
		},
		{
			"buffer":0,
			"byteLength":14784,
			"byteOffset":512908,
			"target":34962
		},
		{
			"buffer":0,
			"byteLength":14784,
			"byteOffset":527692,
			"target":34962
		},
		{
			"buffer":0,
			"byteLength":9856,
			"byteOffset":542476,
			"target":34962
		},
		{
			"buffer":0,
			"byteLength":14034,
			"byteOffset":552332,
			"target":34963
		},
		{
			"buffer":0,
			"byteLength":72408,
			"byteOffset":566368,
			"target":34962
		},
		{
			"buffer":0,
			"byteLength":72408,
			"byteOffset":638776,
			"target":34962
		},
		{
			"buffer":0,
			"byteLength":48272,
			"byteOffset":711184,
			"target":34962
		},
		{
			"buffer":0,
			"byteLength":44856,
			"byteOffset":759456,
			"target":34963
		},
		{
			"buffer":0,
			"byteLength":129480,
			"byteOffset":804312,
			"target":34962
		},
		{
			"buffer":0,
			"byteLength":129480,
			"byteOffset":933792,
			"target":34962
		},
		{
			"buffer":0,
			"byteLength":86320,
			"byteOffset":1063272,
			"target":34962
		},
		{
			"buffer":0,
			"byteLength":62208,
			"byteOffset":1149592,
			"target":34963
		}
	],
	"buffers":[
		{
			"byteLength":1211800,
			"uri":"roundedcuff.bin"
		}
	]
}
