{
	"asset":{
		"generator":"Khronos glTF Blender I/O v4.5.47",
		"version":"2.0"
	},
	"extensionsUsed":[
		"KHR_materials_specular"
	],
	"scene":0,
	"scenes":[
		{
			"name":"Scene",
			"nodes":[
				0,
				1,
				2
			]
		}
	],
	"nodes":[
		{
			"mesh":0,
			"name":"Single Opening Both",
			"scale":[
				1,
				0.699482798576355,
				1
			],
			"translation":[
				0,
				1.0230004787445068,
				-0.4662558436393738
			]
		},
		{
			"mesh":1,
			"name":"Handle_metal_4_Material #25_0",
			"rotation":[
				-0.8691974878311157,
				0.043478939682245255,
				-0.054779987782239914,
				0.48949408531188965
			],
			"scale":[
				0.002723842626437545,
				0.0027238428592681885,
				0.002723843092098832
			],
			"translation":[
				0.2290114313364029,
				0.9967530965805054,
				-0.6140576601028442
			]
		},
		{
			"mesh":2,
			"name":"Handle_metal_4_Material #25_0.001",
			"rotation":[
				-0.8691974878311157,
				0.043478939682245255,
				-0.054779987782239914,
				0.48949408531188965
			],
			"scale":[
				0.002723842626437545,
				0.0027238428592681885,
				0.002723843092098832
			],
			"translation":[
				-0.22917993366718292,
				0.9968960285186768,
				-0.6140576601028442
			]
		}
	],
	"materials":[
		{
			"name":"default.008"
		},
		{
			"doubleSided":true,
			"extensions":{
				"KHR_materials_specular":{
					"specularFactor":0.5165730118751526
				}
			},
			"name":"Material_25",
			"normalTexture":{
				"index":0
			},
			"pbrMetallicRoughness":{
				"baseColorTexture":{
					"index":1
				},
				"metallicRoughnessTexture":{
					"index":2
				}
			}
		}
	],
	"meshes":[
		{
			"name":"Plane.003",
			"primitives":[
				{
					"attributes":{
						"POSITION":0,
						"NORMAL":1,
						"TEXCOORD_0":2
					},
					"indices":3,
					"material":0
				}
			]
		},
		{
			"name":"Handle_metal_4_Material #25_0",
			"primitives":[
				{
					"attributes":{
						"POSITION":4,
						"NORMAL":5,
						"TEXCOORD_0":6
					},
					"indices":7,
					"material":1
				}
			]
		},
		{
			"name":"Handle_metal_4_Material #25_0.001",
			"primitives":[
				{
					"attributes":{
						"POSITION":8,
						"NORMAL":9,
						"TEXCOORD_0":10
					},
					"indices":7,
					"material":1
				}
			]
		}
	],
	"textures":[
		{
			"sampler":0,
			"source":0
		},
		{
			"sampler":0,
			"source":1
		},
		{
			"sampler":0,
			"source":2
		}
	],
	"images":[
		{
			"mimeType":"image/png",
			"name":"Material_25_normal",
			"uri":"Material_25_normal.png"
		},
		{
			"mimeType":"image/png",
			"name":"Material_25_baseColor",
			"uri":"Material_25_baseColor.png"
		},
		{
			"mimeType":"image/png",
			"name":"Material_25_metallicRoughness",
			"uri":"Material_25_metallicRoughness.png"
		}
	],
	"accessors":[
		{
			"bufferView":0,
			"componentType":5126,
			"count":6812,
			"max":[
				0.7431593537330627,
				0.03269374370574951,
				0.1742382049560547
			],
			"min":[
				-0.7431592345237732,
				-0.03610384464263916,
				-0.12845557928085327
			],
			"type":"VEC3"
		},
		{
			"bufferView":1,
			"componentType":5126,
			"count":6812,
			"type":"VEC3"
		},
		{
			"bufferView":2,
			"componentType":5126,
			"count":6812,
			"type":"VEC2"
		},
		{
			"bufferView":3,
			"componentType":5123,
			"count":29568,
			"type":"SCALAR"
		},
		{
			"bufferView":4,
			"componentType":5126,
			"count":996,
			"max":[
				5.029788970947266,
				5.684909820556641,
				0.9971405267715454
			],
			"min":[
				-5.029788970947266,
				-20.869827270507812,
				-0.4171387255191803
			],
			"type":"VEC3"
		},
		{
			"bufferView":5,
			"componentType":5126,
			"count":996,
			"type":"VEC3"
		},
		{
			"bufferView":6,
			"componentType":5126,
			"count":996,
			"type":"VEC2"
		},
		{
			"bufferView":7,
			"componentType":5123,
			"count":5340,
			"type":"SCALAR"
		},
		{
			"bufferView":8,
			"componentType":5126,
			"count":996,
			"max":[
				5.029788970947266,
				5.684909820556641,
				0.9971405267715454
			],
			"min":[
				-5.029788970947266,
				-20.869827270507812,
				-0.4171387255191803
			],
			"type":"VEC3"
		},
		{
			"bufferView":9,
			"componentType":5126,
			"count":996,
			"type":"VEC3"
		},
		{
			"bufferView":10,
			"componentType":5126,
			"count":996,
			"type":"VEC2"
		}
	],
	"bufferViews":[
		{
			"buffer":0,
			"byteLength":81744,
			"byteOffset":0,
			"target":34962
		},
		{
			"buffer":0,
			"byteLength":81744,
			"byteOffset":81744,
			"target":34962
		},
		{
			"buffer":0,
			"byteLength":54496,
			"byteOffset":163488,
			"target":34962
		},
		{
			"buffer":0,
			"byteLength":59136,
			"byteOffset":217984,
			"target":34963
		},
		{
			"buffer":0,
			"byteLength":11952,
			"byteOffset":277120,
			"target":34962
		},
		{
			"buffer":0,
			"byteLength":11952,
			"byteOffset":289072,
			"target":34962
		},
		{
			"buffer":0,
			"byteLength":7968,
			"byteOffset":301024,
			"target":34962
		},
		{
			"buffer":0,
			"byteLength":10680,
			"byteOffset":308992,
			"target":34963
		},
		{
			"buffer":0,
			"byteLength":11952,
			"byteOffset":319672,
			"target":34962
		},
		{
			"buffer":0,
			"byteLength":11952,
			"byteOffset":331624,
			"target":34962
		},
		{
			"buffer":0,
			"byteLength":7968,
			"byteOffset":343576,
			"target":34962
		}
	],
	"samplers":[
		{
			"magFilter":9729,
			"minFilter":9987
		}
	],
	"buffers":[
		{
			"byteLength":351544,
			"uri":"Normal.bin"
		}
	]
}
