{
	"asset":{
		"generator":"Khronos glTF Blender I/O v4.5.47",
		"version":"2.0"
	},
	"scene":0,
	"scenes":[
		{
			"name":"Scene",
			"nodes":[
				0,
				1
			]
		}
	],
	"nodes":[
		{
			"mesh":0,
			"name":"last standard.001",
			"rotation":[
				-0.7071069478988647,
				0,
				0,
				0.7071066498756409
			],
			"scale":[
				0.0450492687523365,
				0.0450492724776268,
				0.0450492724776268
			],
			"translation":[
				0,
				0.27437448501586914,
				0
			]
		},
		{
			"mesh":1,
			"name":"1 Thread.003",
			"rotation":[
				-0.7071069478988647,
				0,
				0,
				0.7071066498756409
			],
			"scale":[
				0.0450492687523365,
				0.0450492724776268,
				0.0450492724776268
			],
			"translation":[
				0,
				0.27437448501586914,
				0
			]
		}
	],
	"materials":[
		{
			"name":"default.001"
		},
		{
			"name":"default.002"
		}
	],
	"meshes":[
		{
			"name":"Thread_Circle.020",
			"primitives":[
				{
					"attributes":{
						"POSITION":0,
						"NORMAL":1,
						"TEXCOORD_0":2
					},
					"indices":3,
					"material":0
				}
			]
		},
		{
			"name":"Thread_Circle.021",
			"primitives":[
				{
					"attributes":{
						"POSITION":4,
						"NORMAL":5,
						"TEXCOORD_0":6
					},
					"indices":7,
					"material":1
				}
			]
		}
	],
	"accessors":[
		{
			"bufferView":0,
			"componentType":5126,
			"count":520,
			"max":[
				29.76959991455078,
				2.851327896118164,
				-48.33313751220703
			],
			"min":[
				-29.76959991455078,
				2.453159809112549,
				-48.766822814941406
			],
			"type":"VEC3"
		},
		{
			"bufferView":1,
			"componentType":5126,
			"count":520,
			"type":"VEC3"
		},
		{
			"bufferView":2,
			"componentType":5126,
			"count":520,
			"type":"VEC2"
		},
		{
			"bufferView":3,
			"componentType":5123,
			"count":2592,
			"type":"SCALAR"
		},
		{
			"bufferView":4,
			"componentType":5126,
			"count":1560,
			"max":[
				29.739408493041992,
				4.032838821411133,
				-43.20488357543945
			],
			"min":[
				-29.739408493041992,
				2.8469786643981934,
				-47.0584602355957
			],
			"type":"VEC3"
		},
		{
			"bufferView":5,
			"componentType":5126,
			"count":1560,
			"type":"VEC3"
		},
		{
			"bufferView":6,
			"componentType":5126,
			"count":1560,
			"type":"VEC2"
		},
		{
			"bufferView":7,
			"componentType":5123,
			"count":7776,
			"type":"SCALAR"
		}
	],
	"bufferViews":[
		{
			"buffer":0,
			"byteLength":6240,
			"byteOffset":0,
			"target":34962
		},
		{
			"buffer":0,
			"byteLength":6240,
			"byteOffset":6240,
			"target":34962
		},
		{
			"buffer":0,
			"byteLength":4160,
			"byteOffset":12480,
			"target":34962
		},
		{
			"buffer":0,
			"byteLength":5184,
			"byteOffset":16640,
			"target":34963
		},
		{
			"buffer":0,
			"byteLength":18720,
			"byteOffset":21824,
			"target":34962
		},
		{
			"buffer":0,
			"byteLength":18720,
			"byteOffset":40544,
			"target":34962
		},
		{
			"buffer":0,
			"byteLength":12480,
			"byteOffset":59264,
			"target":34962
		},
		{
			"buffer":0,
			"byteLength":15552,
			"byteOffset":71744,
			"target":34963
		}
	],
	"buffers":[
		{
			"byteLength":87296,
			"uri":"Nothread.bin"
		}
	]
}
