{
	"asset":{
		"generator":"Khronos glTF Blender I/O v4.5.47",
		"version":"2.0"
	},
	"scene":0,
	"scenes":[
		{
			"name":"Scene",
			"nodes":[
				0
			]
		}
	],
	"nodes":[
		{
			"mesh":0,
			"name":"Cube",
			"scale":[
				0.0032773339189589024,
				0.0032773339189589024,
				0.0032773339189589024
			],
			"translation":[
				0.03190547972917557,
				0.23010306060314178,
				-0.0025611883029341698
			]
		}
	],
	"meshes":[
		{
			"name":"Cube.002",
			"primitives":[
				{
					"attributes":{
						"POSITION":0,
						"NORMAL":1,
						"TEXCOORD_0":2
					},
					"indices":3
				}
			]
		}
	],
	"accessors":[
		{
			"bufferView":0,
			"componentType":5126,
			"count":976,
			"max":[
				45.3782844543457,
				71.74459075927734,
				32.6391716003418
			],
			"min":[
				-65.02755737304688,
				51.250633239746094,
				-0.8130285143852234
			],
			"type":"VEC3"
		},
		{
			"bufferView":1,
			"componentType":5126,
			"count":976,
			"type":"VEC3"
		},
		{
			"bufferView":2,
			"componentType":5126,
			"count":976,
			"type":"VEC2"
		},
		{
			"bufferView":3,
			"componentType":5123,
			"count":1440,
			"type":"SCALAR"
		}
	],
	"bufferViews":[
		{
			"buffer":0,
			"byteLength":11712,
			"byteOffset":0,
			"target":34962
		},
		{
			"buffer":0,
			"byteLength":11712,
			"byteOffset":11712,
			"target":34962
		},
		{
			"buffer":0,
			"byteLength":7808,
			"byteOffset":23424,
			"target":34962
		},
		{
			"buffer":0,
			"byteLength":2880,
			"byteOffset":31232,
			"target":34963
		}
	],
	"buffers":[
		{
			"byteLength":34112,
			"uri":"Jeans.bin"
		}
	]
}
