{
	"asset":{
		"generator":"Khronos glTF Blender I/O v5.0.21",
		"version":"2.0"
	},
	"scene":0,
	"scenes":[
		{
			"name":"Scene",
			"nodes":[
				0
			]
		}
	],
	"nodes":[
		{
			"mesh":0,
			"name":"Slanted",
			"scale":[
				0.149152472615242,
				0.149152472615242,
				0.149152472615242
			],
			"translation":[
				-0.00021239988564047962,
				0.28141236305236816,
				-0.0017479024827480316
			]
		}
	],
	"materials":[
		{
			"name":"default.013"
		}
	],
	"meshes":[
		{
			"name":"Plane.001",
			"primitives":[
				{
					"attributes":{
						"POSITION":0,
						"NORMAL":1,
						"TEXCOORD_0":2
					},
					"indices":3,
					"material":0
				}
			]
		}
	],
	"accessors":[
		{
			"bufferView":0,
			"componentType":5126,
			"count":568,
			"max":[
				1.2572500705718994,
				1.284428358078003,
				0.4963013827800751
			],
			"min":[
				-1.2264626026153564,
				0.25116825103759766,
				0.01776912808418274
			],
			"type":"VEC3"
		},
		{
			"bufferView":1,
			"componentType":5126,
			"count":568,
			"type":"VEC3"
		},
		{
			"bufferView":2,
			"componentType":5126,
			"count":568,
			"type":"VEC2"
		},
		{
			"bufferView":3,
			"componentType":5123,
			"count":2580,
			"type":"SCALAR"
		}
	],
	"bufferViews":[
		{
			"buffer":0,
			"byteLength":6816,
			"byteOffset":0,
			"target":34962
		},
		{
			"buffer":0,
			"byteLength":6816,
			"byteOffset":6816,
			"target":34962
		},
		{
			"buffer":0,
			"byteLength":4544,
			"byteOffset":13632,
			"target":34962
		},
		{
			"buffer":0,
			"byteLength":5160,
			"byteOffset":18176,
			"target":34963
		}
	],
	"buffers":[
		{
			"byteLength":23336,
			"uri":"Slanted.bin"
		}
	]
}
