{
	"asset":{
		"generator":"Khronos glTF Blender I/O v4.5.47",
		"version":"2.0"
	},
	"scene":0,
	"scenes":[
		{
			"name":"Scene",
			"nodes":[
				0
			]
		}
	],
	"nodes":[
		{
			"mesh":0,
			"name":"Straight Welt",
			"scale":[
				0.049771856516599655,
				0.06468596309423447,
				0.06468596309423447
			],
			"translation":[
				0.00421797065064311,
				0.23944126069545746,
				-0.00547065120190382
			]
		}
	],
	"materials":[
		{
			"name":"default.014"
		}
	],
	"meshes":[
		{
			"name":"Cube.003",
			"primitives":[
				{
					"attributes":{
						"POSITION":0,
						"NORMAL":1,
						"TEXCOORD_0":2
					},
					"indices":3,
					"material":0
				}
			]
		}
	],
	"accessors":[
		{
			"bufferView":0,
			"componentType":5126,
			"count":848,
			"max":[
				3.5747029781341553,
				3.428691864013672,
				0.7532806396484375
			],
			"min":[
				-3.7433431148529053,
				1.5656282901763916,
				0.3300226330757141
			],
			"type":"VEC3"
		},
		{
			"bufferView":1,
			"componentType":5126,
			"count":848,
			"type":"VEC3"
		},
		{
			"bufferView":2,
			"componentType":5126,
			"count":848,
			"type":"VEC2"
		},
		{
			"bufferView":3,
			"componentType":5123,
			"count":4656,
			"type":"SCALAR"
		}
	],
	"bufferViews":[
		{
			"buffer":0,
			"byteLength":10176,
			"byteOffset":0,
			"target":34962
		},
		{
			"buffer":0,
			"byteLength":10176,
			"byteOffset":10176,
			"target":34962
		},
		{
			"buffer":0,
			"byteLength":6784,
			"byteOffset":20352,
			"target":34962
		},
		{
			"buffer":0,
			"byteLength":9312,
			"byteOffset":27136,
			"target":34963
		}
	],
	"buffers":[
		{
			"byteLength":36448,
			"uri":"StraightWelt.bin"
		}
	]
}
