{
	"asset":{
		"generator":"Khronos glTF Blender I/O v4.5.47",
		"version":"2.0"
	},
	"scene":0,
	"scenes":[
		{
			"name":"Scene",
			"nodes":[
				0,
				1
			]
		}
	],
	"nodes":[
		{
			"mesh":0,
			"name":"LiningCurved",
			"rotation":[
				0.70710688829422,
				0,
				0,
				0.7071066498756409
			]
		},
		{
			"mesh":1,
			"name":"LiningCurved.001",
			"rotation":[
				0.70710688829422,
				0,
				0,
				0.7071066498756409
			]
		}
	],
	"materials":[
		{
			"doubleSided":true,
			"name":"Material.002",
			"pbrMetallicRoughness":{
				"metallicFactor":0.15000000596046448,
				"roughnessFactor":0.49000000953674316
			}
		}
	],
	"meshes":[
		{
			"name":"Plane.042",
			"primitives":[
				{
					"attributes":{
						"POSITION":0,
						"NORMAL":1,
						"TEXCOORD_0":2,
						"COLOR_0":3
					},
					"indices":4,
					"material":0
				}
			]
		},
		{
			"name":"Plane.001",
			"primitives":[
				{
					"attributes":{
						"POSITION":5,
						"NORMAL":6,
						"TEXCOORD_0":7,
						"COLOR_0":8
					},
					"indices":9,
					"material":0
				}
			]
		}
	],
	"accessors":[
		{
			"bufferView":0,
			"componentType":5126,
			"count":4611,
			"max":[
				1.2322611808776855,
				0.8312106132507324,
				2.128133773803711
			],
			"min":[
				-1.213815689086914,
				-0.8605963587760925,
				-2.069835662841797
			],
			"type":"VEC3"
		},
		{
			"bufferView":1,
			"componentType":5126,
			"count":4611,
			"type":"VEC3"
		},
		{
			"bufferView":2,
			"componentType":5126,
			"count":4611,
			"type":"VEC2"
		},
		{
			"bufferView":3,
			"componentType":5126,
			"count":4611,
			"type":"VEC3"
		},
		{
			"bufferView":4,
			"componentType":5123,
			"count":25371,
			"type":"SCALAR"
		},
		{
			"bufferView":5,
			"componentType":5126,
			"count":1974,
			"max":[
				0.8816137313842773,
				-0.21919459104537964,
				2.100461006164551
			],
			"min":[
				-0.9690542221069336,
				-0.8726390600204468,
				-0.09329581260681152
			],
			"type":"VEC3"
		},
		{
			"bufferView":6,
			"componentType":5126,
			"count":1974,
			"type":"VEC3"
		},
		{
			"bufferView":7,
			"componentType":5126,
			"count":1974,
			"type":"VEC2"
		},
		{
			"bufferView":8,
			"componentType":5126,
			"count":1974,
			"type":"VEC3"
		},
		{
			"bufferView":9,
			"componentType":5123,
			"count":10677,
			"type":"SCALAR"
		}
	],
	"bufferViews":[
		{
			"buffer":0,
			"byteLength":55332,
			"byteOffset":0,
			"target":34962
		},
		{
			"buffer":0,
			"byteLength":55332,
			"byteOffset":55332,
			"target":34962
		},
		{
			"buffer":0,
			"byteLength":36888,
			"byteOffset":110664,
			"target":34962
		},
		{
			"buffer":0,
			"byteLength":55332,
			"byteOffset":147552,
			"target":34962
		},
		{
			"buffer":0,
			"byteLength":50742,
			"byteOffset":202884,
			"target":34963
		},
		{
			"buffer":0,
			"byteLength":23688,
			"byteOffset":253628,
			"target":34962
		},
		{
			"buffer":0,
			"byteLength":23688,
			"byteOffset":277316,
			"target":34962
		},
		{
			"buffer":0,
			"byteLength":15792,
			"byteOffset":301004,
			"target":34962
		},
		{
			"buffer":0,
			"byteLength":23688,
			"byteOffset":316796,
			"target":34962
		},
		{
			"buffer":0,
			"byteLength":21354,
			"byteOffset":340484,
			"target":34963
		}
	],
	"buffers":[
		{
			"byteLength":361840,
			"uri":"Curved1.bin"
		}
	]
}
