{
	"asset":{
		"generator":"Khronos glTF Blender I/O v5.1.20",
		"version":"2.0"
	},
	"scene":0,
	"scenes":[
		{
			"name":"Scene",
			"nodes":[
				0
			]
		}
	],
	"nodes":[
		{
			"mesh":0,
			"name":"pocket_triangle",
			"rotation":[
				0.70710688829422,
				0,
				0,
				0.7071066498756409
			],
			"scale":[
				0.009999999776482582,
				0.010000000707805157,
				0.010000000707805157
			],
			"translation":[
				0.08344845473766327,
				0.23797966539859772,
				0.11307445913553238
			]
		}
	],
	"materials":[
		{
			"doubleSided":true,
			"name":"pocket_Mat",
			"pbrMetallicRoughness":{
				"baseColorFactor":[
					0.9944928884506226,
					0.9061058759689331,
					1,
					1
				],
				"metallicFactor":0,
				"roughnessFactor":0.5
			}
		}
	],
	"meshes":[
		{
			"name":"Mesh.115",
			"primitives":[
				{
					"attributes":{
						"POSITION":0,
						"NORMAL":1,
						"TEXCOORD_0":2
					},
					"indices":3,
					"material":0
				}
			]
		}
	],
	"accessors":[
		{
			"bufferView":0,
			"componentType":5126,
			"count":635,
			"max":[
				4.169465065002441,
				2.3398168087005615,
				4.921546936035156
			],
			"min":[
				-4.1147541999816895,
				-1.7109997272491455,
				-4.918846130371094
			],
			"type":"VEC3"
		},
		{
			"bufferView":1,
			"componentType":5126,
			"count":635,
			"type":"VEC3"
		},
		{
			"bufferView":2,
			"componentType":5126,
			"count":635,
			"type":"VEC2"
		},
		{
			"bufferView":3,
			"componentType":5123,
			"count":2916,
			"type":"SCALAR"
		}
	],
	"bufferViews":[
		{
			"buffer":0,
			"byteLength":7620,
			"byteOffset":0,
			"target":34962
		},
		{
			"buffer":0,
			"byteLength":7620,
			"byteOffset":7620,
			"target":34962
		},
		{
			"buffer":0,
			"byteLength":5080,
			"byteOffset":15240,
			"target":34962
		},
		{
			"buffer":0,
			"byteLength":5832,
			"byteOffset":20320,
			"target":34963
		}
	],
	"buffers":[
		{
			"byteLength":26152,
			"uri":"Front.bin"
		}
	]
}
