{
	"asset":{
		"generator":"Khronos glTF Blender I/O v5.0.21",
		"version":"2.0"
	},
	"scene":0,
	"scenes":[
		{
			"name":"Scene",
			"nodes":[
				0
			]
		}
	],
	"nodes":[
		{
			"mesh":0,
			"name":"Tessuto.003"
		}
	],
	"materials":[
		{
			"name":"default.022"
		}
	],
	"meshes":[
		{
			"name":"Tessuto.017",
			"primitives":[
				{
					"attributes":{
						"POSITION":0,
						"NORMAL":1,
						"TEXCOORD_0":2
					},
					"indices":3,
					"material":0
				}
			]
		}
	],
	"accessors":[
		{
			"bufferView":0,
			"componentType":5126,
			"count":25587,
			"max":[
				0.18410031497478485,
				0.47889405488967896,
				0.13145190477371216
			],
			"min":[
				-0.18286767601966858,
				-0.4937220811843872,
				-0.03912416845560074
			],
			"type":"VEC3"
		},
		{
			"bufferView":1,
			"componentType":5126,
			"count":25587,
			"type":"VEC3"
		},
		{
			"bufferView":2,
			"componentType":5126,
			"count":25587,
			"type":"VEC2"
		},
		{
			"bufferView":3,
			"componentType":5123,
			"count":121917,
			"type":"SCALAR"
		}
	],
	"bufferViews":[
		{
			"buffer":0,
			"byteLength":307044,
			"byteOffset":0,
			"target":34962
		},
		{
			"buffer":0,
			"byteLength":307044,
			"byteOffset":307044,
			"target":34962
		},
		{
			"buffer":0,
			"byteLength":204696,
			"byteOffset":614088,
			"target":34962
		},
		{
			"buffer":0,
			"byteLength":243834,
			"byteOffset":818784,
			"target":34963
		}
	],
	"buffers":[
		{
			"byteLength":1062620,
			"uri":"1Pleats.bin"
		}
	]
}
