{
	"asset":{
		"generator":"Khronos glTF Blender I/O v5.0.21",
		"version":"2.0"
	},
	"scene":0,
	"scenes":[
		{
			"name":"Scene",
			"nodes":[
				0
			]
		}
	],
	"nodes":[
		{
			"mesh":0,
			"name":"Tessuto"
		}
	],
	"materials":[
		{
			"name":"default.003"
		}
	],
	"meshes":[
		{
			"name":"Tessuto.003",
			"primitives":[
				{
					"attributes":{
						"POSITION":0,
						"NORMAL":1,
						"TEXCOORD_0":2
					},
					"indices":3,
					"material":0
				}
			]
		}
	],
	"accessors":[
		{
			"bufferView":0,
			"componentType":5126,
			"count":25015,
			"max":[
				0.1835358589887619,
				0.4795663356781006,
				0.1319514662027359
			],
			"min":[
				-0.1830563247203827,
				-0.49389538168907166,
				-0.039130210876464844
			],
			"type":"VEC3"
		},
		{
			"bufferView":1,
			"componentType":5126,
			"count":25015,
			"type":"VEC3"
		},
		{
			"bufferView":2,
			"componentType":5126,
			"count":25015,
			"type":"VEC2"
		},
		{
			"bufferView":3,
			"componentType":5123,
			"count":119106,
			"type":"SCALAR"
		}
	],
	"bufferViews":[
		{
			"buffer":0,
			"byteLength":300180,
			"byteOffset":0,
			"target":34962
		},
		{
			"buffer":0,
			"byteLength":300180,
			"byteOffset":300180,
			"target":34962
		},
		{
			"buffer":0,
			"byteLength":200120,
			"byteOffset":600360,
			"target":34962
		},
		{
			"buffer":0,
			"byteLength":238212,
			"byteOffset":800480,
			"target":34963
		}
	],
	"buffers":[
		{
			"byteLength":1038692,
			"uri":"2Pleats.bin"
		}
	]
}
