{
	"asset":{
		"generator":"Khronos glTF Blender I/O v5.0.21",
		"version":"2.0"
	},
	"scene":0,
	"scenes":[
		{
			"name":"Scene",
			"nodes":[
				0
			]
		}
	],
	"nodes":[
		{
			"mesh":0,
			"name":"Tessuto"
		}
	],
	"materials":[
		{
			"name":"default.003"
		}
	],
	"meshes":[
		{
			"name":"Tessuto.003",
			"primitives":[
				{
					"attributes":{
						"POSITION":0,
						"NORMAL":1,
						"TEXCOORD_0":2
					},
					"indices":3,
					"material":0
				}
			]
		}
	],
	"accessors":[
		{
			"bufferView":0,
			"componentType":5126,
			"count":111564,
			"max":[
				0.18575789034366608,
				0.4792782664299011,
				0.13065189123153687
			],
			"min":[
				-0.18353769183158875,
				-0.4930604100227356,
				-0.0391242578625679
			],
			"type":"VEC3"
		},
		{
			"bufferView":1,
			"componentType":5126,
			"count":111564,
			"type":"VEC3"
		},
		{
			"bufferView":2,
			"componentType":5126,
			"count":111564,
			"type":"VEC2"
		},
		{
			"bufferView":3,
			"componentType":5125,
			"count":603000,
			"type":"SCALAR"
		}
	],
	"bufferViews":[
		{
			"buffer":0,
			"byteLength":1338768,
			"byteOffset":0,
			"target":34962
		},
		{
			"buffer":0,
			"byteLength":1338768,
			"byteOffset":1338768,
			"target":34962
		},
		{
			"buffer":0,
			"byteLength":892512,
			"byteOffset":2677536,
			"target":34962
		},
		{
			"buffer":0,
			"byteLength":2412000,
			"byteOffset":3570048,
			"target":34963
		}
	],
	"buffers":[
		{
			"byteLength":5982048,
			"uri":"NoPleats.bin"
		}
	]
}
