{
	"asset":{
		"generator":"Khronos glTF Blender I/O v5.1.20",
		"version":"2.0"
	},
	"scene":0,
	"scenes":[
		{
			"name":"Scene",
			"nodes":[
				0,
				1,
				2
			]
		}
	],
	"nodes":[
		{
			"name":"Asole",
			"translation":[
				-0.0013892288552597165,
				0.11486297845840454,
				-0.004479778464883566
			]
		},
		{
			"mesh":0,
			"name":"Gemelli",
			"translation":[
				-0.0010618595406413078,
				-0.00018618791364133358,
				0.00036916183307766914
			]
		},
		{
			"mesh":1,
			"name":"Tessuto.001"
		}
	],
	"materials":[
		{
			"name":"Gemelli.001"
		},
		{
			"doubleSided":true,
			"name":"Tessuto.015"
		},
		{
			"doubleSided":true,
			"name":"CuffContrastRight.001",
			"pbrMetallicRoughness":{
				"baseColorFactor":[
					0.800000011920929,
					0.800000011920929,
					0.800000011920929,
					1
				],
				"metallicFactor":0,
				"roughnessFactor":0.5
			}
		}
	],
	"meshes":[
		{
			"name":"Mesh_0.012",
			"primitives":[
				{
					"attributes":{
						"POSITION":0,
						"NORMAL":1,
						"TEXCOORD_0":2,
						"TEXCOORD_1":3
					},
					"indices":4,
					"material":0
				}
			]
		},
		{
			"name":"Mesh_3.012",
			"primitives":[
				{
					"attributes":{
						"POSITION":5,
						"NORMAL":6,
						"TEXCOORD_0":7
					},
					"indices":8,
					"material":1
				},
				{
					"attributes":{
						"POSITION":9,
						"NORMAL":10,
						"TEXCOORD_0":11
					},
					"indices":12,
					"material":2
				}
			]
		}
	],
	"accessors":[
		{
			"bufferView":0,
			"componentType":5126,
			"count":2732,
			"max":[
				0.3223641812801361,
				-0.23461411893367767,
				0.001461218111217022
			],
			"min":[
				-0.3281027376651764,
				-0.2519049644470215,
				-0.01724417880177498
			],
			"type":"VEC3"
		},
		{
			"bufferView":1,
			"componentType":5126,
			"count":2732,
			"type":"VEC3"
		},
		{
			"bufferView":2,
			"componentType":5126,
			"count":2732,
			"type":"VEC2"
		},
		{
			"bufferView":3,
			"componentType":5126,
			"count":2732,
			"type":"VEC2"
		},
		{
			"bufferView":4,
			"componentType":5123,
			"count":10368,
			"type":"SCALAR"
		},
		{
			"bufferView":5,
			"componentType":5126,
			"count":9196,
			"max":[
				0.33938613533973694,
				-0.1771114319562912,
				0.08687353134155273
			],
			"min":[
				-0.34325921535491943,
				-0.3018878102302551,
				-0.04402700439095497
			],
			"type":"VEC3"
		},
		{
			"bufferView":6,
			"componentType":5126,
			"count":9196,
			"type":"VEC3"
		},
		{
			"bufferView":7,
			"componentType":5126,
			"count":9196,
			"type":"VEC2"
		},
		{
			"bufferView":8,
			"componentType":5123,
			"count":52002,
			"type":"SCALAR"
		},
		{
			"bufferView":9,
			"componentType":5126,
			"count":2536,
			"max":[
				0.33938613533973694,
				-0.17833130061626434,
				0.08271386474370956
			],
			"min":[
				-0.34325921535491943,
				-0.3018878102302551,
				-0.03479822725057602
			],
			"type":"VEC3"
		},
		{
			"bufferView":10,
			"componentType":5126,
			"count":2536,
			"type":"VEC3"
		},
		{
			"bufferView":11,
			"componentType":5126,
			"count":2536,
			"type":"VEC2"
		},
		{
			"bufferView":12,
			"componentType":5123,
			"count":14394,
			"type":"SCALAR"
		}
	],
	"bufferViews":[
		{
			"buffer":0,
			"byteLength":32784,
			"byteOffset":0,
			"target":34962
		},
		{
			"buffer":0,
			"byteLength":32784,
			"byteOffset":32784,
			"target":34962
		},
		{
			"buffer":0,
			"byteLength":21856,
			"byteOffset":65568,
			"target":34962
		},
		{
			"buffer":0,
			"byteLength":21856,
			"byteOffset":87424,
			"target":34962
		},
		{
			"buffer":0,
			"byteLength":20736,
			"byteOffset":109280,
			"target":34963
		},
		{
			"buffer":0,
			"byteLength":110352,
			"byteOffset":130016,
			"target":34962
		},
		{
			"buffer":0,
			"byteLength":110352,
			"byteOffset":240368,
			"target":34962
		},
		{
			"buffer":0,
			"byteLength":73568,
			"byteOffset":350720,
			"target":34962
		},
		{
			"buffer":0,
			"byteLength":104004,
			"byteOffset":424288,
			"target":34963
		},
		{
			"buffer":0,
			"byteLength":30432,
			"byteOffset":528292,
			"target":34962
		},
		{
			"buffer":0,
			"byteLength":30432,
			"byteOffset":558724,
			"target":34962
		},
		{
			"buffer":0,
			"byteLength":20288,
			"byteOffset":589156,
			"target":34962
		},
		{
			"buffer":0,
			"byteLength":28788,
			"byteOffset":609444,
			"target":34963
		}
	],
	"buffers":[
		{
			"byteLength":638232,
			"uri":"French.bin"
		}
	]
}
