{
	"asset":{
		"generator":"Khronos glTF Blender I/O v5.1.20",
		"version":"2.0"
	},
	"scene":0,
	"scenes":[
		{
			"name":"Scene",
			"nodes":[
				0,
				1
			]
		}
	],
	"nodes":[
		{
			"mesh":0,
			"name":"buttons",
			"rotation":[
				0.70710688829422,
				0,
				0,
				0.7071066498756409
			],
			"scale":[
				0.009999999776482582,
				0.009999997913837433,
				0.009999997913837433
			],
			"translation":[
				0.002145787002518773,
				0.0006827502511441708,
				0
			]
		},
		{
			"mesh":1,
			"name":"roundcuff",
			"rotation":[
				0.70710688829422,
				0,
				0,
				0.7071066498756409
			],
			"scale":[
				0.009999999776482582,
				0.009999997913837433,
				0.009999997913837433
			],
			"translation":[
				0.002145787002518773,
				0.0006827502511441708,
				0
			]
		}
	],
	"materials":[
		{
			"name":"Bottone.015"
		},
		{
			"doubleSided":true,
			"name":"Tessuto.017",
			"pbrMetallicRoughness":{
				"metallicFactor":0,
				"roughnessFactor":0.6000000238418579
			}
		}
	],
	"meshes":[
		{
			"name":"Mesh.001",
			"primitives":[
				{
					"attributes":{
						"POSITION":0,
						"NORMAL":1,
						"TEXCOORD_0":2
					},
					"indices":3,
					"material":0
				}
			]
		},
		{
			"name":"Mesh.002",
			"primitives":[
				{
					"attributes":{
						"POSITION":4,
						"NORMAL":5,
						"TEXCOORD_0":6
					},
					"indices":7,
					"material":1
				},
				{
					"attributes":{
						"POSITION":8,
						"NORMAL":9,
						"TEXCOORD_0":10
					},
					"indices":11,
					"material":0
				}
			]
		}
	],
	"accessors":[
		{
			"bufferView":0,
			"componentType":5126,
			"count":4321,
			"max":[
				30.326190948486328,
				-2.1047849655151367,
				26.87424087524414
			],
			"min":[
				-30.326190948486328,
				-2.7690188884735107,
				25.70304298400879
			],
			"type":"VEC3"
		},
		{
			"bufferView":1,
			"componentType":5126,
			"count":4321,
			"type":"VEC3"
		},
		{
			"bufferView":2,
			"componentType":5126,
			"count":4321,
			"type":"VEC2"
		},
		{
			"bufferView":3,
			"componentType":5123,
			"count":14949,
			"type":"SCALAR"
		},
		{
			"bufferView":4,
			"componentType":5126,
			"count":7778,
			"max":[
				32.181602478027344,
				6.404941082000732,
				30.27115249633789
			],
			"min":[
				-32.181602478027344,
				-2.9407386779785156,
				21.86031150817871
			],
			"type":"VEC3"
		},
		{
			"bufferView":5,
			"componentType":5126,
			"count":7778,
			"type":"VEC3"
		},
		{
			"bufferView":6,
			"componentType":5126,
			"count":7778,
			"type":"VEC2"
		},
		{
			"bufferView":7,
			"componentType":5123,
			"count":44226,
			"type":"SCALAR"
		},
		{
			"bufferView":8,
			"componentType":5126,
			"count":3,
			"max":[
				26.983196258544922,
				-2.471621036529541,
				26.292158126831055
			],
			"min":[
				26.965742111206055,
				-2.4835424423217773,
				26.204402923583984
			],
			"type":"VEC3"
		},
		{
			"bufferView":9,
			"componentType":5126,
			"count":3,
			"type":"VEC3"
		},
		{
			"bufferView":10,
			"componentType":5126,
			"count":3,
			"type":"VEC2"
		},
		{
			"bufferView":11,
			"componentType":5123,
			"count":3,
			"type":"SCALAR"
		}
	],
	"bufferViews":[
		{
			"buffer":0,
			"byteLength":51852,
			"byteOffset":0,
			"target":34962
		},
		{
			"buffer":0,
			"byteLength":51852,
			"byteOffset":51852,
			"target":34962
		},
		{
			"buffer":0,
			"byteLength":34568,
			"byteOffset":103704,
			"target":34962
		},
		{
			"buffer":0,
			"byteLength":29898,
			"byteOffset":138272,
			"target":34963
		},
		{
			"buffer":0,
			"byteLength":93336,
			"byteOffset":168172,
			"target":34962
		},
		{
			"buffer":0,
			"byteLength":93336,
			"byteOffset":261508,
			"target":34962
		},
		{
			"buffer":0,
			"byteLength":62224,
			"byteOffset":354844,
			"target":34962
		},
		{
			"buffer":0,
			"byteLength":88452,
			"byteOffset":417068,
			"target":34963
		},
		{
			"buffer":0,
			"byteLength":36,
			"byteOffset":505520,
			"target":34962
		},
		{
			"buffer":0,
			"byteLength":36,
			"byteOffset":505556,
			"target":34962
		},
		{
			"buffer":0,
			"byteLength":24,
			"byteOffset":505592,
			"target":34962
		},
		{
			"buffer":0,
			"byteLength":6,
			"byteOffset":505616,
			"target":34963
		}
	],
	"buffers":[
		{
			"byteLength":505624,
			"uri":"Rounded.bin"
		}
	]
}
