{
	"asset":{
		"generator":"Khronos glTF Blender I/O v5.1.20",
		"version":"2.0"
	},
	"scene":0,
	"scenes":[
		{
			"name":"Scene",
			"nodes":[
				1,
				2,
				5
			]
		}
	],
	"nodes":[
		{
			"name":"cuff3"
		},
		{
			"children":[
				0
			],
			"name":"long_sleeve.001",
			"rotation":[
				0.70710688829422,
				0,
				0,
				0.7071066498756409
			],
			"scale":[
				0.009999999776482582,
				0.010000000707805157,
				0.010000000707805157
			],
			"translation":[
				0.0029100000392645597,
				-1.2852303981781006,
				-0.01663728430867195
			]
		},
		{
			"mesh":0,
			"name":"button.002",
			"rotation":[
				0.70710688829422,
				0,
				0,
				0.7071066498756409
			],
			"scale":[
				0.009999999776482582,
				0.009999996982514858,
				0.009999996982514858
			]
		},
		{
			"mesh":1,
			"name":"cuff_outside.001",
			"translation":[
				-0.017607063055038452,
				-0.2614522874355316,
				-2.3828351497650146
			]
		},
		{
			"children":[
				3
			],
			"name":"cuff3.001"
		},
		{
			"children":[
				4
			],
			"name":"long_sleeve.002",
			"rotation":[
				0.70710688829422,
				0,
				0,
				0.7071066498756409
			],
			"scale":[
				0.009999999776482582,
				0.010000000707805157,
				0.010000000707805157
			],
			"translation":[
				0.0029100000392645597,
				-1.2852303981781006,
				-0.01663728430867195
			]
		}
	],
	"materials":[
		{
			"name":"Bottone.001"
		},
		{
			"doubleSided":true,
			"name":"cuff_Mat.001",
			"pbrMetallicRoughness":{
				"metallicFactor":0,
				"roughnessFactor":0.5
			}
		}
	],
	"meshes":[
		{
			"name":"Mesh.002",
			"primitives":[
				{
					"attributes":{
						"POSITION":0,
						"NORMAL":1,
						"TEXCOORD_0":2
					},
					"indices":3,
					"material":0
				}
			]
		},
		{
			"name":"Mesh.001",
			"primitives":[
				{
					"attributes":{
						"POSITION":4,
						"NORMAL":5,
						"TEXCOORD_0":6
					},
					"indices":7,
					"material":1
				}
			]
		}
	],
	"accessors":[
		{
			"bufferView":0,
			"componentType":5126,
			"count":3616,
			"max":[
				30.541563034057617,
				-1.3423991203308105,
				26.16856575012207
			],
			"min":[
				-30.226852416992188,
				-2.5968780517578125,
				24.57166862487793
			],
			"type":"VEC3"
		},
		{
			"bufferView":1,
			"componentType":5126,
			"count":3616,
			"type":"VEC3"
		},
		{
			"bufferView":2,
			"componentType":5126,
			"count":3616,
			"type":"VEC2"
		},
		{
			"bufferView":3,
			"componentType":5123,
			"count":13908,
			"type":"SCALAR"
		},
		{
			"bufferView":4,
			"componentType":5126,
			"count":4450,
			"max":[
				32.5578727722168,
				9.503453254699707,
				-97.17517852783203
			],
			"min":[
				-32.72370529174805,
				-1.123615026473999,
				-104.36747741699219
			],
			"type":"VEC3"
		},
		{
			"bufferView":5,
			"componentType":5126,
			"count":4450,
			"type":"VEC3"
		},
		{
			"bufferView":6,
			"componentType":5126,
			"count":4450,
			"type":"VEC2"
		},
		{
			"bufferView":7,
			"componentType":5123,
			"count":4722,
			"type":"SCALAR"
		}
	],
	"bufferViews":[
		{
			"buffer":0,
			"byteLength":43392,
			"byteOffset":0,
			"target":34962
		},
		{
			"buffer":0,
			"byteLength":43392,
			"byteOffset":43392,
			"target":34962
		},
		{
			"buffer":0,
			"byteLength":28928,
			"byteOffset":86784,
			"target":34962
		},
		{
			"buffer":0,
			"byteLength":27816,
			"byteOffset":115712,
			"target":34963
		},
		{
			"buffer":0,
			"byteLength":53400,
			"byteOffset":143528,
			"target":34962
		},
		{
			"buffer":0,
			"byteLength":53400,
			"byteOffset":196928,
			"target":34962
		},
		{
			"buffer":0,
			"byteLength":35600,
			"byteOffset":250328,
			"target":34962
		},
		{
			"buffer":0,
			"byteLength":9444,
			"byteOffset":285928,
			"target":34963
		}
	],
	"buffers":[
		{
			"byteLength":295372,
			"uri":"Round.bin"
		}
	]
}
