{
	"asset":{
		"generator":"Khronos glTF Blender I/O v5.1.20",
		"version":"2.0"
	},
	"scene":0,
	"scenes":[
		{
			"name":"Scene",
			"nodes":[
				2,
				3
			]
		}
	],
	"nodes":[
		{
			"mesh":0,
			"name":"cuff_outside.002",
			"translation":[
				-0.06212761998176575,
				-0.05405173823237419,
				-2.4422152042388916
			]
		},
		{
			"children":[
				0
			],
			"name":"cuff3"
		},
		{
			"children":[
				1
			],
			"name":"long_sleeve.001",
			"rotation":[
				0.7071068286895752,
				0,
				0,
				0.7071068286895752
			],
			"scale":[
				0.009999999776482582,
				0.009999999776482582,
				0.009999999776482582
			],
			"translation":[
				0.0029100000392645597,
				-1.2852303981781006,
				-0.01663728430867195
			]
		},
		{
			"mesh":1,
			"name":"button.002",
			"rotation":[
				0.70710688829422,
				0,
				0,
				0.7071066498756409
			],
			"scale":[
				0.009999999776482582,
				0.009999997913837433,
				0.009999997913837433
			]
		}
	],
	"materials":[
		{
			"doubleSided":true,
			"name":"cuff_Mat",
			"pbrMetallicRoughness":{
				"metallicFactor":0,
				"roughnessFactor":0.5
			}
		},
		{
			"name":"Bottone.001"
		}
	],
	"meshes":[
		{
			"name":"Mesh.003",
			"primitives":[
				{
					"attributes":{
						"POSITION":0,
						"NORMAL":1,
						"TEXCOORD_0":2
					},
					"indices":3,
					"material":0
				}
			]
		},
		{
			"name":"Mesh.002",
			"primitives":[
				{
					"attributes":{
						"POSITION":4,
						"NORMAL":5,
						"TEXCOORD_0":6
					},
					"indices":7,
					"material":1
				}
			]
		}
	],
	"accessors":[
		{
			"bufferView":0,
			"componentType":5126,
			"count":792,
			"max":[
				32.64248275756836,
				9.313519477844238,
				-97.17517852783203
			],
			"min":[
				-32.64248275756836,
				-1.2590199708938599,
				-104.28041076660156
			],
			"type":"VEC3"
		},
		{
			"bufferView":1,
			"componentType":5126,
			"count":792,
			"type":"VEC3"
		},
		{
			"bufferView":2,
			"componentType":5126,
			"count":792,
			"type":"VEC2"
		},
		{
			"bufferView":3,
			"componentType":5123,
			"count":4722,
			"type":"SCALAR"
		},
		{
			"bufferView":4,
			"componentType":5126,
			"count":3616,
			"max":[
				30.541563034057617,
				-1.3423991203308105,
				26.16856575012207
			],
			"min":[
				-30.226852416992188,
				-2.5968780517578125,
				24.57166862487793
			],
			"type":"VEC3"
		},
		{
			"bufferView":5,
			"componentType":5126,
			"count":3616,
			"type":"VEC3"
		},
		{
			"bufferView":6,
			"componentType":5126,
			"count":3616,
			"type":"VEC2"
		},
		{
			"bufferView":7,
			"componentType":5123,
			"count":13908,
			"type":"SCALAR"
		}
	],
	"bufferViews":[
		{
			"buffer":0,
			"byteLength":9504,
			"byteOffset":0,
			"target":34962
		},
		{
			"buffer":0,
			"byteLength":9504,
			"byteOffset":9504,
			"target":34962
		},
		{
			"buffer":0,
			"byteLength":6336,
			"byteOffset":19008,
			"target":34962
		},
		{
			"buffer":0,
			"byteLength":9444,
			"byteOffset":25344,
			"target":34963
		},
		{
			"buffer":0,
			"byteLength":43392,
			"byteOffset":34788,
			"target":34962
		},
		{
			"buffer":0,
			"byteLength":43392,
			"byteOffset":78180,
			"target":34962
		},
		{
			"buffer":0,
			"byteLength":28928,
			"byteOffset":121572,
			"target":34962
		},
		{
			"buffer":0,
			"byteLength":27816,
			"byteOffset":150500,
			"target":34963
		}
	],
	"buffers":[
		{
			"byteLength":178316,
			"uri":"Square.bin"
		}
	]
}
