{
	"asset":{
		"generator":"Khronos glTF Blender I/O v5.0.21",
		"version":"2.0"
	},
	"scene":0,
	"scenes":[
		{
			"name":"Scene",
			"nodes":[
				0,
				1
			]
		}
	],
	"nodes":[
		{
			"mesh":0,
			"name":"Tessuto.001"
		},
		{
			"mesh":1,
			"name":"Tessuto.003"
		}
	],
	"materials":[
		{
			"doubleSided":true,
			"name":"Tessuto.006"
		}
	],
	"meshes":[
		{
			"name":"Mesh_0.003",
			"primitives":[
				{
					"attributes":{
						"POSITION":0,
						"NORMAL":1,
						"TEXCOORD_0":2
					},
					"indices":3,
					"material":0
				}
			]
		},
		{
			"name":"Mesh_0.009",
			"primitives":[
				{
					"attributes":{
						"POSITION":4,
						"NORMAL":5,
						"TEXCOORD_0":6
					},
					"indices":7,
					"material":0
				}
			]
		}
	],
	"accessors":[
		{
			"bufferView":0,
			"componentType":5126,
			"count":26061,
			"max":[
				0.27667853236198425,
				0.2896624207496643,
				0.05498635768890381
			],
			"min":[
				-0.2819649577140808,
				-0.011401800438761711,
				-0.1096673384308815
			],
			"type":"VEC3"
		},
		{
			"bufferView":1,
			"componentType":5126,
			"count":26061,
			"type":"VEC3"
		},
		{
			"bufferView":2,
			"componentType":5126,
			"count":26061,
			"type":"VEC2"
		},
		{
			"bufferView":3,
			"componentType":5123,
			"count":131622,
			"type":"SCALAR"
		},
		{
			"bufferView":4,
			"componentType":5126,
			"count":2676,
			"max":[
				0.2785351872444153,
				0.04081697762012482,
				0.03582214564085007
			],
			"min":[
				-0.28395065665245056,
				-0.01169741339981556,
				-0.0820494145154953
			],
			"type":"VEC3"
		},
		{
			"bufferView":5,
			"componentType":5126,
			"count":2676,
			"type":"VEC3"
		},
		{
			"bufferView":6,
			"componentType":5126,
			"count":2676,
			"type":"VEC2"
		},
		{
			"bufferView":7,
			"componentType":5123,
			"count":5040,
			"type":"SCALAR"
		}
	],
	"bufferViews":[
		{
			"buffer":0,
			"byteLength":312732,
			"byteOffset":0,
			"target":34962
		},
		{
			"buffer":0,
			"byteLength":312732,
			"byteOffset":312732,
			"target":34962
		},
		{
			"buffer":0,
			"byteLength":208488,
			"byteOffset":625464,
			"target":34962
		},
		{
			"buffer":0,
			"byteLength":263244,
			"byteOffset":833952,
			"target":34963
		},
		{
			"buffer":0,
			"byteLength":32112,
			"byteOffset":1097196,
			"target":34962
		},
		{
			"buffer":0,
			"byteLength":32112,
			"byteOffset":1129308,
			"target":34962
		},
		{
			"buffer":0,
			"byteLength":21408,
			"byteOffset":1161420,
			"target":34962
		},
		{
			"buffer":0,
			"byteLength":10080,
			"byteOffset":1182828,
			"target":34963
		}
	],
	"buffers":[
		{
			"byteLength":1192908,
			"uri":"halfsleevee.bin"
		}
	]
}
