{
	"asset":{
		"generator":"Khronos glTF Blender I/O v5.0.21",
		"version":"2.0"
	},
	"scene":0,
	"scenes":[
		{
			"name":"Scene",
			"nodes":[
				0
			]
		}
	],
	"nodes":[
		{
			"mesh":0,
			"name":"Tessuto.001"
		}
	],
	"materials":[
		{
			"doubleSided":true,
			"name":"Tessuto.001"
		}
	],
	"meshes":[
		{
			"name":"Mesh_0.001",
			"primitives":[
				{
					"attributes":{
						"POSITION":0,
						"NORMAL":1,
						"TEXCOORD_0":2
					},
					"indices":3,
					"material":0
				}
			]
		}
	],
	"accessors":[
		{
			"bufferView":0,
			"componentType":5126,
			"count":4108,
			"max":[
				0.27675968408584595,
				0.2900572419166565,
				0.05185142904520035
			],
			"min":[
				-0.2820107042789459,
				-0.011411509476602077,
				-0.110238216817379
			],
			"type":"VEC3"
		},
		{
			"bufferView":1,
			"componentType":5126,
			"count":4108,
			"type":"VEC3"
		},
		{
			"bufferView":2,
			"componentType":5126,
			"count":4108,
			"type":"VEC2"
		},
		{
			"bufferView":3,
			"componentType":5123,
			"count":21762,
			"type":"SCALAR"
		}
	],
	"bufferViews":[
		{
			"buffer":0,
			"byteLength":49296,
			"byteOffset":0,
			"target":34962
		},
		{
			"buffer":0,
			"byteLength":49296,
			"byteOffset":49296,
			"target":34962
		},
		{
			"buffer":0,
			"byteLength":32864,
			"byteOffset":98592,
			"target":34962
		},
		{
			"buffer":0,
			"byteLength":43524,
			"byteOffset":131456,
			"target":34963
		}
	],
	"buffers":[
		{
			"byteLength":174980,
			"uri":"halfsleeve.bin"
		}
	]
}
