{
	"asset":{
		"generator":"Khronos glTF Blender I/O v5.0.21",
		"version":"2.0"
	},
	"scene":0,
	"scenes":[
		{
			"name":"Scene",
			"nodes":[
				0,
				1,
				2,
				3,
				4
			]
		}
	],
	"nodes":[
		{
			"mesh":0,
			"name":"ricamo3"
		},
		{
			"mesh":1,
			"name":"Bottoni"
		},
		{
			"mesh":2,
			"name":"Tessuto1"
		},
		{
			"mesh":3,
			"name":"Asole"
		},
		{
			"mesh":4,
			"name":"Filobottoni"
		}
	],
	"materials":[
		{
			"name":"Ricamo.001"
		},
		{
			"name":"Bottone.006"
		},
		{
			"name":"default.001"
		},
		{
			"name":"Asola.005"
		},
		{
			"doubleSided":true,
			"name":"CollarContrast",
			"pbrMetallicRoughness":{
				"baseColorFactor":[
					0.800000011920929,
					0.800000011920929,
					0.800000011920929,
					1
				],
				"metallicFactor":0,
				"roughnessFactor":0.5
			}
		},
		{
			"name":"FIlobottoni.006"
		}
	],
	"meshes":[
		{
			"name":"Mesh_1.005",
			"primitives":[
				{
					"attributes":{
						"POSITION":0,
						"NORMAL":1,
						"TEXCOORD_0":2
					},
					"indices":3,
					"material":0
				}
			]
		},
		{
			"name":"Mesh_0.008",
			"primitives":[
				{
					"attributes":{
						"POSITION":4,
						"NORMAL":5,
						"TEXCOORD_0":6
					},
					"indices":7,
					"material":1
				}
			]
		},
		{
			"name":"Tessuto.001",
			"primitives":[
				{
					"attributes":{
						"POSITION":8,
						"NORMAL":9,
						"TEXCOORD_0":10
					},
					"indices":11,
					"material":2
				},
				{
					"attributes":{
						"POSITION":12,
						"NORMAL":13,
						"TEXCOORD_0":14
					},
					"indices":15,
					"material":3
				},
				{
					"attributes":{
						"POSITION":16,
						"NORMAL":17,
						"TEXCOORD_0":18
					},
					"indices":19,
					"material":4
				}
			]
		},
		{
			"name":"Mesh_2.007",
			"primitives":[
				{
					"attributes":{
						"POSITION":20,
						"NORMAL":21,
						"TEXCOORD_0":22
					},
					"indices":15,
					"material":3
				}
			]
		},
		{
			"name":"Mesh_3.009",
			"primitives":[
				{
					"attributes":{
						"POSITION":23,
						"NORMAL":24,
						"TEXCOORD_0":25
					},
					"indices":26,
					"material":5
				}
			]
		}
	],
	"accessors":[
		{
			"bufferView":0,
			"componentType":5126,
			"count":27,
			"max":[
				0.3088288903236389,
				-0.2735689878463745,
				0.06342993676662445
			],
			"min":[
				0.2826292812824249,
				-0.28561630845069885,
				0.036330074071884155
			],
			"type":"VEC3"
		},
		{
			"bufferView":1,
			"componentType":5126,
			"count":27,
			"type":"VEC3"
		},
		{
			"bufferView":2,
			"componentType":5126,
			"count":27,
			"type":"VEC2"
		},
		{
			"bufferView":3,
			"componentType":5123,
			"count":96,
			"type":"SCALAR"
		},
		{
			"bufferView":4,
			"componentType":5126,
			"count":2588,
			"max":[
				0.06803762167692184,
				0.31832849979400635,
				0.05968822166323662
			],
			"min":[
				-0.06738363951444626,
				0.2745332419872284,
				0.04116455093026161
			],
			"type":"VEC3"
		},
		{
			"bufferView":5,
			"componentType":5126,
			"count":2588,
			"type":"VEC3"
		},
		{
			"bufferView":6,
			"componentType":5126,
			"count":2588,
			"type":"VEC2"
		},
		{
			"bufferView":7,
			"componentType":5123,
			"count":8394,
			"type":"SCALAR"
		},
		{
			"bufferView":8,
			"componentType":5126,
			"count":7852,
			"max":[
				0.08443761616945267,
				0.40370267629623413,
				0.0785861611366272
			],
			"min":[
				-0.08286925405263901,
				0.2690071761608124,
				-0.07507134974002838
			],
			"type":"VEC3"
		},
		{
			"bufferView":9,
			"componentType":5126,
			"count":7852,
			"type":"VEC3"
		},
		{
			"bufferView":10,
			"componentType":5126,
			"count":7852,
			"type":"VEC2"
		},
		{
			"bufferView":11,
			"componentType":5123,
			"count":46458,
			"type":"SCALAR"
		},
		{
			"bufferView":12,
			"componentType":5126,
			"count":21,
			"max":[
				0.02382853627204895,
				0.3165992498397827,
				0.06772658228874207
			],
			"min":[
				0.016539864242076874,
				0.3114856779575348,
				0.059873998165130615
			],
			"type":"VEC3"
		},
		{
			"bufferView":13,
			"componentType":5126,
			"count":21,
			"type":"VEC3"
		},
		{
			"bufferView":14,
			"componentType":5126,
			"count":21,
			"type":"VEC2"
		},
		{
			"bufferView":15,
			"componentType":5123,
			"count":66,
			"type":"SCALAR"
		},
		{
			"bufferView":16,
			"componentType":5126,
			"count":1412,
			"max":[
				0.07528354972600937,
				0.3979814052581787,
				0.07744190096855164
			],
			"min":[
				-0.07338825613260269,
				0.29900309443473816,
				-0.06935005635023117
			],
			"type":"VEC3"
		},
		{
			"bufferView":17,
			"componentType":5126,
			"count":1412,
			"type":"VEC3"
		},
		{
			"bufferView":18,
			"componentType":5126,
			"count":1412,
			"type":"VEC2"
		},
		{
			"bufferView":19,
			"componentType":5123,
			"count":7842,
			"type":"SCALAR"
		},
		{
			"bufferView":20,
			"componentType":5126,
			"count":21,
			"max":[
				0.02351767010986805,
				0.31532609462738037,
				0.0667930543422699
			],
			"min":[
				0.01602267473936081,
				0.3098650276660919,
				0.05889282003045082
			],
			"type":"VEC3"
		},
		{
			"bufferView":21,
			"componentType":5126,
			"count":21,
			"type":"VEC3"
		},
		{
			"bufferView":22,
			"componentType":5126,
			"count":21,
			"type":"VEC2"
		},
		{
			"bufferView":23,
			"componentType":5126,
			"count":5205,
			"max":[
				0.06489530205726624,
				0.3155997097492218,
				0.0573824942111969
			],
			"min":[
				-0.06417915225028992,
				0.2767575681209564,
				0.043825577944517136
			],
			"type":"VEC3"
		},
		{
			"bufferView":24,
			"componentType":5126,
			"count":5205,
			"type":"VEC3"
		},
		{
			"bufferView":25,
			"componentType":5126,
			"count":5205,
			"type":"VEC2"
		},
		{
			"bufferView":26,
			"componentType":5123,
			"count":12783,
			"type":"SCALAR"
		}
	],
	"bufferViews":[
		{
			"buffer":0,
			"byteLength":324,
			"byteOffset":0,
			"target":34962
		},
		{
			"buffer":0,
			"byteLength":324,
			"byteOffset":324,
			"target":34962
		},
		{
			"buffer":0,
			"byteLength":216,
			"byteOffset":648,
			"target":34962
		},
		{
			"buffer":0,
			"byteLength":192,
			"byteOffset":864,
			"target":34963
		},
		{
			"buffer":0,
			"byteLength":31056,
			"byteOffset":1056,
			"target":34962
		},
		{
			"buffer":0,
			"byteLength":31056,
			"byteOffset":32112,
			"target":34962
		},
		{
			"buffer":0,
			"byteLength":20704,
			"byteOffset":63168,
			"target":34962
		},
		{
			"buffer":0,
			"byteLength":16788,
			"byteOffset":83872,
			"target":34963
		},
		{
			"buffer":0,
			"byteLength":94224,
			"byteOffset":100660,
			"target":34962
		},
		{
			"buffer":0,
			"byteLength":94224,
			"byteOffset":194884,
			"target":34962
		},
		{
			"buffer":0,
			"byteLength":62816,
			"byteOffset":289108,
			"target":34962
		},
		{
			"buffer":0,
			"byteLength":92916,
			"byteOffset":351924,
			"target":34963
		},
		{
			"buffer":0,
			"byteLength":252,
			"byteOffset":444840,
			"target":34962
		},
		{
			"buffer":0,
			"byteLength":252,
			"byteOffset":445092,
			"target":34962
		},
		{
			"buffer":0,
			"byteLength":168,
			"byteOffset":445344,
			"target":34962
		},
		{
			"buffer":0,
			"byteLength":132,
			"byteOffset":445512,
			"target":34963
		},
		{
			"buffer":0,
			"byteLength":16944,
			"byteOffset":445644,
			"target":34962
		},
		{
			"buffer":0,
			"byteLength":16944,
			"byteOffset":462588,
			"target":34962
		},
		{
			"buffer":0,
			"byteLength":11296,
			"byteOffset":479532,
			"target":34962
		},
		{
			"buffer":0,
			"byteLength":15684,
			"byteOffset":490828,
			"target":34963
		},
		{
			"buffer":0,
			"byteLength":252,
			"byteOffset":506512,
			"target":34962
		},
		{
			"buffer":0,
			"byteLength":252,
			"byteOffset":506764,
			"target":34962
		},
		{
			"buffer":0,
			"byteLength":168,
			"byteOffset":507016,
			"target":34962
		},
		{
			"buffer":0,
			"byteLength":62460,
			"byteOffset":507184,
			"target":34962
		},
		{
			"buffer":0,
			"byteLength":62460,
			"byteOffset":569644,
			"target":34962
		},
		{
			"buffer":0,
			"byteLength":41640,
			"byteOffset":632104,
			"target":34962
		},
		{
			"buffer":0,
			"byteLength":25566,
			"byteOffset":673744,
			"target":34963
		}
	],
	"buffers":[
		{
			"byteLength":699312,
			"uri":"Buttondowncollar.bin"
		}
	]
}
