{
	"asset":{
		"generator":"Khronos glTF Blender I/O v5.0.21",
		"version":"2.0"
	},
	"scene":0,
	"scenes":[
		{
			"name":"Scene",
			"nodes":[
				0,
				1,
				2,
				3
			]
		}
	],
	"nodes":[
		{
			"mesh":0,
			"name":"Bottoni"
		},
		{
			"mesh":1,
			"name":"Filobottoni"
		},
		{
			"mesh":2,
			"name":"Tessuto"
		},
		{
			"mesh":3,
			"name":"Asole"
		}
	],
	"materials":[
		{
			"name":"Bottone.007"
		},
		{
			"name":"FIlobottoni.007"
		},
		{
			"doubleSided":true,
			"name":"Tessuto.007"
		},
		{
			"doubleSided":true,
			"name":"CollarContrast",
			"pbrMetallicRoughness":{
				"baseColorFactor":[
					0.800000011920929,
					0.800000011920929,
					0.800000011920929,
					1
				],
				"metallicFactor":0,
				"roughnessFactor":0.5
			}
		},
		{
			"name":"Asola.007"
		}
	],
	"meshes":[
		{
			"name":"Mesh_0.012",
			"primitives":[
				{
					"attributes":{
						"POSITION":0,
						"NORMAL":1,
						"TEXCOORD_0":2
					},
					"indices":3,
					"material":0
				}
			]
		},
		{
			"name":"Mesh_1.007",
			"primitives":[
				{
					"attributes":{
						"POSITION":4,
						"NORMAL":5,
						"TEXCOORD_0":6
					},
					"indices":7,
					"material":1
				}
			]
		},
		{
			"name":"Mesh_2.010",
			"primitives":[
				{
					"attributes":{
						"POSITION":8,
						"NORMAL":9,
						"TEXCOORD_0":10
					},
					"indices":11,
					"material":2
				},
				{
					"attributes":{
						"POSITION":12,
						"NORMAL":13,
						"TEXCOORD_0":14
					},
					"indices":15,
					"material":3
				}
			]
		},
		{
			"name":"Mesh_3.011",
			"primitives":[
				{
					"attributes":{
						"POSITION":16,
						"NORMAL":17,
						"TEXCOORD_0":18
					},
					"indices":19,
					"material":4
				}
			]
		}
	],
	"accessors":[
		{
			"bufferView":0,
			"componentType":5126,
			"count":1081,
			"max":[
				-0.009084685705602169,
				0.31829604506492615,
				0.05964992940425873
			],
			"min":[
				-0.017133869230747223,
				0.31105294823646545,
				0.053008466958999634
			],
			"type":"VEC3"
		},
		{
			"bufferView":1,
			"componentType":5126,
			"count":1081,
			"type":"VEC3"
		},
		{
			"bufferView":2,
			"componentType":5126,
			"count":1081,
			"type":"VEC2"
		},
		{
			"bufferView":3,
			"componentType":5123,
			"count":3738,
			"type":"SCALAR"
		},
		{
			"bufferView":4,
			"componentType":5126,
			"count":1806,
			"max":[
				-0.012244666926562786,
				0.3155655860900879,
				0.057284027338027954
			],
			"min":[
				-0.014011131599545479,
				0.3136370778083801,
				0.05545349791646004
			],
			"type":"VEC3"
		},
		{
			"bufferView":5,
			"componentType":5126,
			"count":1806,
			"type":"VEC3"
		},
		{
			"bufferView":6,
			"componentType":5126,
			"count":1806,
			"type":"VEC2"
		},
		{
			"bufferView":7,
			"componentType":5123,
			"count":5184,
			"type":"SCALAR"
		},
		{
			"bufferView":8,
			"componentType":5126,
			"count":6711,
			"max":[
				0.08583978563547134,
				0.3948017358779907,
				0.07157030701637268
			],
			"min":[
				-0.08349583297967911,
				0.296608567237854,
				-0.07509899139404297
			],
			"type":"VEC3"
		},
		{
			"bufferView":9,
			"componentType":5126,
			"count":6711,
			"type":"VEC3"
		},
		{
			"bufferView":10,
			"componentType":5126,
			"count":6711,
			"type":"VEC2"
		},
		{
			"bufferView":11,
			"componentType":5123,
			"count":39366,
			"type":"SCALAR"
		},
		{
			"bufferView":12,
			"componentType":5126,
			"count":1244,
			"max":[
				0.07525113970041275,
				0.38917648792266846,
				0.07049490511417389
			],
			"min":[
				-0.07340352982282639,
				0.2990075647830963,
				-0.06963922083377838
			],
			"type":"VEC3"
		},
		{
			"bufferView":13,
			"componentType":5126,
			"count":1244,
			"type":"VEC3"
		},
		{
			"bufferView":14,
			"componentType":5126,
			"count":1244,
			"type":"VEC2"
		},
		{
			"bufferView":15,
			"componentType":5123,
			"count":6816,
			"type":"SCALAR"
		},
		{
			"bufferView":16,
			"componentType":5126,
			"count":21,
			"max":[
				0.025027088820934296,
				0.3149666488170624,
				0.06855522841215134
			],
			"min":[
				0.017164044082164764,
				0.31127285957336426,
				0.060511425137519836
			],
			"type":"VEC3"
		},
		{
			"bufferView":17,
			"componentType":5126,
			"count":21,
			"type":"VEC3"
		},
		{
			"bufferView":18,
			"componentType":5126,
			"count":21,
			"type":"VEC2"
		},
		{
			"bufferView":19,
			"componentType":5123,
			"count":66,
			"type":"SCALAR"
		}
	],
	"bufferViews":[
		{
			"buffer":0,
			"byteLength":12972,
			"byteOffset":0,
			"target":34962
		},
		{
			"buffer":0,
			"byteLength":12972,
			"byteOffset":12972,
			"target":34962
		},
		{
			"buffer":0,
			"byteLength":8648,
			"byteOffset":25944,
			"target":34962
		},
		{
			"buffer":0,
			"byteLength":7476,
			"byteOffset":34592,
			"target":34963
		},
		{
			"buffer":0,
			"byteLength":21672,
			"byteOffset":42068,
			"target":34962
		},
		{
			"buffer":0,
			"byteLength":21672,
			"byteOffset":63740,
			"target":34962
		},
		{
			"buffer":0,
			"byteLength":14448,
			"byteOffset":85412,
			"target":34962
		},
		{
			"buffer":0,
			"byteLength":10368,
			"byteOffset":99860,
			"target":34963
		},
		{
			"buffer":0,
			"byteLength":80532,
			"byteOffset":110228,
			"target":34962
		},
		{
			"buffer":0,
			"byteLength":80532,
			"byteOffset":190760,
			"target":34962
		},
		{
			"buffer":0,
			"byteLength":53688,
			"byteOffset":271292,
			"target":34962
		},
		{
			"buffer":0,
			"byteLength":78732,
			"byteOffset":324980,
			"target":34963
		},
		{
			"buffer":0,
			"byteLength":14928,
			"byteOffset":403712,
			"target":34962
		},
		{
			"buffer":0,
			"byteLength":14928,
			"byteOffset":418640,
			"target":34962
		},
		{
			"buffer":0,
			"byteLength":9952,
			"byteOffset":433568,
			"target":34962
		},
		{
			"buffer":0,
			"byteLength":13632,
			"byteOffset":443520,
			"target":34963
		},
		{
			"buffer":0,
			"byteLength":252,
			"byteOffset":457152,
			"target":34962
		},
		{
			"buffer":0,
			"byteLength":252,
			"byteOffset":457404,
			"target":34962
		},
		{
			"buffer":0,
			"byteLength":168,
			"byteOffset":457656,
			"target":34962
		},
		{
			"buffer":0,
			"byteLength":132,
			"byteOffset":457824,
			"target":34963
		}
	],
	"buffers":[
		{
			"byteLength":457956,
			"uri":"spreadcollar.bin"
		}
	]
}
