{
	"asset":{
		"generator":"Khronos glTF Blender I/O v5.1.20",
		"version":"2.0"
	},
	"scene":0,
	"scenes":[
		{
			"name":"Scene",
			"nodes":[
				0,
				1,
				2,
				3,
				4,
				5,
				6,
				7
			]
		}
	],
	"nodes":[
		{
			"name":"Asole",
			"translation":[
				-0.0013892288552597165,
				0.11486297845840454,
				-0.004479778464883566
			]
		},
		{
			"mesh":0,
			"name":"Bottoni",
			"translation":[
				0,
				0.11274229735136032,
				0
			]
		},
		{
			"mesh":1,
			"name":"Tessuto1",
			"translation":[
				0,
				0.11274229735136032,
				0
			]
		},
		{
			"mesh":2,
			"name":"Filobottoni.002",
			"translation":[
				0,
				0.11274229735136032,
				0
			]
		},
		{
			"mesh":3,
			"name":"Filobottoni",
			"rotation":[
				0.00019401704776100814,
				-0.0004231200146023184,
				0.0009962826734408736,
				1
			],
			"scale":[
				1.0646063089370728,
				1.0646060705184937,
				1.0646063089370728
			],
			"translation":[
				0.00294099235907197,
				0.00018384831491857767,
				0.0017183576710522175
			]
		},
		{
			"mesh":4,
			"name":"Tessuto.005",
			"scale":[
				1.064328908920288,
				1.064328908920288,
				1.064328908920288
			],
			"translation":[
				0,
				-0.0009254366159439087,
				-5.3495168685913086e-05
			]
		},
		{
			"mesh":5,
			"name":"Bottoni.001",
			"rotation":[
				0.00019401704776100814,
				-0.0004231199563946575,
				0.0009962826734408736,
				1
			],
			"scale":[
				1.064328908920288,
				1.064328670501709,
				1.064328908920288
			],
			"translation":[
				0.002514354418963194,
				0.002267993986606598,
				0.0010675073135644197
			]
		},
		{
			"mesh":6,
			"name":"Asole.002",
			"scale":[
				1.064328908920288,
				1.064328908920288,
				1.064328908920288
			],
			"translation":[
				0,
				0,
				0.00020632147789001465
			]
		}
	],
	"materials":[
		{
			"name":"Bottone.011"
		},
		{
			"name":"default.002"
		},
		{
			"name":"FIlobottoni.011"
		},
		{
			"name":"FIlobottoni.012"
		},
		{
			"doubleSided":true,
			"name":"Tessuto.018"
		},
		{
			"doubleSided":true,
			"name":"CollarContrast.007",
			"pbrMetallicRoughness":{
				"baseColorFactor":[
					0.800000011920929,
					0.800000011920929,
					0.800000011920929,
					1
				],
				"metallicFactor":0,
				"roughnessFactor":0.5
			}
		},
		{
			"name":"Bottone.012"
		},
		{
			"name":"Asola.009"
		}
	],
	"meshes":[
		{
			"name":"Mesh_0.013",
			"primitives":[
				{
					"attributes":{
						"POSITION":0,
						"NORMAL":1,
						"TEXCOORD_0":2
					},
					"indices":3,
					"material":0
				}
			]
		},
		{
			"name":"Tessuto.002",
			"primitives":[
				{
					"attributes":{
						"POSITION":4,
						"NORMAL":5,
						"TEXCOORD_0":6
					},
					"indices":7,
					"material":1
				}
			]
		},
		{
			"name":"Mesh_3.013",
			"primitives":[
				{
					"attributes":{
						"POSITION":8,
						"NORMAL":9,
						"TEXCOORD_0":10
					},
					"indices":11,
					"material":2
				}
			]
		},
		{
			"name":"Mesh_1.008",
			"primitives":[
				{
					"attributes":{
						"POSITION":12,
						"NORMAL":13,
						"TEXCOORD_0":14
					},
					"indices":15,
					"material":3
				}
			]
		},
		{
			"name":"Mesh_2.020",
			"primitives":[
				{
					"attributes":{
						"POSITION":16,
						"NORMAL":17,
						"TEXCOORD_0":18
					},
					"indices":19,
					"material":4
				},
				{
					"attributes":{
						"POSITION":20,
						"NORMAL":21,
						"TEXCOORD_0":22
					},
					"indices":23,
					"material":5
				}
			]
		},
		{
			"name":"Mesh_0.014",
			"primitives":[
				{
					"attributes":{
						"POSITION":24,
						"NORMAL":25,
						"TEXCOORD_0":26
					},
					"indices":27,
					"material":6
				}
			]
		},
		{
			"name":"Mesh_3.014",
			"primitives":[
				{
					"attributes":{
						"POSITION":28,
						"NORMAL":29,
						"TEXCOORD_0":30
					},
					"indices":31,
					"material":7
				}
			]
		}
	],
	"accessors":[
		{
			"bufferView":0,
			"componentType":5126,
			"count":1719,
			"max":[
				0.06803762167692184,
				0.2824719548225403,
				0.04969866946339607
			],
			"min":[
				-0.06738363951444626,
				0.2745332419872284,
				0.04116455093026161
			],
			"type":"VEC3"
		},
		{
			"bufferView":1,
			"componentType":5126,
			"count":1719,
			"type":"VEC3"
		},
		{
			"bufferView":2,
			"componentType":5126,
			"count":1719,
			"type":"VEC2"
		},
		{
			"bufferView":3,
			"componentType":5123,
			"count":5580,
			"type":"SCALAR"
		},
		{
			"bufferView":4,
			"componentType":5126,
			"count":5210,
			"max":[
				0.0886312946677208,
				0.4032496511936188,
				0.06648288667201996
			],
			"min":[
				-0.08948630094528198,
				0.26860684156417847,
				-0.09182699024677277
			],
			"type":"VEC3"
		},
		{
			"bufferView":5,
			"componentType":5126,
			"count":5210,
			"type":"VEC3"
		},
		{
			"bufferView":6,
			"componentType":5126,
			"count":5210,
			"type":"VEC2"
		},
		{
			"bufferView":7,
			"componentType":5123,
			"count":30954,
			"type":"SCALAR"
		},
		{
			"bufferView":8,
			"componentType":5126,
			"count":3461,
			"max":[
				0.06489530205726624,
				0.2803517282009125,
				0.047167517244815826
			],
			"min":[
				-0.06417915225028992,
				0.2767575681209564,
				0.043825577944517136
			],
			"type":"VEC3"
		},
		{
			"bufferView":9,
			"componentType":5126,
			"count":3461,
			"type":"VEC3"
		},
		{
			"bufferView":10,
			"componentType":5126,
			"count":3461,
			"type":"VEC2"
		},
		{
			"bufferView":11,
			"componentType":5123,
			"count":8511,
			"type":"SCALAR"
		},
		{
			"bufferView":12,
			"componentType":5126,
			"count":1806,
			"max":[
				-0.010417843237519264,
				0.3993273377418518,
				0.05282912030816078
			],
			"min":[
				-0.012285998091101646,
				0.3973788619041443,
				0.05104018747806549
			],
			"type":"VEC3"
		},
		{
			"bufferView":13,
			"componentType":5126,
			"count":1806,
			"type":"VEC3"
		},
		{
			"bufferView":14,
			"componentType":5126,
			"count":1806,
			"type":"VEC2"
		},
		{
			"bufferView":15,
			"componentType":5123,
			"count":5184,
			"type":"SCALAR"
		},
		{
			"bufferView":16,
			"componentType":5126,
			"count":2148,
			"max":[
				0.07562947273254395,
				0.4807155430316925,
				0.06689664721488953
			],
			"min":[
				-0.07402752339839935,
				0.3824496269226074,
				-0.08311045169830322
			],
			"type":"VEC3"
		},
		{
			"bufferView":17,
			"componentType":5126,
			"count":2148,
			"type":"VEC3"
		},
		{
			"bufferView":18,
			"componentType":5126,
			"count":2148,
			"type":"VEC2"
		},
		{
			"bufferView":19,
			"componentType":5123,
			"count":11820,
			"type":"SCALAR"
		},
		{
			"bufferView":20,
			"componentType":5126,
			"count":1312,
			"max":[
				0.07428225874900818,
				0.4801354706287384,
				0.06583858281373978
			],
			"min":[
				-0.07259652763605118,
				0.3832572102546692,
				-0.08189303427934647
			],
			"type":"VEC3"
		},
		{
			"bufferView":21,
			"componentType":5126,
			"count":1312,
			"type":"VEC3"
		},
		{
			"bufferView":22,
			"componentType":5126,
			"count":1312,
			"type":"VEC2"
		},
		{
			"bufferView":23,
			"componentType":5123,
			"count":6828,
			"type":"SCALAR"
		},
		{
			"bufferView":24,
			"componentType":5126,
			"count":1081,
			"max":[
				-0.006963113788515329,
				0.4004656970500946,
				0.05591285973787308
			],
			"min":[
				-0.014919983223080635,
				0.39280515909194946,
				0.04966428503394127
			],
			"type":"VEC3"
		},
		{
			"bufferView":25,
			"componentType":5126,
			"count":1081,
			"type":"VEC3"
		},
		{
			"bufferView":26,
			"componentType":5126,
			"count":1081,
			"type":"VEC2"
		},
		{
			"bufferView":27,
			"componentType":5123,
			"count":3738,
			"type":"SCALAR"
		},
		{
			"bufferView":28,
			"componentType":5126,
			"count":21,
			"max":[
				0.025027086958289146,
				0.39791494607925415,
				0.0639275461435318
			],
			"min":[
				0.017164042219519615,
				0.39422115683555603,
				0.0558837428689003
			],
			"type":"VEC3"
		},
		{
			"bufferView":29,
			"componentType":5126,
			"count":21,
			"type":"VEC3"
		},
		{
			"bufferView":30,
			"componentType":5126,
			"count":21,
			"type":"VEC2"
		},
		{
			"bufferView":31,
			"componentType":5123,
			"count":66,
			"type":"SCALAR"
		}
	],
	"bufferViews":[
		{
			"buffer":0,
			"byteLength":20628,
			"byteOffset":0,
			"target":34962
		},
		{
			"buffer":0,
			"byteLength":20628,
			"byteOffset":20628,
			"target":34962
		},
		{
			"buffer":0,
			"byteLength":13752,
			"byteOffset":41256,
			"target":34962
		},
		{
			"buffer":0,
			"byteLength":11160,
			"byteOffset":55008,
			"target":34963
		},
		{
			"buffer":0,
			"byteLength":62520,
			"byteOffset":66168,
			"target":34962
		},
		{
			"buffer":0,
			"byteLength":62520,
			"byteOffset":128688,
			"target":34962
		},
		{
			"buffer":0,
			"byteLength":41680,
			"byteOffset":191208,
			"target":34962
		},
		{
			"buffer":0,
			"byteLength":61908,
			"byteOffset":232888,
			"target":34963
		},
		{
			"buffer":0,
			"byteLength":41532,
			"byteOffset":294796,
			"target":34962
		},
		{
			"buffer":0,
			"byteLength":41532,
			"byteOffset":336328,
			"target":34962
		},
		{
			"buffer":0,
			"byteLength":27688,
			"byteOffset":377860,
			"target":34962
		},
		{
			"buffer":0,
			"byteLength":17022,
			"byteOffset":405548,
			"target":34963
		},
		{
			"buffer":0,
			"byteLength":21672,
			"byteOffset":422572,
			"target":34962
		},
		{
			"buffer":0,
			"byteLength":21672,
			"byteOffset":444244,
			"target":34962
		},
		{
			"buffer":0,
			"byteLength":14448,
			"byteOffset":465916,
			"target":34962
		},
		{
			"buffer":0,
			"byteLength":10368,
			"byteOffset":480364,
			"target":34963
		},
		{
			"buffer":0,
			"byteLength":25776,
			"byteOffset":490732,
			"target":34962
		},
		{
			"buffer":0,
			"byteLength":25776,
			"byteOffset":516508,
			"target":34962
		},
		{
			"buffer":0,
			"byteLength":17184,
			"byteOffset":542284,
			"target":34962
		},
		{
			"buffer":0,
			"byteLength":23640,
			"byteOffset":559468,
			"target":34963
		},
		{
			"buffer":0,
			"byteLength":15744,
			"byteOffset":583108,
			"target":34962
		},
		{
			"buffer":0,
			"byteLength":15744,
			"byteOffset":598852,
			"target":34962
		},
		{
			"buffer":0,
			"byteLength":10496,
			"byteOffset":614596,
			"target":34962
		},
		{
			"buffer":0,
			"byteLength":13656,
			"byteOffset":625092,
			"target":34963
		},
		{
			"buffer":0,
			"byteLength":12972,
			"byteOffset":638748,
			"target":34962
		},
		{
			"buffer":0,
			"byteLength":12972,
			"byteOffset":651720,
			"target":34962
		},
		{
			"buffer":0,
			"byteLength":8648,
			"byteOffset":664692,
			"target":34962
		},
		{
			"buffer":0,
			"byteLength":7476,
			"byteOffset":673340,
			"target":34963
		},
		{
			"buffer":0,
			"byteLength":252,
			"byteOffset":680816,
			"target":34962
		},
		{
			"buffer":0,
			"byteLength":252,
			"byteOffset":681068,
			"target":34962
		},
		{
			"buffer":0,
			"byteLength":168,
			"byteOffset":681320,
			"target":34962
		},
		{
			"buffer":0,
			"byteLength":132,
			"byteOffset":681488,
			"target":34963
		}
	],
	"buffers":[
		{
			"byteLength":681620,
			"uri":"Buttondown.bin"
		}
	]
}
