{
	"asset":{
		"generator":"Khronos glTF Blender I/O v5.1.20",
		"version":"2.0"
	},
	"scene":0,
	"scenes":[
		{
			"name":"Scene",
			"nodes":[
				0,
				1,
				2,
				3,
				4,
				5
			]
		}
	],
	"nodes":[
		{
			"name":"Asole",
			"translation":[
				-0.0013892288552597165,
				0.11486297845840454,
				-0.004479778464883566
			]
		},
		{
			"mesh":0,
			"name":"Filobottoni",
			"scale":[
				1.0646063089370728,
				1.0646063089370728,
				1.0646063089370728
			],
			"translation":[
				0.00042303555528633296,
				-0.0020847395062446594,
				0.000857621431350708
			]
		},
		{
			"mesh":1,
			"name":"Tessuto.005",
			"scale":[
				1.064328908920288,
				1.064328908920288,
				1.064328908920288
			],
			"translation":[
				0,
				-0.0009254366159439087,
				-5.3495168685913086e-05
			]
		},
		{
			"mesh":2,
			"name":"Tessuto.006",
			"scale":[
				1.064328908920288,
				1.064328908920288,
				1.064328908920288
			],
			"translation":[
				0,
				0,
				0.00020632147789001465
			]
		},
		{
			"mesh":3,
			"name":"Bottoni.001",
			"scale":[
				1.064328908920288,
				1.064328908920288,
				1.064328908920288
			],
			"translation":[
				0,
				0,
				0.00020632147789001465
			]
		},
		{
			"mesh":4,
			"name":"Asole.001",
			"scale":[
				1.064328908920288,
				1.064328908920288,
				1.064328908920288
			],
			"translation":[
				0,
				0,
				0.00020632147789001465
			]
		}
	],
	"materials":[
		{
			"name":"FIlobottoni.013"
		},
		{
			"doubleSided":true,
			"name":"Tessuto.020"
		},
		{
			"doubleSided":true,
			"name":"CollarContrast.008",
			"pbrMetallicRoughness":{
				"baseColorFactor":[
					0.800000011920929,
					0.800000011920929,
					0.800000011920929,
					1
				],
				"metallicFactor":0,
				"roughnessFactor":0.5
			}
		},
		{
			"doubleSided":true,
			"name":"Tessuto.021"
		},
		{
			"name":"Bottone.013"
		},
		{
			"name":"Asola.010"
		}
	],
	"meshes":[
		{
			"name":"Mesh_1.009",
			"primitives":[
				{
					"attributes":{
						"POSITION":0,
						"NORMAL":1,
						"TEXCOORD_0":2
					},
					"indices":3,
					"material":0
				}
			]
		},
		{
			"name":"Mesh_2.022",
			"primitives":[
				{
					"attributes":{
						"POSITION":4,
						"NORMAL":5,
						"TEXCOORD_0":6
					},
					"indices":7,
					"material":1
				},
				{
					"attributes":{
						"POSITION":8,
						"NORMAL":9,
						"TEXCOORD_0":10
					},
					"indices":11,
					"material":2
				}
			]
		},
		{
			"name":"Mesh_2.023",
			"primitives":[
				{
					"attributes":{
						"POSITION":12,
						"NORMAL":13,
						"TEXCOORD_0":14
					},
					"indices":15,
					"material":3
				}
			]
		},
		{
			"name":"Mesh_0.015",
			"primitives":[
				{
					"attributes":{
						"POSITION":16,
						"NORMAL":17,
						"TEXCOORD_0":18
					},
					"indices":19,
					"material":4
				}
			]
		},
		{
			"name":"Mesh_3.015",
			"primitives":[
				{
					"attributes":{
						"POSITION":20,
						"NORMAL":21,
						"TEXCOORD_0":22
					},
					"indices":23,
					"material":5
				}
			]
		}
	],
	"accessors":[
		{
			"bufferView":0,
			"componentType":5126,
			"count":1806,
			"max":[
				-0.012244665063917637,
				0.3985138237476349,
				0.052656348794698715
			],
			"min":[
				-0.01401112973690033,
				0.3965853154659271,
				0.0508258193731308
			],
			"type":"VEC3"
		},
		{
			"bufferView":1,
			"componentType":5126,
			"count":1806,
			"type":"VEC3"
		},
		{
			"bufferView":2,
			"componentType":5126,
			"count":1806,
			"type":"VEC2"
		},
		{
			"bufferView":3,
			"componentType":5123,
			"count":5184,
			"type":"SCALAR"
		},
		{
			"bufferView":4,
			"componentType":5126,
			"count":2148,
			"max":[
				0.07562947273254395,
				0.4722888767719269,
				0.06703158468008041
			],
			"min":[
				-0.07312724739313126,
				0.3824496269226074,
				-0.08219312131404877
			],
			"type":"VEC3"
		},
		{
			"bufferView":5,
			"componentType":5126,
			"count":2148,
			"type":"VEC3"
		},
		{
			"bufferView":6,
			"componentType":5126,
			"count":2148,
			"type":"VEC2"
		},
		{
			"bufferView":7,
			"componentType":5123,
			"count":11820,
			"type":"SCALAR"
		},
		{
			"bufferView":8,
			"componentType":5126,
			"count":1312,
			"max":[
				0.07428225874900818,
				0.47179049253463745,
				0.06597598642110825
			],
			"min":[
				-0.07183976471424103,
				0.3832572102546692,
				-0.0809563472867012
			],
			"type":"VEC3"
		},
		{
			"bufferView":9,
			"componentType":5126,
			"count":1312,
			"type":"VEC3"
		},
		{
			"bufferView":10,
			"componentType":5126,
			"count":1312,
			"type":"VEC2"
		},
		{
			"bufferView":11,
			"componentType":5123,
			"count":6828,
			"type":"SCALAR"
		},
		{
			"bufferView":12,
			"componentType":5126,
			"count":3807,
			"max":[
				0.08581672608852386,
				0.4764029383659363,
				0.06062725931406021
			],
			"min":[
				-0.08286172896623611,
				0.37943583726882935,
				-0.08674231171607971
			],
			"type":"VEC3"
		},
		{
			"bufferView":13,
			"componentType":5126,
			"count":3807,
			"type":"VEC3"
		},
		{
			"bufferView":14,
			"componentType":5126,
			"count":3807,
			"type":"VEC2"
		},
		{
			"bufferView":15,
			"componentType":5123,
			"count":22599,
			"type":"SCALAR"
		},
		{
			"bufferView":16,
			"componentType":5126,
			"count":1081,
			"max":[
				-0.00872138049453497,
				0.39943450689315796,
				0.055910222232341766
			],
			"min":[
				-0.016770564019680023,
				0.39219141006469727,
				0.04926875978708267
			],
			"type":"VEC3"
		},
		{
			"bufferView":17,
			"componentType":5126,
			"count":1081,
			"type":"VEC3"
		},
		{
			"bufferView":18,
			"componentType":5126,
			"count":1081,
			"type":"VEC2"
		},
		{
			"bufferView":19,
			"componentType":5123,
			"count":3738,
			"type":"SCALAR"
		},
		{
			"bufferView":20,
			"componentType":5126,
			"count":21,
			"max":[
				0.025027086958289146,
				0.39791494607925415,
				0.0639275461435318
			],
			"min":[
				0.017164042219519615,
				0.39422115683555603,
				0.0558837428689003
			],
			"type":"VEC3"
		},
		{
			"bufferView":21,
			"componentType":5126,
			"count":21,
			"type":"VEC3"
		},
		{
			"bufferView":22,
			"componentType":5126,
			"count":21,
			"type":"VEC2"
		},
		{
			"bufferView":23,
			"componentType":5123,
			"count":66,
			"type":"SCALAR"
		}
	],
	"bufferViews":[
		{
			"buffer":0,
			"byteLength":21672,
			"byteOffset":0,
			"target":34962
		},
		{
			"buffer":0,
			"byteLength":21672,
			"byteOffset":21672,
			"target":34962
		},
		{
			"buffer":0,
			"byteLength":14448,
			"byteOffset":43344,
			"target":34962
		},
		{
			"buffer":0,
			"byteLength":10368,
			"byteOffset":57792,
			"target":34963
		},
		{
			"buffer":0,
			"byteLength":25776,
			"byteOffset":68160,
			"target":34962
		},
		{
			"buffer":0,
			"byteLength":25776,
			"byteOffset":93936,
			"target":34962
		},
		{
			"buffer":0,
			"byteLength":17184,
			"byteOffset":119712,
			"target":34962
		},
		{
			"buffer":0,
			"byteLength":23640,
			"byteOffset":136896,
			"target":34963
		},
		{
			"buffer":0,
			"byteLength":15744,
			"byteOffset":160536,
			"target":34962
		},
		{
			"buffer":0,
			"byteLength":15744,
			"byteOffset":176280,
			"target":34962
		},
		{
			"buffer":0,
			"byteLength":10496,
			"byteOffset":192024,
			"target":34962
		},
		{
			"buffer":0,
			"byteLength":13656,
			"byteOffset":202520,
			"target":34963
		},
		{
			"buffer":0,
			"byteLength":45684,
			"byteOffset":216176,
			"target":34962
		},
		{
			"buffer":0,
			"byteLength":45684,
			"byteOffset":261860,
			"target":34962
		},
		{
			"buffer":0,
			"byteLength":30456,
			"byteOffset":307544,
			"target":34962
		},
		{
			"buffer":0,
			"byteLength":45198,
			"byteOffset":338000,
			"target":34963
		},
		{
			"buffer":0,
			"byteLength":12972,
			"byteOffset":383200,
			"target":34962
		},
		{
			"buffer":0,
			"byteLength":12972,
			"byteOffset":396172,
			"target":34962
		},
		{
			"buffer":0,
			"byteLength":8648,
			"byteOffset":409144,
			"target":34962
		},
		{
			"buffer":0,
			"byteLength":7476,
			"byteOffset":417792,
			"target":34963
		},
		{
			"buffer":0,
			"byteLength":252,
			"byteOffset":425268,
			"target":34962
		},
		{
			"buffer":0,
			"byteLength":252,
			"byteOffset":425520,
			"target":34962
		},
		{
			"buffer":0,
			"byteLength":168,
			"byteOffset":425772,
			"target":34962
		},
		{
			"buffer":0,
			"byteLength":132,
			"byteOffset":425940,
			"target":34963
		}
	],
	"buffers":[
		{
			"byteLength":426072,
			"uri":"Kent.bin"
		}
	]
}
