{
	"asset":{
		"generator":"Khronos glTF Blender I/O v4.5.47",
		"version":"2.0"
	},
	"scene":0,
	"scenes":[
		{
			"name":"Scene",
			"nodes":[
				0,
				1,
				2,
				3,
				4
			]
		}
	],
	"nodes":[
		{
			"mesh":0,
			"name":"Label-OJBrown002",
			"rotation":[
				-0.0025758687406778336,
				-0.8917681574821472,
				0.01680780202150345,
				0.45217299461364746
			],
			"scale":[
				0.0523095428943634,
				0.05230952799320221,
				0.052309550344944
			],
			"translation":[
				0.6533886194229126,
				0.08238327503204346,
				0.46421483159065247
			]
		},
		{
			"mesh":1,
			"name":"LiningTriangle002",
			"rotation":[
				-0.70710688829422,
				0,
				0,
				0.7071066498756409
			],
			"scale":[
				0.05230952799320221,
				0.052309535443782806,
				0.052309535443782806
			],
			"translation":[
				0.5139636397361755,
				0.4694939851760864,
				0.5162606239318848
			]
		},
		{
			"mesh":2,
			"name":"PocketLining-UpperLeft002",
			"rotation":[
				-0.6966171264648438,
				0.019245604053139687,
				-0.014112701639533043,
				0.7170461416244507
			],
			"scale":[
				0.05230953171849251,
				0.0523095428943634,
				0.05230953171849251
			],
			"translation":[
				-0.4943541884422302,
				0.5904909372329712,
				0.5202038288116455
			]
		},
		{
			"mesh":3,
			"name":"PocketLining-UpperRight002",
			"rotation":[
				-0.70710688829422,
				0,
				0,
				0.7071066498756409
			],
			"scale":[
				0.05230952799320221,
				0.052309535443782806,
				0.052309535443782806
			],
			"translation":[
				0.49980881810188293,
				0.5748882293701172,
				0.5064444541931152
			]
		},
		{
			"mesh":4,
			"name":"Lining-Half",
			"rotation":[
				-0.70710688829422,
				0,
				0,
				0.7071066498756409
			],
			"scale":[
				0.052966900169849396,
				0.05063660442829132,
				0.05684762820601463
			],
			"translation":[
				-0.0032632946968078613,
				-2.0115318298339844,
				0.2620429992675781
			]
		}
	],
	"materials":[
		{
			"doubleSided":true,
			"name":"Material",
			"pbrMetallicRoughness":{
				"baseColorFactor":[
					1,
					1,
					1,
					1
				],
				"metallicFactor":0,
				"roughnessFactor":0.5
			}
		}
	],
	"meshes":[
		{
			"name":"Mesh_0",
			"primitives":[
				{
					"attributes":{
						"POSITION":0,
						"NORMAL":1,
						"TEXCOORD_0":2,
						"TEXCOORD_1":3,
						"COLOR_0":4,
						"COLOR_1":5
					},
					"indices":6,
					"material":0
				}
			]
		},
		{
			"name":"Mesh_1",
			"primitives":[
				{
					"attributes":{
						"POSITION":7,
						"NORMAL":8,
						"TEXCOORD_0":9,
						"TEXCOORD_1":10,
						"COLOR_0":11,
						"COLOR_1":12
					},
					"indices":13,
					"material":0
				}
			]
		},
		{
			"name":"Mesh_2",
			"primitives":[
				{
					"attributes":{
						"POSITION":14,
						"NORMAL":15,
						"TEXCOORD_0":16,
						"TEXCOORD_1":17,
						"COLOR_0":18,
						"COLOR_1":19
					},
					"indices":20,
					"material":0
				}
			]
		},
		{
			"name":"Mesh_3",
			"primitives":[
				{
					"attributes":{
						"POSITION":21,
						"NORMAL":22,
						"TEXCOORD_0":23,
						"TEXCOORD_1":24,
						"COLOR_0":25,
						"COLOR_1":26
					},
					"indices":27,
					"material":0
				}
			]
		},
		{
			"name":"Mesh_4",
			"primitives":[
				{
					"attributes":{
						"POSITION":28,
						"NORMAL":29,
						"TEXCOORD_0":30,
						"TEXCOORD_1":31,
						"COLOR_0":32,
						"COLOR_1":33
					},
					"indices":34,
					"material":0
				}
			]
		}
	],
	"accessors":[
		{
			"bufferView":0,
			"componentType":5126,
			"count":20,
			"max":[
				3.599618673324585,
				2.35589337348938,
				0.2623215615749359
			],
			"min":[
				-3.5862441062927246,
				-2.35589337348938,
				-0.05095807835459709
			],
			"type":"VEC3"
		},
		{
			"bufferView":1,
			"componentType":5126,
			"count":20,
			"type":"VEC3"
		},
		{
			"bufferView":2,
			"componentType":5126,
			"count":20,
			"type":"VEC2"
		},
		{
			"bufferView":3,
			"componentType":5126,
			"count":20,
			"type":"VEC2"
		},
		{
			"bufferView":4,
			"componentType":5121,
			"count":20,
			"normalized":true,
			"type":"VEC4"
		},
		{
			"bufferView":5,
			"componentType":5123,
			"count":20,
			"normalized":true,
			"type":"VEC4"
		},
		{
			"bufferView":6,
			"componentType":5123,
			"count":72,
			"type":"SCALAR"
		},
		{
			"bufferView":7,
			"componentType":5126,
			"count":36,
			"max":[
				3.207735061645508,
				3.4051671028137207,
				2.1774024963378906
			],
			"min":[
				-3.054697036743164,
				-3.614381790161133,
				-2.177398681640625
			],
			"type":"VEC3"
		},
		{
			"bufferView":8,
			"componentType":5126,
			"count":36,
			"type":"VEC3"
		},
		{
			"bufferView":9,
			"componentType":5126,
			"count":36,
			"type":"VEC2"
		},
		{
			"bufferView":10,
			"componentType":5126,
			"count":36,
			"type":"VEC2"
		},
		{
			"bufferView":11,
			"componentType":5121,
			"count":36,
			"normalized":true,
			"type":"VEC4"
		},
		{
			"bufferView":12,
			"componentType":5123,
			"count":36,
			"normalized":true,
			"type":"VEC4"
		},
		{
			"bufferView":13,
			"componentType":5123,
			"count":156,
			"type":"SCALAR"
		},
		{
			"bufferView":14,
			"componentType":5126,
			"count":80,
			"max":[
				5.5303144454956055,
				3.5806188583374023,
				0.5467300415039062
			],
			"min":[
				-5.2757720947265625,
				-4.157670974731445,
				-1.2143478393554688
			],
			"type":"VEC3"
		},
		{
			"bufferView":15,
			"componentType":5126,
			"count":80,
			"type":"VEC3"
		},
		{
			"bufferView":16,
			"componentType":5126,
			"count":80,
			"type":"VEC2"
		},
		{
			"bufferView":17,
			"componentType":5126,
			"count":80,
			"type":"VEC2"
		},
		{
			"bufferView":18,
			"componentType":5121,
			"count":80,
			"normalized":true,
			"type":"VEC4"
		},
		{
			"bufferView":19,
			"componentType":5123,
			"count":80,
			"normalized":true,
			"type":"VEC4"
		},
		{
			"bufferView":20,
			"componentType":5123,
			"count":348,
			"type":"SCALAR"
		},
		{
			"bufferView":21,
			"componentType":5126,
			"count":72,
			"max":[
				4.213440895080566,
				4.514888286590576,
				0.9586563110351562
			],
			"min":[
				-4.231752872467041,
				-4.5329742431640625,
				-0.9586563110351562
			],
			"type":"VEC3"
		},
		{
			"bufferView":22,
			"componentType":5126,
			"count":72,
			"type":"VEC3"
		},
		{
			"bufferView":23,
			"componentType":5126,
			"count":72,
			"type":"VEC2"
		},
		{
			"bufferView":24,
			"componentType":5126,
			"count":72,
			"type":"VEC2"
		},
		{
			"bufferView":25,
			"componentType":5121,
			"count":72,
			"normalized":true,
			"type":"VEC4"
		},
		{
			"bufferView":26,
			"componentType":5123,
			"count":72,
			"normalized":true,
			"type":"VEC4"
		},
		{
			"bufferView":27,
			"componentType":5123,
			"count":312,
			"type":"SCALAR"
		},
		{
			"bufferView":28,
			"componentType":5126,
			"count":1640,
			"max":[
				22.9205379486084,
				15.008049011230469,
				71.7383804321289
			],
			"min":[
				-21.616939544677734,
				-8.919333457946777,
				7.3338775634765625
			],
			"type":"VEC3"
		},
		{
			"bufferView":29,
			"componentType":5126,
			"count":1640,
			"type":"VEC3"
		},
		{
			"bufferView":30,
			"componentType":5126,
			"count":1640,
			"type":"VEC2"
		},
		{
			"bufferView":31,
			"componentType":5126,
			"count":1640,
			"type":"VEC2"
		},
		{
			"bufferView":32,
			"componentType":5121,
			"count":1640,
			"normalized":true,
			"type":"VEC4"
		},
		{
			"bufferView":33,
			"componentType":5123,
			"count":1640,
			"normalized":true,
			"type":"VEC4"
		},
		{
			"bufferView":34,
			"componentType":5123,
			"count":8646,
			"type":"SCALAR"
		}
	],
	"bufferViews":[
		{
			"buffer":0,
			"byteLength":240,
			"byteOffset":0,
			"target":34962
		},
		{
			"buffer":0,
			"byteLength":240,
			"byteOffset":240,
			"target":34962
		},
		{
			"buffer":0,
			"byteLength":160,
			"byteOffset":480,
			"target":34962
		},
		{
			"buffer":0,
			"byteLength":160,
			"byteOffset":640,
			"target":34962
		},
		{
			"buffer":0,
			"byteLength":80,
			"byteOffset":800,
			"target":34962
		},
		{
			"buffer":0,
			"byteLength":160,
			"byteOffset":880,
			"target":34962
		},
		{
			"buffer":0,
			"byteLength":144,
			"byteOffset":1040,
			"target":34963
		},
		{
			"buffer":0,
			"byteLength":432,
			"byteOffset":1184,
			"target":34962
		},
		{
			"buffer":0,
			"byteLength":432,
			"byteOffset":1616,
			"target":34962
		},
		{
			"buffer":0,
			"byteLength":288,
			"byteOffset":2048,
			"target":34962
		},
		{
			"buffer":0,
			"byteLength":288,
			"byteOffset":2336,
			"target":34962
		},
		{
			"buffer":0,
			"byteLength":144,
			"byteOffset":2624,
			"target":34962
		},
		{
			"buffer":0,
			"byteLength":288,
			"byteOffset":2768,
			"target":34962
		},
		{
			"buffer":0,
			"byteLength":312,
			"byteOffset":3056,
			"target":34963
		},
		{
			"buffer":0,
			"byteLength":960,
			"byteOffset":3368,
			"target":34962
		},
		{
			"buffer":0,
			"byteLength":960,
			"byteOffset":4328,
			"target":34962
		},
		{
			"buffer":0,
			"byteLength":640,
			"byteOffset":5288,
			"target":34962
		},
		{
			"buffer":0,
			"byteLength":640,
			"byteOffset":5928,
			"target":34962
		},
		{
			"buffer":0,
			"byteLength":320,
			"byteOffset":6568,
			"target":34962
		},
		{
			"buffer":0,
			"byteLength":640,
			"byteOffset":6888,
			"target":34962
		},
		{
			"buffer":0,
			"byteLength":696,
			"byteOffset":7528,
			"target":34963
		},
		{
			"buffer":0,
			"byteLength":864,
			"byteOffset":8224,
			"target":34962
		},
		{
			"buffer":0,
			"byteLength":864,
			"byteOffset":9088,
			"target":34962
		},
		{
			"buffer":0,
			"byteLength":576,
			"byteOffset":9952,
			"target":34962
		},
		{
			"buffer":0,
			"byteLength":576,
			"byteOffset":10528,
			"target":34962
		},
		{
			"buffer":0,
			"byteLength":288,
			"byteOffset":11104,
			"target":34962
		},
		{
			"buffer":0,
			"byteLength":576,
			"byteOffset":11392,
			"target":34962
		},
		{
			"buffer":0,
			"byteLength":624,
			"byteOffset":11968,
			"target":34963
		},
		{
			"buffer":0,
			"byteLength":19680,
			"byteOffset":12592,
			"target":34962
		},
		{
			"buffer":0,
			"byteLength":19680,
			"byteOffset":32272,
			"target":34962
		},
		{
			"buffer":0,
			"byteLength":13120,
			"byteOffset":51952,
			"target":34962
		},
		{
			"buffer":0,
			"byteLength":13120,
			"byteOffset":65072,
			"target":34962
		},
		{
			"buffer":0,
			"byteLength":6560,
			"byteOffset":78192,
			"target":34962
		},
		{
			"buffer":0,
			"byteLength":13120,
			"byteOffset":84752,
			"target":34962
		},
		{
			"buffer":0,
			"byteLength":17292,
			"byteOffset":97872,
			"target":34963
		}
	],
	"buffers":[
		{
			"byteLength":115164,
			"uri":"Halfed-lining.bin"
		}
	]
}
