{
	"asset":{
		"generator":"Khronos glTF Blender I/O v5.1.20",
		"version":"2.0"
	},
	"scene":0,
	"scenes":[
		{
			"name":"Scene",
			"nodes":[
				0,
				1,
				2,
				3
			]
		}
	],
	"nodes":[
		{
			"mesh":0,
			"name":"Shirt.001",
			"rotation":[
				0.70710688829422,
				0,
				0,
				0.7071066498756409
			],
			"scale":[
				0.009999999776482582,
				0.009999998845160007,
				0.009999998845160007
			],
			"translation":[
				0,
				0.001659465953707695,
				-0.08006347715854645
			]
		},
		{
			"name":"Asole",
			"translation":[
				-0.0013892288552597165,
				0.11486297845840454,
				-0.004479778464883566
			]
		},
		{
			"mesh":1,
			"name":"Filobottoni.001",
			"translation":[
				0,
				0.08135128021240234,
				0.0284249410033226
			]
		},
		{
			"mesh":2,
			"name":"Bottoni.002",
			"translation":[
				0,
				0.08135128021240234,
				0.0284249410033226
			]
		}
	],
	"materials":[
		{
			"doubleSided":true,
			"name":"shirt_MAT.003",
			"pbrMetallicRoughness":{
				"metallicFactor":0,
				"roughnessFactor":0.5
			}
		},
		{
			"name":"FIlobottoni.010"
		},
		{
			"name":"Bottone.010"
		}
	],
	"meshes":[
		{
			"name":"Mesh.003",
			"primitives":[
				{
					"attributes":{
						"POSITION":0,
						"NORMAL":1,
						"TEXCOORD_0":2
					},
					"indices":3,
					"material":0
				}
			]
		},
		{
			"name":"Mesh_3.011",
			"primitives":[
				{
					"attributes":{
						"POSITION":4,
						"NORMAL":5,
						"TEXCOORD_0":6
					},
					"indices":7,
					"material":1
				}
			]
		},
		{
			"name":"Mesh_0.011",
			"primitives":[
				{
					"attributes":{
						"POSITION":8,
						"NORMAL":9,
						"TEXCOORD_0":10
					},
					"indices":11,
					"material":2
				}
			]
		}
	],
	"accessors":[
		{
			"bufferView":0,
			"componentType":5126,
			"count":11600,
			"max":[
				21.19205665588379,
				23.2615909576416,
				30.422954559326172
			],
			"min":[
				-20.846790313720703,
				3.665025472640991,
				-45.2166633605957
			],
			"type":"VEC3"
		},
		{
			"bufferView":1,
			"componentType":5126,
			"count":11600,
			"type":"VEC3"
		},
		{
			"bufferView":2,
			"componentType":5126,
			"count":11600,
			"type":"VEC2"
		},
		{
			"bufferView":3,
			"componentType":5123,
			"count":64779,
			"type":"SCALAR"
		},
		{
			"bufferView":4,
			"componentType":5126,
			"count":12145,
			"max":[
				0.014546617865562439,
				0.27859336137771606,
				0.1248578205704689
			],
			"min":[
				0.009897133335471153,
				-0.2678963243961334,
				0.04547866806387901
			],
			"type":"VEC3"
		},
		{
			"bufferView":5,
			"componentType":5126,
			"count":12145,
			"type":"VEC3"
		},
		{
			"bufferView":6,
			"componentType":5126,
			"count":12145,
			"type":"VEC2"
		},
		{
			"bufferView":7,
			"componentType":5123,
			"count":29883,
			"type":"SCALAR"
		},
		{
			"bufferView":8,
			"componentType":5126,
			"count":5908,
			"max":[
				0.01903257519006729,
				0.2824423015117645,
				0.12523306906223297
			],
			"min":[
				0.005317561328411102,
				-0.27249279618263245,
				0.04246409982442856
			],
			"type":"VEC3"
		},
		{
			"bufferView":9,
			"componentType":5126,
			"count":5908,
			"type":"VEC3"
		},
		{
			"bufferView":10,
			"componentType":5126,
			"count":5908,
			"type":"VEC2"
		},
		{
			"bufferView":11,
			"componentType":5123,
			"count":19236,
			"type":"SCALAR"
		}
	],
	"bufferViews":[
		{
			"buffer":0,
			"byteLength":139200,
			"byteOffset":0,
			"target":34962
		},
		{
			"buffer":0,
			"byteLength":139200,
			"byteOffset":139200,
			"target":34962
		},
		{
			"buffer":0,
			"byteLength":92800,
			"byteOffset":278400,
			"target":34962
		},
		{
			"buffer":0,
			"byteLength":129558,
			"byteOffset":371200,
			"target":34963
		},
		{
			"buffer":0,
			"byteLength":145740,
			"byteOffset":500760,
			"target":34962
		},
		{
			"buffer":0,
			"byteLength":145740,
			"byteOffset":646500,
			"target":34962
		},
		{
			"buffer":0,
			"byteLength":97160,
			"byteOffset":792240,
			"target":34962
		},
		{
			"buffer":0,
			"byteLength":59766,
			"byteOffset":889400,
			"target":34963
		},
		{
			"buffer":0,
			"byteLength":70896,
			"byteOffset":949168,
			"target":34962
		},
		{
			"buffer":0,
			"byteLength":70896,
			"byteOffset":1020064,
			"target":34962
		},
		{
			"buffer":0,
			"byteLength":47264,
			"byteOffset":1090960,
			"target":34962
		},
		{
			"buffer":0,
			"byteLength":38472,
			"byteOffset":1138224,
			"target":34963
		}
	],
	"buffers":[
		{
			"byteLength":1176696,
			"uri":"French.bin"
		}
	]
}
