{
	"asset":{
		"generator":"Khronos glTF Blender I/O v4.5.47",
		"version":"2.0"
	},
	"scene":0,
	"scenes":[
		{
			"name":"Scene",
			"nodes":[
				0,
				1,
				2
			]
		}
	],
	"nodes":[
		{
			"mesh":0,
			"name":"Tessuto",
			"translation":[
				0,
				0,
				-0.0010971402516588569
			]
		},
		{
			"mesh":1,
			"name":"Filobottone.001",
			"rotation":[
				-0.6248955726623535,
				0,
				0,
				0.780708372592926
			],
			"translation":[
				-0.1026533916592598,
				0.40436214208602905,
				-0.13213521242141724
			]
		},
		{
			"mesh":2,
			"name":"Bottone.001",
			"rotation":[
				-0.6248955726623535,
				0,
				0,
				0.780708372592926
			],
			"translation":[
				-0.1026533916592598,
				0.40436214208602905,
				-0.13213521242141724
			]
		}
	],
	"materials":[
		{
			"name":"default.014"
		},
		{
			"name":"Filobottoni.002"
		},
		{
			"name":"Bottone.002"
		}
	],
	"meshes":[
		{
			"name":"Tessuto.010",
			"primitives":[
				{
					"attributes":{
						"POSITION":0,
						"NORMAL":1,
						"TEXCOORD_0":2
					},
					"indices":3,
					"material":0
				}
			]
		},
		{
			"name":"Mesh_0.002",
			"primitives":[
				{
					"attributes":{
						"POSITION":4,
						"NORMAL":5,
						"TEXCOORD_0":6
					},
					"indices":7,
					"material":1
				}
			]
		},
		{
			"name":"Mesh_1.002",
			"primitives":[
				{
					"attributes":{
						"POSITION":8,
						"NORMAL":9,
						"TEXCOORD_0":10
					},
					"indices":11,
					"material":2
				}
			]
		}
	],
	"accessors":[
		{
			"bufferView":0,
			"componentType":5126,
			"count":272,
			"max":[
				0.13749858736991882,
				0.4381332993507385,
				-0.07496969401836395
			],
			"min":[
				-0.14515134692192078,
				0.41576433181762695,
				-0.13669149577617645
			],
			"type":"VEC3"
		},
		{
			"bufferView":1,
			"componentType":5126,
			"count":272,
			"type":"VEC3"
		},
		{
			"bufferView":2,
			"componentType":5126,
			"count":272,
			"type":"VEC2"
		},
		{
			"bufferView":3,
			"componentType":5123,
			"count":624,
			"type":"SCALAR"
		},
		{
			"bufferView":4,
			"componentType":5126,
			"count":2068,
			"max":[
				0.2058977484703064,
				-0.006461722310632467,
				0.004728908184915781
			],
			"min":[
				-0.0022512399591505527,
				-0.011203490197658539,
				0.00010350183583796024
			],
			"type":"VEC3"
		},
		{
			"bufferView":5,
			"componentType":5126,
			"count":2068,
			"type":"VEC3"
		},
		{
			"bufferView":6,
			"componentType":5126,
			"count":2068,
			"type":"VEC2"
		},
		{
			"bufferView":7,
			"componentType":5123,
			"count":4176,
			"type":"SCALAR"
		},
		{
			"bufferView":8,
			"componentType":5126,
			"count":1535,
			"max":[
				0.211418017745018,
				-0.002701687626540661,
				0.01011808030307293
			],
			"min":[
				-0.007731322664767504,
				-0.014011869207024574,
				-0.005542336963117123
			],
			"type":"VEC3"
		},
		{
			"bufferView":9,
			"componentType":5126,
			"count":1535,
			"type":"VEC3"
		},
		{
			"bufferView":10,
			"componentType":5126,
			"count":1535,
			"type":"VEC2"
		},
		{
			"bufferView":11,
			"componentType":5123,
			"count":5280,
			"type":"SCALAR"
		}
	],
	"bufferViews":[
		{
			"buffer":0,
			"byteLength":3264,
			"byteOffset":0,
			"target":34962
		},
		{
			"buffer":0,
			"byteLength":3264,
			"byteOffset":3264,
			"target":34962
		},
		{
			"buffer":0,
			"byteLength":2176,
			"byteOffset":6528,
			"target":34962
		},
		{
			"buffer":0,
			"byteLength":1248,
			"byteOffset":8704,
			"target":34963
		},
		{
			"buffer":0,
			"byteLength":24816,
			"byteOffset":9952,
			"target":34962
		},
		{
			"buffer":0,
			"byteLength":24816,
			"byteOffset":34768,
			"target":34962
		},
		{
			"buffer":0,
			"byteLength":16544,
			"byteOffset":59584,
			"target":34962
		},
		{
			"buffer":0,
			"byteLength":8352,
			"byteOffset":76128,
			"target":34963
		},
		{
			"buffer":0,
			"byteLength":18420,
			"byteOffset":84480,
			"target":34962
		},
		{
			"buffer":0,
			"byteLength":18420,
			"byteOffset":102900,
			"target":34962
		},
		{
			"buffer":0,
			"byteLength":12280,
			"byteOffset":121320,
			"target":34962
		},
		{
			"buffer":0,
			"byteLength":10560,
			"byteOffset":133600,
			"target":34963
		}
	],
	"buffers":[
		{
			"byteLength":144160,
			"uri":"Buttonedweltpocket.bin"
		}
	]
}
