{
	"asset":{
		"generator":"Khronos glTF Blender I/O v4.5.47",
		"version":"2.0"
	},
	"scene":0,
	"scenes":[
		{
			"name":"Scene",
			"nodes":[
				0
			]
		}
	],
	"nodes":[
		{
			"mesh":0,
			"name":"S14.011",
			"rotation":[
				0.6644479632377625,
				0,
				0,
				0.7473345398902893
			],
			"scale":[
				0.014908064156770706,
				0.014908064156770706,
				0.014908064156770706
			],
			"translation":[
				0.0010646888986229897,
				0.23977041244506836,
				-0.00588679825887084
			]
		}
	],
	"materials":[
		{
			"doubleSided":true,
			"name":"Material.070",
			"pbrMetallicRoughness":{
				"metallicFactor":0.2116161584854126,
				"roughnessFactor":0.3400673270225525
			}
		},
		{
			"name":"default.025"
		},
		{
			"name":"default.026"
		}
	],
	"meshes":[
		{
			"name":"S14_Circle.002",
			"primitives":[
				{
					"attributes":{
						"POSITION":0,
						"NORMAL":1,
						"TEXCOORD_0":2
					},
					"indices":3,
					"material":0
				},
				{
					"attributes":{
						"POSITION":4,
						"NORMAL":5,
						"TEXCOORD_0":6
					},
					"indices":7,
					"material":1
				},
				{
					"attributes":{
						"POSITION":8,
						"NORMAL":9,
						"TEXCOORD_0":10
					},
					"indices":11,
					"material":2
				}
			]
		}
	],
	"accessors":[
		{
			"bufferView":0,
			"componentType":5126,
			"count":2278,
			"max":[
				7.25166130065918,
				-7.362811088562012,
				-11.382503509521484
			],
			"min":[
				6.400074005126953,
				-7.8806681632995605,
				-12.27724552154541
			],
			"type":"VEC3"
		},
		{
			"bufferView":1,
			"componentType":5126,
			"count":2278,
			"type":"VEC3"
		},
		{
			"bufferView":2,
			"componentType":5126,
			"count":2278,
			"type":"VEC2"
		},
		{
			"bufferView":3,
			"componentType":5123,
			"count":6192,
			"type":"SCALAR"
		},
		{
			"bufferView":4,
			"componentType":5126,
			"count":672,
			"max":[
				9.759805679321289,
				-3.2084062099456787,
				-10.96288013458252
			],
			"min":[
				2.847241163253784,
				-8.029290199279785,
				-14.349921226501465
			],
			"type":"VEC3"
		},
		{
			"bufferView":5,
			"componentType":5126,
			"count":672,
			"type":"VEC3"
		},
		{
			"bufferView":6,
			"componentType":5126,
			"count":672,
			"type":"VEC2"
		},
		{
			"bufferView":7,
			"componentType":5123,
			"count":3408,
			"type":"SCALAR"
		},
		{
			"bufferView":8,
			"componentType":5126,
			"count":260,
			"max":[
				6.971717357635498,
				-7.5503058433532715,
				-11.707395553588867
			],
			"min":[
				6.7072529792785645,
				-7.772005081176758,
				-11.958242416381836
			],
			"type":"VEC3"
		},
		{
			"bufferView":9,
			"componentType":5126,
			"count":260,
			"type":"VEC3"
		},
		{
			"bufferView":10,
			"componentType":5126,
			"count":260,
			"type":"VEC2"
		},
		{
			"bufferView":11,
			"componentType":5123,
			"count":1296,
			"type":"SCALAR"
		}
	],
	"bufferViews":[
		{
			"buffer":0,
			"byteLength":27336,
			"byteOffset":0,
			"target":34962
		},
		{
			"buffer":0,
			"byteLength":27336,
			"byteOffset":27336,
			"target":34962
		},
		{
			"buffer":0,
			"byteLength":18224,
			"byteOffset":54672,
			"target":34962
		},
		{
			"buffer":0,
			"byteLength":12384,
			"byteOffset":72896,
			"target":34963
		},
		{
			"buffer":0,
			"byteLength":8064,
			"byteOffset":85280,
			"target":34962
		},
		{
			"buffer":0,
			"byteLength":8064,
			"byteOffset":93344,
			"target":34962
		},
		{
			"buffer":0,
			"byteLength":5376,
			"byteOffset":101408,
			"target":34962
		},
		{
			"buffer":0,
			"byteLength":6816,
			"byteOffset":106784,
			"target":34963
		},
		{
			"buffer":0,
			"byteLength":3120,
			"byteOffset":113600,
			"target":34962
		},
		{
			"buffer":0,
			"byteLength":3120,
			"byteOffset":116720,
			"target":34962
		},
		{
			"buffer":0,
			"byteLength":2080,
			"byteOffset":119840,
			"target":34962
		},
		{
			"buffer":0,
			"byteLength":2592,
			"byteOffset":121920,
			"target":34963
		}
	],
	"buffers":[
		{
			"byteLength":124512,
			"uri":"Flap.bin"
		}
	]
}
