{
	"asset":{
		"generator":"Khronos glTF Blender I/O v4.5.47",
		"version":"2.0"
	},
	"scene":0,
	"scenes":[
		{
			"name":"Scene",
			"nodes":[
				0
			]
		}
	],
	"nodes":[
		{
			"mesh":0,
			"name":"Modern Flap With Button Both",
			"scale":[
				0.19602468609809875,
				0.19602468609809875,
				0.19602468609809875
			],
			"translation":[
				0,
				0.2093350887298584,
				-0.012716579250991344
			]
		}
	],
	"meshes":[
		{
			"name":"Plane.002",
			"primitives":[
				{
					"attributes":{
						"POSITION":0,
						"NORMAL":1,
						"TEXCOORD_0":2
					},
					"indices":3
				}
			]
		}
	],
	"accessors":[
		{
			"bufferView":0,
			"componentType":5126,
			"count":1254,
			"max":[
				0.7875380516052246,
				1.2092771530151367,
				-0.30562320351600647
			],
			"min":[
				-0.7875380516052246,
				0.5617496371269226,
				-0.6642637252807617
			],
			"type":"VEC3"
		},
		{
			"bufferView":1,
			"componentType":5126,
			"count":1254,
			"type":"VEC3"
		},
		{
			"bufferView":2,
			"componentType":5126,
			"count":1254,
			"type":"VEC2"
		},
		{
			"bufferView":3,
			"componentType":5123,
			"count":6348,
			"type":"SCALAR"
		}
	],
	"bufferViews":[
		{
			"buffer":0,
			"byteLength":15048,
			"byteOffset":0,
			"target":34962
		},
		{
			"buffer":0,
			"byteLength":15048,
			"byteOffset":15048,
			"target":34962
		},
		{
			"buffer":0,
			"byteLength":10032,
			"byteOffset":30096,
			"target":34962
		},
		{
			"buffer":0,
			"byteLength":12696,
			"byteOffset":40128,
			"target":34963
		}
	],
	"buffers":[
		{
			"byteLength":52824,
			"uri":"Patch.bin"
		}
	]
}
