{
	"asset":{
		"generator":"Khronos glTF Blender I/O v4.5.47",
		"version":"2.0"
	},
	"extensionsUsed":[
		"KHR_materials_specular"
	],
	"scene":0,
	"scenes":[
		{
			"name":"Scene",
			"nodes":[
				0
			]
		}
	],
	"nodes":[
		{
			"mesh":0,
			"name":"Tessuto.001",
			"translation":[
				0,
				0,
				-0.0010971402516588569
			]
		}
	],
	"materials":[
		{
			"name":"default.024"
		},
		{
			"doubleSided":true,
			"extensions":{
				"KHR_materials_specular":{
					"specularFactor":0.5165730118751526
				}
			},
			"name":"Material_25"
		}
	],
	"meshes":[
		{
			"name":"Tessuto.013",
			"primitives":[
				{
					"attributes":{
						"POSITION":0,
						"NORMAL":1,
						"TEXCOORD_0":2
					},
					"indices":3,
					"material":0
				},
				{
					"attributes":{
						"POSITION":4,
						"NORMAL":5,
						"TEXCOORD_0":6
					},
					"indices":7,
					"material":1
				}
			]
		}
	],
	"accessors":[
		{
			"bufferView":0,
			"componentType":5126,
			"count":272,
			"max":[
				0.13749858736991882,
				0.4381332993507385,
				-0.07496969401836395
			],
			"min":[
				-0.14515134692192078,
				0.41576433181762695,
				-0.13669149577617645
			],
			"type":"VEC3"
		},
		{
			"bufferView":1,
			"componentType":5126,
			"count":272,
			"type":"VEC3"
		},
		{
			"bufferView":2,
			"componentType":5126,
			"count":272,
			"type":"VEC2"
		},
		{
			"bufferView":3,
			"componentType":5123,
			"count":624,
			"type":"SCALAR"
		},
		{
			"bufferView":4,
			"componentType":5126,
			"count":2016,
			"max":[
				0.04547002911567688,
				0.4338422119617462,
				-0.1346530169248581
			],
			"min":[
				-0.05886385217308998,
				0.42334580421447754,
				-0.14745597541332245
			],
			"type":"VEC3"
		},
		{
			"bufferView":5,
			"componentType":5126,
			"count":2016,
			"type":"VEC3"
		},
		{
			"bufferView":6,
			"componentType":5126,
			"count":2016,
			"type":"VEC2"
		},
		{
			"bufferView":7,
			"componentType":5123,
			"count":10680,
			"type":"SCALAR"
		}
	],
	"bufferViews":[
		{
			"buffer":0,
			"byteLength":3264,
			"byteOffset":0,
			"target":34962
		},
		{
			"buffer":0,
			"byteLength":3264,
			"byteOffset":3264,
			"target":34962
		},
		{
			"buffer":0,
			"byteLength":2176,
			"byteOffset":6528,
			"target":34962
		},
		{
			"buffer":0,
			"byteLength":1248,
			"byteOffset":8704,
			"target":34963
		},
		{
			"buffer":0,
			"byteLength":24192,
			"byteOffset":9952,
			"target":34962
		},
		{
			"buffer":0,
			"byteLength":24192,
			"byteOffset":34144,
			"target":34962
		},
		{
			"buffer":0,
			"byteLength":16128,
			"byteOffset":58336,
			"target":34962
		},
		{
			"buffer":0,
			"byteLength":21360,
			"byteOffset":74464,
			"target":34963
		}
	],
	"buffers":[
		{
			"byteLength":95824,
			"uri":"ZipWelt.bin"
		}
	]
}
