{
	"asset":{
		"generator":"Khronos glTF Blender I/O v5.0.21",
		"version":"2.0"
	},
	"scene":0,
	"scenes":[
		{
			"name":"Scene",
			"nodes":[
				0,
				1,
				2,
				3
			]
		}
	],
	"nodes":[
		{
			"mesh":0,
			"name":"Filobottoni"
		},
		{
			"mesh":1,
			"name":"Tessuto"
		},
		{
			"mesh":2,
			"name":"Bottoni"
		},
		{
			"mesh":3,
			"name":"Asole"
		}
	],
	"meshes":[
		{
			"name":"Mesh_0.004",
			"primitives":[
				{
					"attributes":{
						"POSITION":0,
						"NORMAL":1,
						"TEXCOORD_0":2
					},
					"indices":3
				}
			]
		},
		{
			"name":"Mesh_1.002",
			"primitives":[
				{
					"attributes":{
						"POSITION":4,
						"NORMAL":5,
						"TEXCOORD_0":6
					},
					"indices":7
				}
			]
		},
		{
			"name":"Mesh_2.003",
			"primitives":[
				{
					"attributes":{
						"POSITION":8,
						"NORMAL":9,
						"TEXCOORD_0":10
					},
					"indices":11
				}
			]
		},
		{
			"name":"Mesh_3.003",
			"primitives":[
				{
					"attributes":{
						"POSITION":12,
						"NORMAL":13,
						"TEXCOORD_0":14
					},
					"indices":15
				}
			]
		}
	],
	"accessors":[
		{
			"bufferView":0,
			"componentType":5126,
			"count":12670,
			"max":[
				0.00608209939673543,
				0.24465864896774292,
				0.1315843164920807
			],
			"min":[
				-0.004513815511018038,
				-0.2843617796897888,
				0.06723351776599884
			],
			"type":"VEC3"
		},
		{
			"bufferView":1,
			"componentType":5126,
			"count":12670,
			"type":"VEC3"
		},
		{
			"bufferView":2,
			"componentType":5126,
			"count":12670,
			"type":"VEC2"
		},
		{
			"bufferView":3,
			"componentType":5123,
			"count":36288,
			"type":"SCALAR"
		},
		{
			"bufferView":4,
			"componentType":5126,
			"count":16327,
			"max":[
				0.2128797471523285,
				0.3581485450267792,
				0.13323481380939484
			],
			"min":[
				-0.20922613143920898,
				-0.38352587819099426,
				-0.15336237847805023
			],
			"type":"VEC3"
		},
		{
			"bufferView":5,
			"componentType":5126,
			"count":16327,
			"type":"VEC3"
		},
		{
			"bufferView":6,
			"componentType":5126,
			"count":16327,
			"type":"VEC2"
		},
		{
			"bufferView":7,
			"componentType":5123,
			"count":95433,
			"type":"SCALAR"
		},
		{
			"bufferView":8,
			"componentType":5126,
			"count":7452,
			"max":[
				0.010373897850513458,
				0.2488146424293518,
				0.13164016604423523
			],
			"min":[
				-0.00906134583055973,
				-0.2888062596321106,
				0.06519263982772827
			],
			"type":"VEC3"
		},
		{
			"bufferView":9,
			"componentType":5126,
			"count":7452,
			"type":"VEC3"
		},
		{
			"bufferView":10,
			"componentType":5126,
			"count":7452,
			"type":"VEC2"
		},
		{
			"bufferView":11,
			"componentType":5123,
			"count":26160,
			"type":"SCALAR"
		},
		{
			"bufferView":12,
			"componentType":5126,
			"count":113,
			"max":[
				0.01101965457201004,
				0.25006037950515747,
				0.12883354723453522
			],
			"min":[
				-0.006524322088807821,
				-0.28594738245010376,
				0.06232355162501335
			],
			"type":"VEC3"
		},
		{
			"bufferView":13,
			"componentType":5126,
			"count":113,
			"type":"VEC3"
		},
		{
			"bufferView":14,
			"componentType":5126,
			"count":113,
			"type":"VEC2"
		},
		{
			"bufferView":15,
			"componentType":5123,
			"count":324,
			"type":"SCALAR"
		}
	],
	"bufferViews":[
		{
			"buffer":0,
			"byteLength":152040,
			"byteOffset":0,
			"target":34962
		},
		{
			"buffer":0,
			"byteLength":152040,
			"byteOffset":152040,
			"target":34962
		},
		{
			"buffer":0,
			"byteLength":101360,
			"byteOffset":304080,
			"target":34962
		},
		{
			"buffer":0,
			"byteLength":72576,
			"byteOffset":405440,
			"target":34963
		},
		{
			"buffer":0,
			"byteLength":195924,
			"byteOffset":478016,
			"target":34962
		},
		{
			"buffer":0,
			"byteLength":195924,
			"byteOffset":673940,
			"target":34962
		},
		{
			"buffer":0,
			"byteLength":130616,
			"byteOffset":869864,
			"target":34962
		},
		{
			"buffer":0,
			"byteLength":190866,
			"byteOffset":1000480,
			"target":34963
		},
		{
			"buffer":0,
			"byteLength":89424,
			"byteOffset":1191348,
			"target":34962
		},
		{
			"buffer":0,
			"byteLength":89424,
			"byteOffset":1280772,
			"target":34962
		},
		{
			"buffer":0,
			"byteLength":59616,
			"byteOffset":1370196,
			"target":34962
		},
		{
			"buffer":0,
			"byteLength":52320,
			"byteOffset":1429812,
			"target":34963
		},
		{
			"buffer":0,
			"byteLength":1356,
			"byteOffset":1482132,
			"target":34962
		},
		{
			"buffer":0,
			"byteLength":1356,
			"byteOffset":1483488,
			"target":34962
		},
		{
			"buffer":0,
			"byteLength":904,
			"byteOffset":1484844,
			"target":34962
		},
		{
			"buffer":0,
			"byteLength":648,
			"byteOffset":1485748,
			"target":34963
		}
	],
	"buffers":[
		{
			"byteLength":1486396,
			"uri":"boxplacket.bin"
		}
	]
}
