{
	"asset":{
		"generator":"Khronos glTF Blender I/O v5.0.21",
		"version":"2.0"
	},
	"scene":0,
	"scenes":[
		{
			"name":"Scene",
			"nodes":[
				0,
				1,
				2,
				3,
				4
			]
		}
	],
	"nodes":[
		{
			"mesh":0,
			"name":"Filobottoni"
		},
		{
			"mesh":1,
			"name":"Bottoni",
			"translation":[
				-3.200378341716714e-05,
				-0.0001539282820886001,
				-0.0010133706964552402
			]
		},
		{
			"mesh":2,
			"name":"Asole.001"
		},
		{
			"mesh":3,
			"name":"Tessuto.002",
			"translation":[
				0,
				0,
				-0.06235741823911667
			]
		},
		{
			"mesh":4,
			"name":"Tessuto"
		}
	],
	"meshes":[
		{
			"name":"Mesh_0.004",
			"primitives":[
				{
					"attributes":{
						"POSITION":0,
						"NORMAL":1,
						"TEXCOORD_0":2
					},
					"indices":3
				}
			]
		},
		{
			"name":"Mesh_2.003",
			"primitives":[
				{
					"attributes":{
						"POSITION":4,
						"NORMAL":5,
						"TEXCOORD_0":6
					},
					"indices":7
				}
			]
		},
		{
			"name":"Mesh_3.003",
			"primitives":[
				{
					"attributes":{
						"POSITION":8,
						"NORMAL":9,
						"TEXCOORD_0":10
					},
					"indices":11
				}
			]
		},
		{
			"name":"Mesh_1.001",
			"primitives":[
				{
					"attributes":{
						"POSITION":12,
						"NORMAL":13,
						"TEXCOORD_0":14
					},
					"indices":15
				}
			]
		},
		{
			"name":"Mesh_1.003",
			"primitives":[
				{
					"attributes":{
						"POSITION":16,
						"NORMAL":17,
						"TEXCOORD_0":18
					},
					"indices":19
				}
			]
		}
	],
	"accessors":[
		{
			"bufferView":0,
			"componentType":5126,
			"count":12715,
			"max":[
				0.00608209939673543,
				0.24465864896774292,
				0.1315843164920807
			],
			"min":[
				-0.0030894670635461807,
				-0.28425633907318115,
				0.06723351776599884
			],
			"type":"VEC3"
		},
		{
			"bufferView":1,
			"componentType":5126,
			"count":12715,
			"type":"VEC3"
		},
		{
			"bufferView":2,
			"componentType":5126,
			"count":12715,
			"type":"VEC2"
		},
		{
			"bufferView":3,
			"componentType":5123,
			"count":36288,
			"type":"SCALAR"
		},
		{
			"bufferView":4,
			"componentType":5126,
			"count":7452,
			"max":[
				0.010373897850513458,
				0.2488146424293518,
				0.13164016604423523
			],
			"min":[
				-0.007658660877496004,
				-0.2888062596321106,
				0.06519263982772827
			],
			"type":"VEC3"
		},
		{
			"bufferView":5,
			"componentType":5126,
			"count":7452,
			"type":"VEC3"
		},
		{
			"bufferView":6,
			"componentType":5126,
			"count":7452,
			"type":"VEC2"
		},
		{
			"bufferView":7,
			"componentType":5123,
			"count":26160,
			"type":"SCALAR"
		},
		{
			"bufferView":8,
			"componentType":5126,
			"count":113,
			"max":[
				0.007877450436353683,
				0.25006037950515747,
				0.12883354723453522
			],
			"min":[
				-0.010256413370370865,
				-0.28594738245010376,
				0.06232355162501335
			],
			"type":"VEC3"
		},
		{
			"bufferView":9,
			"componentType":5126,
			"count":113,
			"type":"VEC3"
		},
		{
			"bufferView":10,
			"componentType":5126,
			"count":113,
			"type":"VEC2"
		},
		{
			"bufferView":11,
			"componentType":5123,
			"count":324,
			"type":"SCALAR"
		},
		{
			"bufferView":12,
			"componentType":5126,
			"count":1082,
			"max":[
				0.026645898818969727,
				0.3001769483089447,
				0.1936766803264618
			],
			"min":[
				-0.014265526086091995,
				-0.38069307804107666,
				0.10454531013965607
			],
			"type":"VEC3"
		},
		{
			"bufferView":13,
			"componentType":5126,
			"count":1082,
			"type":"VEC3"
		},
		{
			"bufferView":14,
			"componentType":5126,
			"count":1082,
			"type":"VEC2"
		},
		{
			"bufferView":15,
			"componentType":5123,
			"count":6408,
			"type":"SCALAR"
		},
		{
			"bufferView":16,
			"componentType":5126,
			"count":15245,
			"max":[
				0.2128797471523285,
				0.3581485450267792,
				0.1258130669593811
			],
			"min":[
				-0.20922613143920898,
				-0.38352587819099426,
				-0.15336237847805023
			],
			"type":"VEC3"
		},
		{
			"bufferView":17,
			"componentType":5126,
			"count":15245,
			"type":"VEC3"
		},
		{
			"bufferView":18,
			"componentType":5126,
			"count":15245,
			"type":"VEC2"
		},
		{
			"bufferView":19,
			"componentType":5123,
			"count":89025,
			"type":"SCALAR"
		}
	],
	"bufferViews":[
		{
			"buffer":0,
			"byteLength":152580,
			"byteOffset":0,
			"target":34962
		},
		{
			"buffer":0,
			"byteLength":152580,
			"byteOffset":152580,
			"target":34962
		},
		{
			"buffer":0,
			"byteLength":101720,
			"byteOffset":305160,
			"target":34962
		},
		{
			"buffer":0,
			"byteLength":72576,
			"byteOffset":406880,
			"target":34963
		},
		{
			"buffer":0,
			"byteLength":89424,
			"byteOffset":479456,
			"target":34962
		},
		{
			"buffer":0,
			"byteLength":89424,
			"byteOffset":568880,
			"target":34962
		},
		{
			"buffer":0,
			"byteLength":59616,
			"byteOffset":658304,
			"target":34962
		},
		{
			"buffer":0,
			"byteLength":52320,
			"byteOffset":717920,
			"target":34963
		},
		{
			"buffer":0,
			"byteLength":1356,
			"byteOffset":770240,
			"target":34962
		},
		{
			"buffer":0,
			"byteLength":1356,
			"byteOffset":771596,
			"target":34962
		},
		{
			"buffer":0,
			"byteLength":904,
			"byteOffset":772952,
			"target":34962
		},
		{
			"buffer":0,
			"byteLength":648,
			"byteOffset":773856,
			"target":34963
		},
		{
			"buffer":0,
			"byteLength":12984,
			"byteOffset":774504,
			"target":34962
		},
		{
			"buffer":0,
			"byteLength":12984,
			"byteOffset":787488,
			"target":34962
		},
		{
			"buffer":0,
			"byteLength":8656,
			"byteOffset":800472,
			"target":34962
		},
		{
			"buffer":0,
			"byteLength":12816,
			"byteOffset":809128,
			"target":34963
		},
		{
			"buffer":0,
			"byteLength":182940,
			"byteOffset":821944,
			"target":34962
		},
		{
			"buffer":0,
			"byteLength":182940,
			"byteOffset":1004884,
			"target":34962
		},
		{
			"buffer":0,
			"byteLength":121960,
			"byteOffset":1187824,
			"target":34962
		},
		{
			"buffer":0,
			"byteLength":178050,
			"byteOffset":1309784,
			"target":34963
		}
	],
	"buffers":[
		{
			"byteLength":1487836,
			"uri":"boxplacket1.bin"
		}
	]
}
