{
	"asset":{
		"generator":"Khronos glTF Blender I/O v5.0.21",
		"version":"2.0"
	},
	"scene":0,
	"scenes":[
		{
			"name":"Scene",
			"nodes":[
				0,
				1,
				2
			]
		}
	],
	"nodes":[
		{
			"mesh":0,
			"name":"Tessuto.001"
		},
		{
			"mesh":1,
			"name":"Bottoni"
		},
		{
			"mesh":2,
			"name":"Filobottoni"
		}
	],
	"meshes":[
		{
			"name":"Mesh_0",
			"primitives":[
				{
					"attributes":{
						"POSITION":0,
						"NORMAL":1,
						"TEXCOORD_0":2
					},
					"indices":3
				}
			]
		},
		{
			"name":"Mesh_2",
			"primitives":[
				{
					"attributes":{
						"POSITION":4,
						"NORMAL":5,
						"TEXCOORD_0":6
					},
					"indices":7
				}
			]
		},
		{
			"name":"Mesh_4",
			"primitives":[
				{
					"attributes":{
						"POSITION":8,
						"NORMAL":9,
						"TEXCOORD_0":10
					},
					"indices":11
				}
			]
		}
	],
	"accessors":[
		{
			"bufferView":0,
			"componentType":5126,
			"count":16036,
			"max":[
				0.2128797471523285,
				0.3581485450267792,
				0.13287250697612762
			],
			"min":[
				-0.20922613143920898,
				-0.38352587819099426,
				-0.15336237847805023
			],
			"type":"VEC3"
		},
		{
			"bufferView":1,
			"componentType":5126,
			"count":16036,
			"type":"VEC3"
		},
		{
			"bufferView":2,
			"componentType":5126,
			"count":16036,
			"type":"VEC2"
		},
		{
			"bufferView":3,
			"componentType":5123,
			"count":93285,
			"type":"SCALAR"
		},
		{
			"bufferView":4,
			"componentType":5126,
			"count":7452,
			"max":[
				0.010373897850513458,
				0.2488146424293518,
				0.13164016604423523
			],
			"min":[
				-0.00906134583055973,
				-0.2888062596321106,
				0.06519263982772827
			],
			"type":"VEC3"
		},
		{
			"bufferView":5,
			"componentType":5126,
			"count":7452,
			"type":"VEC3"
		},
		{
			"bufferView":6,
			"componentType":5126,
			"count":7452,
			"type":"VEC2"
		},
		{
			"bufferView":7,
			"componentType":5123,
			"count":26160,
			"type":"SCALAR"
		},
		{
			"bufferView":8,
			"componentType":5126,
			"count":12670,
			"max":[
				0.00608209939673543,
				0.24465864896774292,
				0.1315843164920807
			],
			"min":[
				-0.004513815511018038,
				-0.2843617796897888,
				0.06723351776599884
			],
			"type":"VEC3"
		},
		{
			"bufferView":9,
			"componentType":5126,
			"count":12670,
			"type":"VEC3"
		},
		{
			"bufferView":10,
			"componentType":5126,
			"count":12670,
			"type":"VEC2"
		},
		{
			"bufferView":11,
			"componentType":5123,
			"count":36288,
			"type":"SCALAR"
		}
	],
	"bufferViews":[
		{
			"buffer":0,
			"byteLength":192432,
			"byteOffset":0,
			"target":34962
		},
		{
			"buffer":0,
			"byteLength":192432,
			"byteOffset":192432,
			"target":34962
		},
		{
			"buffer":0,
			"byteLength":128288,
			"byteOffset":384864,
			"target":34962
		},
		{
			"buffer":0,
			"byteLength":186570,
			"byteOffset":513152,
			"target":34963
		},
		{
			"buffer":0,
			"byteLength":89424,
			"byteOffset":699724,
			"target":34962
		},
		{
			"buffer":0,
			"byteLength":89424,
			"byteOffset":789148,
			"target":34962
		},
		{
			"buffer":0,
			"byteLength":59616,
			"byteOffset":878572,
			"target":34962
		},
		{
			"buffer":0,
			"byteLength":52320,
			"byteOffset":938188,
			"target":34963
		},
		{
			"buffer":0,
			"byteLength":152040,
			"byteOffset":990508,
			"target":34962
		},
		{
			"buffer":0,
			"byteLength":152040,
			"byteOffset":1142548,
			"target":34962
		},
		{
			"buffer":0,
			"byteLength":101360,
			"byteOffset":1294588,
			"target":34962
		},
		{
			"buffer":0,
			"byteLength":72576,
			"byteOffset":1395948,
			"target":34963
		}
	],
	"buffers":[
		{
			"byteLength":1468524,
			"uri":"frenchfront.bin"
		}
	]
}
