{
	"asset":{
		"generator":"Khronos glTF Blender I/O v5.1.20",
		"version":"2.0"
	},
	"scene":0,
	"scenes":[
		{
			"name":"Scene",
			"nodes":[
				0,
				1,
				2
			]
		}
	],
	"nodes":[
		{
			"mesh":0,
			"name":"long_sleeve",
			"rotation":[
				0.70710688829422,
				0,
				0,
				0.7071066498756409
			],
			"scale":[
				0.009999999776482582,
				0.009999997913837433,
				0.009999997913837433
			],
			"translation":[
				0.002145787002518773,
				0.0006827502511441708,
				0
			]
		},
		{
			"mesh":1,
			"name":"button",
			"rotation":[
				0.70710688829422,
				0,
				0,
				0.7071066498756409
			],
			"scale":[
				0.009999999776482582,
				0.009999997913837433,
				0.009999997913837433
			],
			"translation":[
				0.0046777306124567986,
				0.0029608006589114666,
				0.003405222436413169
			]
		},
		{
			"mesh":2,
			"name":"button.001",
			"rotation":[
				0.70710688829422,
				0,
				0,
				0.7071066498756409
			],
			"scale":[
				0.009999999776482582,
				0.009999997913837433,
				0.009999997913837433
			],
			"translation":[
				-0.0011951879132539034,
				0.0020147617906332016,
				0.0018580242758616805
			]
		}
	],
	"materials":[
		{
			"doubleSided":true,
			"name":"shirt_MAT.005",
			"pbrMetallicRoughness":{
				"metallicFactor":0,
				"roughnessFactor":0.5
			}
		},
		{
			"name":"Bottone.001"
		}
	],
	"meshes":[
		{
			"name":"Mesh.014",
			"primitives":[
				{
					"attributes":{
						"POSITION":0,
						"NORMAL":1,
						"TEXCOORD_0":2
					},
					"indices":3,
					"material":0
				},
				{
					"attributes":{
						"POSITION":4,
						"NORMAL":5,
						"TEXCOORD_0":6
					},
					"indices":7,
					"material":1
				}
			]
		},
		{
			"name":"Mesh.005",
			"primitives":[
				{
					"attributes":{
						"POSITION":8,
						"NORMAL":9,
						"TEXCOORD_0":10
					},
					"indices":11,
					"material":1
				}
			]
		},
		{
			"name":"Mesh.006",
			"primitives":[
				{
					"attributes":{
						"POSITION":12,
						"NORMAL":13,
						"TEXCOORD_0":14
					},
					"indices":15,
					"material":1
				}
			]
		}
	],
	"accessors":[
		{
			"bufferView":0,
			"componentType":5126,
			"count":26452,
			"max":[
				32.069454193115234,
				6.320054531097412,
				23.257369995117188
			],
			"min":[
				-32.069454193115234,
				-12.629891395568848,
				-39.39820098876953
			],
			"type":"VEC3"
		},
		{
			"bufferView":1,
			"componentType":5126,
			"count":26452,
			"type":"VEC3"
		},
		{
			"bufferView":2,
			"componentType":5126,
			"count":26452,
			"type":"VEC2"
		},
		{
			"bufferView":3,
			"componentType":5123,
			"count":152676,
			"type":"SCALAR"
		},
		{
			"bufferView":4,
			"componentType":5126,
			"count":271,
			"max":[
				29.517723083496094,
				-3.2937839031219482,
				17.54645347595215
			],
			"min":[
				-29.517723083496094,
				-3.99517560005188,
				16.539438247680664
			],
			"type":"VEC3"
		},
		{
			"bufferView":5,
			"componentType":5126,
			"count":271,
			"type":"VEC3"
		},
		{
			"bufferView":6,
			"componentType":5126,
			"count":271,
			"type":"VEC2"
		},
		{
			"bufferView":7,
			"componentType":5123,
			"count":435,
			"type":"SCALAR"
		},
		{
			"bufferView":8,
			"componentType":5126,
			"count":918,
			"max":[
				-28.97891616821289,
				-3.6890437602996826,
				17.715904235839844
			],
			"min":[
				-29.878751754760742,
				-4.5111613273620605,
				16.67226219177246
			],
			"type":"VEC3"
		},
		{
			"bufferView":9,
			"componentType":5126,
			"count":918,
			"type":"VEC3"
		},
		{
			"bufferView":10,
			"componentType":5126,
			"count":918,
			"type":"VEC2"
		},
		{
			"bufferView":11,
			"componentType":5123,
			"count":3495,
			"type":"SCALAR"
		},
		{
			"bufferView":12,
			"componentType":5126,
			"count":904,
			"max":[
				29.944887161254883,
				-3.444523811340332,
				17.72690773010254
			],
			"min":[
				29.042804718017578,
				-4.266348361968994,
				16.682371139526367
			],
			"type":"VEC3"
		},
		{
			"bufferView":13,
			"componentType":5126,
			"count":904,
			"type":"VEC3"
		},
		{
			"bufferView":14,
			"componentType":5126,
			"count":904,
			"type":"VEC2"
		},
		{
			"bufferView":15,
			"componentType":5123,
			"count":3477,
			"type":"SCALAR"
		}
	],
	"bufferViews":[
		{
			"buffer":0,
			"byteLength":317424,
			"byteOffset":0,
			"target":34962
		},
		{
			"buffer":0,
			"byteLength":317424,
			"byteOffset":317424,
			"target":34962
		},
		{
			"buffer":0,
			"byteLength":211616,
			"byteOffset":634848,
			"target":34962
		},
		{
			"buffer":0,
			"byteLength":305352,
			"byteOffset":846464,
			"target":34963
		},
		{
			"buffer":0,
			"byteLength":3252,
			"byteOffset":1151816,
			"target":34962
		},
		{
			"buffer":0,
			"byteLength":3252,
			"byteOffset":1155068,
			"target":34962
		},
		{
			"buffer":0,
			"byteLength":2168,
			"byteOffset":1158320,
			"target":34962
		},
		{
			"buffer":0,
			"byteLength":870,
			"byteOffset":1160488,
			"target":34963
		},
		{
			"buffer":0,
			"byteLength":11016,
			"byteOffset":1161360,
			"target":34962
		},
		{
			"buffer":0,
			"byteLength":11016,
			"byteOffset":1172376,
			"target":34962
		},
		{
			"buffer":0,
			"byteLength":7344,
			"byteOffset":1183392,
			"target":34962
		},
		{
			"buffer":0,
			"byteLength":6990,
			"byteOffset":1190736,
			"target":34963
		},
		{
			"buffer":0,
			"byteLength":10848,
			"byteOffset":1197728,
			"target":34962
		},
		{
			"buffer":0,
			"byteLength":10848,
			"byteOffset":1208576,
			"target":34962
		},
		{
			"buffer":0,
			"byteLength":7232,
			"byteOffset":1219424,
			"target":34962
		},
		{
			"buffer":0,
			"byteLength":6954,
			"byteOffset":1226656,
			"target":34963
		}
	],
	"buffers":[
		{
			"byteLength":1233612,
			"uri":"Full.bin"
		}
	]
}
