{
	"asset":{
		"generator":"Khronos glTF Blender I/O v5.1.20",
		"version":"2.0"
	},
	"scene":0,
	"scenes":[
		{
			"name":"Scene",
			"nodes":[
				0
			]
		}
	],
	"nodes":[
		{
			"mesh":0,
			"name":"short_sleeve_2",
			"rotation":[
				0.70710688829422,
				0,
				0,
				0.7071066498756409
			],
			"scale":[
				0.009999999776482582,
				0.010000000707805157,
				0.010000000707805157
			],
			"translation":[
				0.0006415258394554257,
				0.25371965765953064,
				-0.03887519985437393
			]
		}
	],
	"materials":[
		{
			"doubleSided":true,
			"name":"shirt_MAT",
			"pbrMetallicRoughness":{
				"metallicFactor":0,
				"roughnessFactor":0.5
			}
		}
	],
	"meshes":[
		{
			"name":"Mesh.114",
			"primitives":[
				{
					"attributes":{
						"POSITION":0,
						"NORMAL":1,
						"TEXCOORD_0":2
					},
					"indices":3,
					"material":0
				}
			]
		}
	],
	"accessors":[
		{
			"bufferView":0,
			"componentType":5126,
			"count":8891,
			"max":[
				28.90369415283203,
				8.731307983398438,
				13.983363151550293
			],
			"min":[
				-28.90369415283203,
				-8.64518928527832,
				-14.093121528625488
			],
			"type":"VEC3"
		},
		{
			"bufferView":1,
			"componentType":5126,
			"count":8891,
			"type":"VEC3"
		},
		{
			"bufferView":2,
			"componentType":5126,
			"count":8891,
			"type":"VEC2"
		},
		{
			"bufferView":3,
			"componentType":5123,
			"count":44226,
			"type":"SCALAR"
		}
	],
	"bufferViews":[
		{
			"buffer":0,
			"byteLength":106692,
			"byteOffset":0,
			"target":34962
		},
		{
			"buffer":0,
			"byteLength":106692,
			"byteOffset":106692,
			"target":34962
		},
		{
			"buffer":0,
			"byteLength":71128,
			"byteOffset":213384,
			"target":34962
		},
		{
			"buffer":0,
			"byteLength":88452,
			"byteOffset":284512,
			"target":34963
		}
	],
	"buffers":[
		{
			"byteLength":372964,
			"uri":"Half.bin"
		}
	]
}
