{
	"asset":{
		"generator":"Khronos glTF Blender I/O v4.5.47",
		"version":"2.0"
	},
	"scene":0,
	"scenes":[
		{
			"name":"Scene",
			"nodes":[
				0,
				1,
				2
			]
		}
	],
	"nodes":[
		{
			"mesh":0,
			"name":"Single Opening Both",
			"scale":[
				1,
				0.699482798576355,
				1
			],
			"translation":[
				0,
				1.0230004787445068,
				-0.4662558436393738
			]
		},
		{
			"mesh":1,
			"name":"S14.011",
			"rotation":[
				0.70710688829422,
				0,
				0,
				0.7071066498756409
			],
			"scale":[
				0.0762486457824707,
				0.0762486383318901,
				0.0762486383318901
			],
			"translation":[
				0,
				0,
				0.02719663642346859
			]
		},
		{
			"mesh":2,
			"name":"1 Thread.011",
			"rotation":[
				0.70710688829422,
				0,
				0,
				0.7071066498756409
			],
			"scale":[
				0.0762486457824707,
				0.0762486383318901,
				0.0762486383318901
			],
			"translation":[
				0,
				0.34494712948799133,
				0.02719663642346859
			]
		}
	],
	"materials":[
		{
			"name":"default.008"
		},
		{
			"doubleSided":true,
			"name":"Material.070",
			"pbrMetallicRoughness":{
				"metallicFactor":0.2116161584854126,
				"roughnessFactor":0.3400673270225525
			}
		},
		{
			"name":"default.009"
		}
	],
	"meshes":[
		{
			"name":"Plane.003",
			"primitives":[
				{
					"attributes":{
						"POSITION":0,
						"NORMAL":1,
						"TEXCOORD_0":2
					},
					"indices":3,
					"material":0
				}
			]
		},
		{
			"name":"S14_Circle.002",
			"primitives":[
				{
					"attributes":{
						"POSITION":4,
						"NORMAL":5,
						"TEXCOORD_0":6
					},
					"indices":7,
					"material":1
				}
			]
		},
		{
			"name":"Thread_Circle.001",
			"primitives":[
				{
					"attributes":{
						"POSITION":8,
						"NORMAL":9,
						"TEXCOORD_0":10
					},
					"indices":11,
					"material":2
				}
			]
		}
	],
	"accessors":[
		{
			"bufferView":0,
			"componentType":5126,
			"count":6812,
			"max":[
				0.7431593537330627,
				0.03269374370574951,
				0.1742382049560547
			],
			"min":[
				-0.7431592345237732,
				-0.03610384464263916,
				-0.12845557928085327
			],
			"type":"VEC3"
		},
		{
			"bufferView":1,
			"componentType":5126,
			"count":6812,
			"type":"VEC3"
		},
		{
			"bufferView":2,
			"componentType":5126,
			"count":6812,
			"type":"VEC2"
		},
		{
			"bufferView":3,
			"componentType":5123,
			"count":29568,
			"type":"SCALAR"
		},
		{
			"bufferView":4,
			"componentType":5126,
			"count":4558,
			"max":[
				7.25166130065918,
				-7.362811088562012,
				-11.382503509521484
			],
			"min":[
				-7.25166130065918,
				-7.8806681632995605,
				-12.27724552154541
			],
			"type":"VEC3"
		},
		{
			"bufferView":5,
			"componentType":5126,
			"count":4558,
			"type":"VEC3"
		},
		{
			"bufferView":6,
			"componentType":5126,
			"count":4558,
			"type":"VEC2"
		},
		{
			"bufferView":7,
			"componentType":5123,
			"count":12384,
			"type":"SCALAR"
		},
		{
			"bufferView":8,
			"componentType":5126,
			"count":520,
			"max":[
				6.971717357635498,
				-7.550304889678955,
				-7.183417797088623
			],
			"min":[
				-6.971717357635498,
				-7.772004127502441,
				-7.434265613555908
			],
			"type":"VEC3"
		},
		{
			"bufferView":9,
			"componentType":5126,
			"count":520,
			"type":"VEC3"
		},
		{
			"bufferView":10,
			"componentType":5126,
			"count":520,
			"type":"VEC2"
		},
		{
			"bufferView":11,
			"componentType":5123,
			"count":2592,
			"type":"SCALAR"
		}
	],
	"bufferViews":[
		{
			"buffer":0,
			"byteLength":81744,
			"byteOffset":0,
			"target":34962
		},
		{
			"buffer":0,
			"byteLength":81744,
			"byteOffset":81744,
			"target":34962
		},
		{
			"buffer":0,
			"byteLength":54496,
			"byteOffset":163488,
			"target":34962
		},
		{
			"buffer":0,
			"byteLength":59136,
			"byteOffset":217984,
			"target":34963
		},
		{
			"buffer":0,
			"byteLength":54696,
			"byteOffset":277120,
			"target":34962
		},
		{
			"buffer":0,
			"byteLength":54696,
			"byteOffset":331816,
			"target":34962
		},
		{
			"buffer":0,
			"byteLength":36464,
			"byteOffset":386512,
			"target":34962
		},
		{
			"buffer":0,
			"byteLength":24768,
			"byteOffset":422976,
			"target":34963
		},
		{
			"buffer":0,
			"byteLength":6240,
			"byteOffset":447744,
			"target":34962
		},
		{
			"buffer":0,
			"byteLength":6240,
			"byteOffset":453984,
			"target":34962
		},
		{
			"buffer":0,
			"byteLength":4160,
			"byteOffset":460224,
			"target":34962
		},
		{
			"buffer":0,
			"byteLength":5184,
			"byteOffset":464384,
			"target":34963
		}
	],
	"buffers":[
		{
			"byteLength":469568,
			"uri":"Normal.bin"
		}
	]
}
