{
	"asset":{
		"generator":"Khronos glTF Blender I/O v5.1.20",
		"version":"2.0"
	},
	"scene":0,
	"scenes":[
		{
			"name":"Scene",
			"nodes":[
				0,
				1,
				2
			]
		}
	],
	"nodes":[
		{
			"name":"Asole",
			"translation":[
				-0.0013892288552597165,
				0.11486297845840454,
				-0.004479778464883566
			]
		},
		{
			"mesh":0,
			"name":"yoke",
			"rotation":[
				0.70710688829422,
				0,
				0,
				0.7071066498756409
			],
			"scale":[
				0.009999999776482582,
				0.009999999776482582,
				0.009999999776482582
			]
		},
		{
			"mesh":1,
			"name":"pleat_no",
			"rotation":[
				0.70710688829422,
				0,
				0,
				0.7071066498756409
			],
			"scale":[
				0.009999999776482582,
				0.009999999776482582,
				0.009999999776482582
			]
		}
	],
	"materials":[
		{
			"doubleSided":true,
			"name":"Yoka_MAT.003",
			"pbrMetallicRoughness":{
				"metallicFactor":0,
				"roughnessFactor":0.5
			}
		},
		{
			"doubleSided":true,
			"name":"shirt_MAT.010",
			"pbrMetallicRoughness":{
				"metallicFactor":0,
				"roughnessFactor":0.5
			}
		}
	],
	"meshes":[
		{
			"name":"Mesh.016",
			"primitives":[
				{
					"attributes":{
						"POSITION":0,
						"NORMAL":1,
						"TEXCOORD_0":2
					},
					"indices":3,
					"material":0
				}
			]
		},
		{
			"name":"Mesh.017",
			"primitives":[
				{
					"attributes":{
						"POSITION":4,
						"NORMAL":5,
						"TEXCOORD_0":6
					},
					"indices":7,
					"material":1
				}
			]
		}
	],
	"accessors":[
		{
			"bufferView":0,
			"componentType":5126,
			"count":2163,
			"max":[
				21.48799705505371,
				-3.3881077766418457,
				-33.616233825683594
			],
			"min":[
				-21.07895851135254,
				-13.50024700164795,
				-47.32672882080078
			],
			"type":"VEC3"
		},
		{
			"bufferView":1,
			"componentType":5126,
			"count":2163,
			"type":"VEC3"
		},
		{
			"bufferView":2,
			"componentType":5126,
			"count":2163,
			"type":"VEC2"
		},
		{
			"bufferView":3,
			"componentType":5123,
			"count":11082,
			"type":"SCALAR"
		},
		{
			"bufferView":4,
			"componentType":5126,
			"count":7026,
			"max":[
				20.897451400756836,
				2.4685182571411133,
				32.04996109008789
			],
			"min":[
				-20.263412475585938,
				-15.522257804870605,
				-37.41635513305664
			],
			"type":"VEC3"
		},
		{
			"bufferView":5,
			"componentType":5126,
			"count":7026,
			"type":"VEC3"
		},
		{
			"bufferView":6,
			"componentType":5126,
			"count":7026,
			"type":"VEC2"
		},
		{
			"bufferView":7,
			"componentType":5123,
			"count":38844,
			"type":"SCALAR"
		}
	],
	"bufferViews":[
		{
			"buffer":0,
			"byteLength":25956,
			"byteOffset":0,
			"target":34962
		},
		{
			"buffer":0,
			"byteLength":25956,
			"byteOffset":25956,
			"target":34962
		},
		{
			"buffer":0,
			"byteLength":17304,
			"byteOffset":51912,
			"target":34962
		},
		{
			"buffer":0,
			"byteLength":22164,
			"byteOffset":69216,
			"target":34963
		},
		{
			"buffer":0,
			"byteLength":84312,
			"byteOffset":91380,
			"target":34962
		},
		{
			"buffer":0,
			"byteLength":84312,
			"byteOffset":175692,
			"target":34962
		},
		{
			"buffer":0,
			"byteLength":56208,
			"byteOffset":260004,
			"target":34962
		},
		{
			"buffer":0,
			"byteLength":77688,
			"byteOffset":316212,
			"target":34963
		}
	],
	"buffers":[
		{
			"byteLength":393900,
			"uri":"Back.bin"
		}
	]
}
