{
	"asset":{
		"generator":"Khronos glTF Blender I/O v4.5.47",
		"version":"2.0"
	},
	"scene":0,
	"scenes":[
		{
			"name":"Scene",
			"nodes":[
				0
			]
		}
	],
	"nodes":[
		{
			"mesh":0,
			"name":"Cube",
			"scale":[
				0.01769779808819294,
				0.01769779808819294,
				0.01769779808819294
			],
			"translation":[
				0.006002679467201233,
				0,
				0.005201943218708038
			]
		}
	],
	"materials":[
		{
			"name":"default.012"
		}
	],
	"meshes":[
		{
			"name":"Cube.001",
			"primitives":[
				{
					"attributes":{
						"POSITION":0,
						"NORMAL":1,
						"TEXCOORD_0":2
					},
					"indices":3
				},
				{
					"attributes":{
						"POSITION":4,
						"NORMAL":5,
						"TEXCOORD_0":6
					},
					"indices":7,
					"material":0
				}
			]
		}
	],
	"accessors":[
		{
			"bufferView":0,
			"componentType":5126,
			"count":960,
			"max":[
				50.798805236816406,
				73.43264770507812,
				34.165191650390625
			],
			"min":[
				-51.401817321777344,
				48.195533752441406,
				2.296471357345581
			],
			"type":"VEC3"
		},
		{
			"bufferView":1,
			"componentType":5126,
			"count":960,
			"type":"VEC3"
		},
		{
			"bufferView":2,
			"componentType":5126,
			"count":960,
			"type":"VEC2"
		},
		{
			"bufferView":3,
			"componentType":5123,
			"count":1440,
			"type":"SCALAR"
		},
		{
			"bufferView":4,
			"componentType":5126,
			"count":322,
			"max":[
				50.29088592529297,
				73.15950012207031,
				33.168739318847656
			],
			"min":[
				-50.893898010253906,
				49.21210479736328,
				1.146412968635559
			],
			"type":"VEC3"
		},
		{
			"bufferView":5,
			"componentType":5126,
			"count":322,
			"type":"VEC3"
		},
		{
			"bufferView":6,
			"componentType":5126,
			"count":322,
			"type":"VEC2"
		},
		{
			"bufferView":7,
			"componentType":5123,
			"count":1392,
			"type":"SCALAR"
		}
	],
	"bufferViews":[
		{
			"buffer":0,
			"byteLength":11520,
			"byteOffset":0,
			"target":34962
		},
		{
			"buffer":0,
			"byteLength":11520,
			"byteOffset":11520,
			"target":34962
		},
		{
			"buffer":0,
			"byteLength":7680,
			"byteOffset":23040,
			"target":34962
		},
		{
			"buffer":0,
			"byteLength":2880,
			"byteOffset":30720,
			"target":34963
		},
		{
			"buffer":0,
			"byteLength":3864,
			"byteOffset":33600,
			"target":34962
		},
		{
			"buffer":0,
			"byteLength":3864,
			"byteOffset":37464,
			"target":34962
		},
		{
			"buffer":0,
			"byteLength":2576,
			"byteOffset":41328,
			"target":34962
		},
		{
			"buffer":0,
			"byteLength":2784,
			"byteOffset":43904,
			"target":34963
		}
	],
	"buffers":[
		{
			"byteLength":46688,
			"uri":"Jeans.bin"
		}
	]
}
